<svg width="26" height="24" viewBox="0 0 26 24" fill="none" xmlns="http://www.w3.org/2000/svg">
<path d="M12.0205 0.92705C12.3199 0.00573945 13.6233 0.00574064 13.9226 0.927051L16.1084 7.65413C16.2423 8.06615 16.6262 8.34511 17.0595 8.34511H24.1327C25.1015 8.34511 25.5042 9.58473 24.7205 10.1541L18.9981 14.3117C18.6476 14.5663 18.501 15.0177 18.6349 15.4297L20.8206 22.1568C21.12 23.0781 20.0655 23.8442 19.2818 23.2748L13.5594 19.1173C13.2089 18.8626 12.7343 18.8626 12.3838 19.1173L6.66141 23.2748C5.87769 23.8442 4.82322 23.0781 5.12257 22.1568L7.30833 15.4297C7.4422 15.0177 7.29554 14.5663 6.94506 14.3117L1.22266 10.1541C0.438945 9.58473 0.841722 8.34511 1.81044 8.34511H8.88372C9.31694 8.34511 9.7009 8.06615 9.83477 7.65413L12.0205 0.92705Z" fill="#FF812C"/>
</svg>
