<svg width="15" height="24" viewBox="0 0 15 24" fill="none" xmlns="http://www.w3.org/2000/svg">
<g clip-path="url(#clip0_517_826)">
<path d="M4.43423 8.38884C3.5815 8.38884 2.85176 8.22334 2.24502 7.89231C1.63828 7.56131 1.17091 7.09108 0.842941 6.48172C0.523168 5.87235 0.363281 5.14637 0.363281 4.30377C0.363281 3.67183 0.453475 3.10758 0.633858 2.61106C0.822445 2.107 1.08892 1.68195 1.43329 1.33588C1.78587 0.982301 2.21633 0.711469 2.72468 0.523383C3.23303 0.327787 3.8029 0.22998 4.43423 0.22998C4.9426 0.22998 5.42637 0.297689 5.8855 0.433106C6.34467 0.560993 6.74233 0.752834 7.0785 1.00863C7.1851 1.08386 7.2548 1.17037 7.2876 1.26817C7.3286 1.35845 7.3327 1.44873 7.2999 1.53901C7.2753 1.62176 7.2261 1.69324 7.1523 1.75342C7.08673 1.80609 7.00473 1.83241 6.90633 1.83241C6.80793 1.83241 6.69723 1.7948 6.57427 1.71956C6.27907 1.5014 5.9552 1.33964 5.60263 1.23432C5.25007 1.129 4.8688 1.07633 4.45883 1.07633C3.81107 1.07633 3.26174 1.20422 2.81077 1.46002C2.35981 1.70828 2.01955 2.07315 1.78996 2.55464C1.56037 3.03612 1.44559 3.61916 1.44559 4.30377C1.44559 4.98838 1.56037 5.57519 1.78996 6.06419C2.01955 6.54567 2.35981 6.91429 2.81077 7.17008C3.26174 7.41836 3.81107 7.54248 4.45883 7.54248C4.8606 7.54248 5.24187 7.48982 5.60263 7.38449C5.9634 7.27166 6.29547 7.10612 6.59887 6.88796C6.72183 6.81275 6.83253 6.77888 6.93093 6.78642C7.02933 6.78642 7.11133 6.81275 7.1769 6.86541C7.2425 6.91808 7.2876 6.98579 7.3122 7.06853C7.345 7.15128 7.345 7.23779 7.3122 7.32807C7.2876 7.41836 7.2261 7.49736 7.1277 7.56506C6.78333 7.83589 6.37747 8.04277 5.9101 8.18572C5.45097 8.32113 4.959 8.38884 4.43423 8.38884Z" fill="#2B2B2B"/>
<mask id="mask0_517_826" style="mask-type:luminance" maskUnits="userSpaceOnUse" x="0" y="0" width="8" height="9">
<path d="M7.68683 0H0V8.63986H7.68683V0Z" fill="white"/>
</mask>
<g mask="url(#mask0_517_826)">
<path d="M0.845658 6.48176L0.672504 6.55825L0.673351 6.55984L0.845658 6.48176ZM0.636578 2.61111L0.454808 2.55386L0.454268 2.55536L0.636578 2.61111ZM2.7274 0.523438L2.79927 0.686979L2.80171 0.686043L2.7274 0.523438ZM5.88822 0.433161L5.82942 0.601022L5.83092 0.601461L5.83242 0.601884L5.88822 0.433161ZM7.08122 1.00868L6.95858 1.14442L6.96128 1.14646L6.96405 1.14843L7.08122 1.00868ZM7.29032 1.26823L7.10665 1.32009L7.10935 1.3282L7.11292 1.33604L7.29032 1.26823ZM7.30262 1.53906L7.12028 1.48331L7.11862 1.48795L7.11722 1.49267L7.30262 1.53906ZM7.15502 1.75347L7.28158 1.88617L7.28272 1.88526L7.15502 1.75347ZM6.57698 1.71962L6.45642 1.85694L6.46318 1.86191L6.47038 1.86632L6.57698 1.71962ZM2.81349 1.46007L2.91236 1.61129L2.91453 1.61005L2.81349 1.46007ZM1.79268 6.06423L1.61619 6.134L1.61661 6.13491L1.79268 6.06423ZM2.81349 7.17015L2.71243 7.32014L2.71462 7.32135L2.81349 7.17015ZM5.60535 7.38456L5.66362 7.55256L5.66552 7.55202L5.66738 7.55145L5.60535 7.38456ZM6.60158 6.88803L6.49498 6.7413L6.48882 6.74505L6.48302 6.74924L6.60158 6.88803ZM6.93365 6.78646L6.91768 6.96216L6.92565 6.96277H6.93365V6.78646ZM7.31492 7.06857L7.12952 7.11499L7.13158 7.12198L7.13432 7.12885L7.31492 7.06857ZM7.31492 7.32811L7.13258 7.27237L7.13028 7.27879L7.12848 7.28539L7.31492 7.32811ZM7.13042 7.5651L7.01512 7.42405L7.01012 7.42749L7.00535 7.43121L7.13042 7.5651ZM5.91282 8.18576L5.97165 8.35366L5.97358 8.35305L5.91282 8.18576ZM4.43695 8.21256C3.61158 8.21256 2.91736 8.05254 2.34596 7.74081L2.14952 8.04392C2.79162 8.39422 3.55685 8.56523 4.43695 8.56523V8.21256ZM2.34596 7.74081C1.77273 7.4281 1.33035 6.98414 1.01796 6.40371L0.673351 6.55984C1.01691 7.19817 1.50924 7.6946 2.14952 8.04392L2.34596 7.74081ZM1.0188 6.4053C0.714248 5.8249 0.558171 5.1263 0.558171 4.30381H0.173828C0.173828 5.16652 0.337514 5.91989 0.672504 6.55825L1.0188 6.4053ZM0.558171 4.30381C0.558171 3.68701 0.646224 3.14213 0.818884 2.66687L0.454268 2.55536C0.266157 3.07315 0.173828 3.65672 0.173828 4.30381H0.558171ZM0.818334 2.66837C0.999544 2.18402 1.25357 1.78078 1.57793 1.45483L1.29422 1.21692C0.929838 1.58311 0.650768 2.03011 0.454808 2.55386L0.818334 2.66837ZM1.57793 1.45483C1.91015 1.12165 2.31619 0.865701 2.79927 0.686979L2.65553 0.359913C2.12189 0.557346 1.66713 0.842918 1.29422 1.21692L1.57793 1.45483ZM2.80171 0.686043C3.28337 0.500709 3.82745 0.406358 4.43695 0.406358V0.0537109C3.78375 0.0537109 3.18815 0.154956 2.65309 0.360833L2.80171 0.686043ZM4.43695 0.406358C4.92642 0.406358 5.39028 0.47151 5.82942 0.601022L5.94705 0.2653C5.46788 0.123976 4.96418 0.0537109 4.43695 0.0537109V0.406358ZM5.83242 0.601884C6.26955 0.723635 6.64392 0.905004 6.95858 1.14442L7.20388 0.872945C6.84622 0.600792 6.42525 0.398459 5.94405 0.264436L5.83242 0.601884ZM6.96405 1.14843C7.04572 1.20608 7.08778 1.26388 7.10665 1.32009L7.47398 1.21637C7.42725 1.07699 7.32992 0.961745 7.19838 0.868926L6.96405 1.14843ZM7.11292 1.33604C7.13662 1.38822 7.13798 1.43463 7.12028 1.48331L7.48492 1.59482C7.53282 1.46294 7.52598 1.3288 7.46772 1.20042L7.11292 1.33604ZM7.11722 1.49267C7.10298 1.54053 7.07492 1.58288 7.02735 1.62169L7.28272 1.88526C7.38272 1.80369 7.45305 1.7031 7.48802 1.58545L7.11722 1.49267ZM7.02848 1.62077C7.00245 1.64167 6.96728 1.65614 6.90905 1.65614V2.00879C7.04759 2.00879 7.17638 1.9706 7.28158 1.88617L7.02848 1.62077ZM6.90905 1.65614C6.86322 1.65614 6.78985 1.63793 6.68358 1.5729L6.47038 1.86632C6.61005 1.95177 6.75808 2.00879 6.90905 2.00879V1.65614ZM6.69752 1.5823C6.38458 1.35099 6.04012 1.17882 5.66485 1.06671L5.54585 1.40204C5.87575 1.50059 6.17902 1.65189 6.45642 1.85694L6.69752 1.5823ZM5.66485 1.06671C5.29115 0.955079 4.88962 0.900065 4.46155 0.900065V1.25271C4.85342 1.25271 5.21442 1.30302 5.54585 1.40204L5.66485 1.06671ZM4.46155 0.900065C3.78602 0.900065 3.19987 1.03361 2.71245 1.31009L2.91453 1.61005C3.32903 1.37494 3.84158 1.25271 4.46155 1.25271V0.900065ZM2.71462 1.30887C2.22637 1.57766 1.86069 1.97213 1.61661 2.48402L1.96874 2.62536C2.18382 2.17429 2.4987 1.83903 2.91236 1.61129L2.71462 1.30887ZM1.61661 2.48402C1.37372 2.99344 1.25614 3.60193 1.25614 4.30381H1.64048C1.64048 3.63651 1.75248 3.0789 1.96874 2.62536L1.61661 2.48402ZM1.25614 4.30381C1.25614 5.00583 1.37376 5.61762 1.61619 6.134L1.96917 5.99449C1.75244 5.53285 1.64048 4.97101 1.64048 4.30381H1.25614ZM1.61661 6.13491C1.86051 6.64645 2.22556 7.04397 2.71243 7.32014L2.91453 7.02017C2.49948 6.78473 2.184 6.44501 1.96874 5.99358L1.61661 6.13491ZM2.71462 7.32135C3.20166 7.58944 3.78702 7.71887 4.46155 7.71887V7.36621C3.84058 7.36621 3.32724 7.24736 2.91236 7.01895L2.71462 7.32135ZM4.46155 7.71887C4.88188 7.71887 5.28288 7.66374 5.66362 7.55256L5.54708 7.21653C5.20628 7.31601 4.84475 7.36621 4.46155 7.36621V7.71887ZM5.66738 7.55145C6.04882 7.43212 6.39995 7.25706 6.72012 7.02679L6.48302 6.74924C6.19645 6.95534 5.88345 7.11127 5.54335 7.21765L5.66738 7.55145ZM6.70818 7.03474C6.81225 6.97109 6.87942 6.95926 6.91768 6.96216L6.94958 6.61075C6.79108 6.59861 6.63688 6.65452 6.49498 6.7413L6.70818 7.03474ZM6.93365 6.96277C6.99188 6.96277 7.02705 6.97727 7.05308 6.99816L7.30618 6.73274C7.20098 6.64834 7.07218 6.61014 6.93365 6.61014V6.96277ZM7.05308 6.99816C7.08815 7.02629 7.11408 7.06313 7.12952 7.11499L7.50032 7.0222C7.46655 6.90852 7.40228 6.80992 7.30618 6.73274L7.05308 6.99816ZM7.13432 7.12885C7.15105 7.1711 7.15288 7.2166 7.13258 7.27237L7.49722 7.38389C7.54255 7.25912 7.54435 7.13155 7.49552 7.00834L7.13432 7.12885ZM7.12848 7.28539C7.11672 7.32849 7.08598 7.3753 7.01512 7.42405L7.24572 7.70616C7.37165 7.61949 7.46392 7.50832 7.50135 7.37087L7.12848 7.28539ZM7.00535 7.43121C6.68145 7.68598 6.29788 7.88214 5.85205 8.0185L5.97358 8.35305C6.46248 8.20354 6.89068 7.98588 7.25548 7.699L7.00535 7.43121ZM5.85402 8.01789C5.41548 8.14726 4.94348 8.21256 4.43695 8.21256V8.56523C4.97992 8.56523 5.49188 8.49516 5.97165 8.35366L5.85402 8.01789Z" fill="#2B2B2B"/>
</g>
<path d="M2.27574 14.03C2.24294 14.03 2.21219 14.0244 2.1835 14.0131C2.1589 14.0055 2.13636 13.9905 2.11585 13.9679C2.09946 13.9454 2.08513 13.9209 2.07283 13.8946C2.06462 13.8645 2.06053 13.8288 2.06055 13.7874L2.06101 10.1988C2.06103 10.1274 2.08153 10.0728 2.12252 10.0352C2.16353 9.99383 2.22299 9.97314 2.30088 9.97314C2.37467 9.97314 2.43205 9.99383 2.47304 10.0352C2.51405 10.0728 2.53454 10.1274 2.53452 10.1988L2.5341 13.3924H2.39881L5.06812 10.1142C5.10502 10.0615 5.14195 10.0258 5.17885 10.007C5.21982 9.98443 5.27108 9.97314 5.33258 9.97314C5.37768 9.97314 5.41455 9.98254 5.44325 10.0014C5.47195 10.0164 5.49448 10.0409 5.51088 10.0747C5.52728 10.1086 5.53548 10.1499 5.53545 10.1988L5.53502 13.7987C5.53498 13.8739 5.51448 13.9322 5.47348 13.9736C5.43658 14.0112 5.38122 14.03 5.30745 14.03C5.22955 14.03 5.17008 14.0112 5.12908 13.9736C5.08812 13.9322 5.06762 13.8739 5.06765 13.7987L5.06805 10.6107H5.20335L2.53404 13.889C2.49303 13.9378 2.45613 13.9736 2.42333 13.9962C2.39053 14.0187 2.34133 14.03 2.27574 14.03Z" fill="#2B2B2B"/>
<path d="M1.95512 23.7264C1.79114 23.7264 1.66408 23.6851 1.57393 23.6023C1.492 23.512 1.45108 23.3917 1.45117 23.2411L1.45552 16.1656C1.45562 16.0076 1.50079 15.8911 1.59102 15.8158C1.68126 15.7331 1.80838 15.6917 1.97236 15.6917H4.88722C5.81375 15.6917 6.52695 15.9023 7.02685 16.3236C7.52675 16.7374 7.77648 17.3242 7.77602 18.084C7.77555 18.8364 7.52512 19.4232 7.02468 19.8444C6.52425 20.2658 5.81082 20.4764 4.88429 20.4764H2.46138L2.45969 23.2411C2.45959 23.3917 2.41853 23.512 2.33647 23.6023C2.25443 23.6851 2.12731 23.7264 1.95512 23.7264ZM2.46186 19.6977H4.76175C5.42592 19.6977 5.92615 19.5623 6.26249 19.2915C6.60702 19.0133 6.77945 18.6107 6.77979 18.084C6.78012 17.5499 6.60819 17.1474 6.26395 16.8765C5.92799 16.5983 5.42792 16.459 4.76375 16.459H2.46386L2.46186 19.6977Z" fill="#2B2B2B"/>
<mask id="mask1_517_826" style="mask-type:luminance" maskUnits="userSpaceOnUse" x="1" y="15" width="8" height="9">
<path d="M8.0719 15.3601H1.14844V24H8.0719V15.3601Z" fill="white"/>
</mask>
<g mask="url(#mask1_517_826)">
<path d="M1.5747 23.6023L1.42701 23.7153L1.43258 23.7213L1.43874 23.727L1.5747 23.6023ZM1.59178 15.8159L1.72098 15.9463L1.72436 15.9435L1.72759 15.9405L1.59178 15.8159ZM7.02762 16.3236L6.89759 16.4536L6.89885 16.4547L7.02762 16.3236ZM2.46214 20.4765L2.46226 20.3001H2.27009L2.26997 20.4765H2.46214ZM2.33723 23.6023L2.47936 23.721L2.48215 23.7181L2.4848 23.7153L2.33723 23.6023ZM2.46263 19.6978H2.27045L2.27036 19.8741H2.46253L2.46263 19.6978ZM6.26472 16.8766L6.13592 17.0076L6.13772 17.009L6.13959 17.0106L6.26472 16.8766ZM2.46462 16.4591L2.46472 16.2827H2.27255L2.27245 16.4591H2.46462ZM1.956 23.5501C1.82775 23.5501 1.7553 23.5187 1.71068 23.4776L1.43874 23.727C1.57441 23.8516 1.75607 23.9028 1.95579 23.9028L1.956 23.5501ZM1.7224 23.4895C1.67651 23.4389 1.64403 23.3623 1.64411 23.2412H1.25977C1.25966 23.4212 1.30903 23.5852 1.42701 23.7153L1.7224 23.4895ZM1.64411 23.2412L1.64845 16.1657H1.26411L1.25977 23.2412H1.64411ZM1.64845 16.1657C1.64853 16.0364 1.68514 15.9763 1.72098 15.9463L1.4626 15.6854C1.31797 15.806 1.26423 15.9791 1.26411 16.1657H1.64845ZM1.72759 15.9405C1.77227 15.8996 1.84478 15.868 1.97303 15.868L1.97324 15.5154C1.77352 15.5154 1.5918 15.5667 1.45598 15.6912L1.72759 15.9405ZM1.97303 15.868H4.88789L4.88809 15.5154H1.97324L1.97303 15.868ZM4.88789 15.868C5.78402 15.868 6.44432 16.0717 6.89759 16.4536L7.15765 16.1939C6.61112 15.7331 5.84499 15.5154 4.88809 15.5154L4.88789 15.868ZM6.89885 16.4547C7.34932 16.8276 7.58505 17.3619 7.58459 18.0841H7.96895C7.96942 17.2868 7.70572 16.6474 7.15638 16.1928L6.89885 16.4547ZM7.58459 18.0841C7.58415 18.7982 7.34822 19.3335 6.89559 19.7147L7.15532 19.9744C7.70355 19.513 7.96845 18.8747 7.96895 18.0841H7.58459ZM6.89559 19.7147C6.44185 20.0966 5.78132 20.3001 4.88515 20.3001L4.88495 20.6528C5.84185 20.6528 6.60825 20.435 7.15532 19.9744L6.89559 19.7147ZM4.88515 20.3001H2.46226L2.46205 20.6528H4.88495L4.88515 20.3001ZM2.26997 20.4765L2.26828 23.2412H2.65262L2.65432 20.4765H2.26997ZM2.26828 23.2412C2.26821 23.3623 2.23565 23.4389 2.18968 23.4895L2.4848 23.7153C2.60293 23.5852 2.65251 23.4212 2.65262 23.2412H2.26828ZM2.19512 23.4838C2.16253 23.5166 2.09698 23.5501 1.956 23.5501L1.95579 23.9028C2.15917 23.9028 2.34786 23.8536 2.47936 23.721L2.19512 23.4838ZM2.46253 19.8741H4.76242L4.76265 19.5215H2.46274L2.46253 19.8741ZM4.76242 19.8741C5.45122 19.8741 6.00495 19.7341 6.38999 19.4241L6.13655 19.1591C5.84889 19.3908 5.40212 19.5215 4.76265 19.5215L4.76242 19.8741ZM6.38999 19.4241C6.78599 19.1041 6.97239 18.6478 6.97272 18.0841H6.58839C6.58809 18.5737 6.42965 18.9223 6.13655 19.1591L6.38999 19.4241ZM6.97272 18.0841C6.97309 17.5142 6.78812 17.0561 6.38989 16.7428L6.13959 17.0106C6.42979 17.239 6.58869 17.5858 6.58839 18.0841H6.97272ZM6.39355 16.7458C6.00889 16.4271 5.45455 16.2827 4.76462 16.2827L4.76442 16.6354C5.40282 16.6354 5.84859 16.7696 6.13592 17.0076L6.39355 16.7458ZM4.76462 16.2827H2.46472L2.46451 16.6354H4.76442L4.76462 16.2827ZM2.27245 16.4591L2.27045 19.6978H2.6548L2.6568 16.4591H2.27245Z" fill="#2B2B2B"/>
</g>
<mask id="mask2_517_826" style="mask-type:luminance" maskUnits="userSpaceOnUse" x="8" y="9" width="7" height="6">
<path fill-rule="evenodd" clip-rule="evenodd" d="M14.4732 10.7979C14.4398 10.7979 13.9793 10.7979 13.9793 10.7979C13.9793 10.7979 13.9777 10.8363 13.973 10.8622C13.9678 10.8917 13.9582 10.9283 13.941 10.9693C13.906 11.053 13.8423 11.1482 13.7323 11.2359C13.5155 11.4086 13.1413 11.5357 12.4975 11.5357H11.4555L11.085 13.0114H11.2627C11.6718 13.0114 12.0036 13.3418 12.0036 13.7493V14.2412C12.0036 14.6488 11.6718 14.979 11.2627 14.979H9.5339C9.12467 14.979 8.79297 14.6488 8.79297 14.2412V13.6112C8.79297 13.2983 9.0335 13.0415 9.34044 13.0139L9.7115 11.5357H9.5339C9.12467 11.5357 8.79297 11.2054 8.79297 10.7979V10.306C8.79297 9.89844 9.12467 9.56812 9.5339 9.56812H12.4975C13.1413 9.56812 13.5155 9.69525 13.7323 9.86795C13.8423 9.95563 13.906 10.0509 13.941 10.1345C13.9582 10.1756 13.9678 10.2121 13.973 10.2416C13.9769 10.263 13.9783 10.2843 13.9793 10.306H14.4732C14.6096 10.306 14.7202 10.4161 14.7202 10.5519C14.7202 10.6877 14.6096 10.7979 14.4732 10.7979ZM13.4853 10.7794L13.4851 10.7801C13.4815 10.7887 13.468 10.8165 13.4237 10.8517C13.3458 10.9138 13.1592 11.0086 12.7445 11.0361V10.0677C13.1592 10.0952 13.3458 10.19 13.4237 10.252C13.468 10.2873 13.4815 10.3151 13.4851 10.3237L13.4853 10.3244V10.7794ZM12.2505 10.06V11.0438H11.4555C11.2288 11.0438 11.0313 11.1974 10.9763 11.4164L10.6058 12.8921C10.5279 13.2026 10.7637 13.5033 11.085 13.5033H11.2627C11.399 13.5033 11.5096 13.6135 11.5096 13.7493V14.2412C11.5096 14.377 11.399 14.4871 11.2627 14.4871H9.5339C9.39747 14.4871 9.2869 14.377 9.2869 14.2412V13.6112C9.2869 13.5516 9.3354 13.5033 9.39517 13.5033C9.59003 13.5033 9.75987 13.3713 9.8071 13.1831L10.1907 11.655C10.2686 11.3446 10.0329 11.0438 9.7115 11.0438H9.5339C9.39747 11.0438 9.2869 10.9337 9.2869 10.7979V10.306C9.2869 10.1701 9.39747 10.06 9.5339 10.06H12.2505Z" fill="white"/>
</mask>
<g mask="url(#mask2_517_826)">
<path d="M13.9768 10.7979L7.57578 10.5724L7.81238 4.92045H13.9768V10.7979ZM11.453 11.5358L5.21072 10.2165L6.35498 5.6583H11.453V11.5358ZM11.0825 13.0115V18.8889H3.03367L4.84028 11.6923L11.0825 13.0115ZM9.33791 13.0139L15.5802 14.3332L14.5463 18.4516L9.96208 18.8635L9.33791 13.0139ZM9.70898 11.5358V5.6583H17.7579L15.9512 12.855L9.70898 11.5358ZM13.9705 10.2416L7.64985 11.196L7.64978 11.1956L13.9705 10.2416ZM13.9768 10.306V16.1834H7.82692L7.57642 10.5454L13.9768 10.306ZM13.4828 10.7795H19.8885V11.8518L19.4759 12.855L13.4828 10.7795ZM13.4825 10.7802L19.4755 12.8557L19.469 12.8714L19.4625 12.8871L13.4825 10.7802ZM12.7419 11.0362L13.2033 16.8984L6.33625 17.3533V11.0362H12.7419ZM12.7419 10.0678H6.33625V3.75061L13.2033 4.20556L12.7419 10.0678ZM13.4825 10.3237L19.4625 8.21684L19.469 8.23249L19.4755 8.24817L13.4825 10.3237ZM13.4828 10.3245L19.4759 8.24888L19.8885 9.25215V10.3245H13.4828ZM12.248 10.0601V4.18257H18.6537V10.0601H12.248ZM12.248 11.0439H18.6537V16.9213H12.248V11.0439ZM14.4707 16.6753C14.4706 16.6753 14.4708 16.6753 14.4707 16.6753C14.4706 16.6753 14.4704 16.6753 14.4703 16.6753C14.4702 16.6753 14.4704 16.6753 14.4703 16.6753C14.4702 16.6753 14.4699 16.6753 14.4698 16.6753C14.4698 16.6753 14.4699 16.6753 14.4698 16.6753C14.4698 16.6753 14.4694 16.6753 14.4694 16.6753C14.4693 16.6753 14.4695 16.6753 14.4694 16.6753C14.4693 16.6753 14.4689 16.6753 14.4688 16.6753C14.4687 16.6753 14.4689 16.6753 14.4688 16.6753C14.4687 16.6753 14.4684 16.6753 14.4683 16.6753C14.4682 16.6753 14.4684 16.6753 14.4683 16.6753C14.4682 16.6753 14.4678 16.6753 14.4677 16.6753C14.4676 16.6753 14.4678 16.6753 14.4677 16.6753C14.4675 16.6753 14.4671 16.6753 14.467 16.6753C14.4669 16.6753 14.4671 16.6753 14.467 16.6753C14.4669 16.6753 14.4665 16.6753 14.4664 16.6753C14.4662 16.6753 14.4661 16.6753 14.466 16.6753C14.4659 16.6753 14.4658 16.6753 14.4657 16.6753C14.4655 16.6753 14.4654 16.6753 14.4653 16.6753C14.4652 16.6753 14.465 16.6753 14.4649 16.6753C14.4648 16.6753 14.4646 16.6753 14.4645 16.6753C14.4644 16.6753 14.4642 16.6753 14.4641 16.6753C14.464 16.6753 14.4638 16.6753 14.4637 16.6753C14.4636 16.6753 14.4634 16.6753 14.4633 16.6753C14.4632 16.6753 14.463 16.6753 14.4629 16.6753C14.4627 16.6753 14.4626 16.6753 14.4624 16.6753C14.4623 16.6753 14.4621 16.6753 14.462 16.6753C14.4618 16.6753 14.4617 16.6753 14.4615 16.6753C14.4614 16.6753 14.4612 16.6753 14.4611 16.6753C14.4609 16.6753 14.4608 16.6753 14.4606 16.6753C14.4605 16.6753 14.4603 16.6753 14.4601 16.6753C14.46 16.6753 14.4598 16.6753 14.4597 16.6753C14.4595 16.6753 14.4593 16.6753 14.4592 16.6753C14.459 16.6753 14.4588 16.6753 14.4587 16.6753C14.4585 16.6753 14.4583 16.6753 14.4582 16.6753C14.458 16.6753 14.4578 16.6753 14.4576 16.6753C14.4575 16.6753 14.4573 16.6753 14.4571 16.6753C14.4569 16.6753 14.4568 16.6753 14.4566 16.6753C14.4564 16.6753 14.4562 16.6753 14.456 16.6753C14.4559 16.6753 14.4557 16.6753 14.4555 16.6753C14.4553 16.6753 14.4551 16.6753 14.4549 16.6753C14.4547 16.6753 14.4545 16.6753 14.4544 16.6753C14.4542 16.6753 14.454 16.6753 14.4538 16.6753C14.4536 16.6753 14.4534 16.6753 14.4532 16.6753C14.453 16.6753 14.4528 16.6753 14.4526 16.6753C14.4524 16.6753 14.4522 16.6753 14.452 16.6753C14.4518 16.6753 14.4516 16.6753 14.4514 16.6753C14.4512 16.6753 14.451 16.6753 14.4508 16.6753C14.4506 16.6753 14.4504 16.6753 14.4502 16.6753C14.45 16.6753 14.4497 16.6753 14.4495 16.6753C14.4493 16.6753 14.4491 16.6753 14.4489 16.6753C14.4487 16.6753 14.4485 16.6753 14.4482 16.6753C14.448 16.6753 14.4478 16.6753 14.4476 16.6753C14.4474 16.6753 14.4471 16.6753 14.4469 16.6753C14.4467 16.6753 14.4465 16.6753 14.4463 16.6753C14.446 16.6753 14.4458 16.6753 14.4456 16.6753C14.4454 16.6753 14.4451 16.6753 14.4449 16.6753C14.4447 16.6753 14.4444 16.6753 14.4442 16.6753C14.444 16.6753 14.4437 16.6753 14.4435 16.6753C14.4433 16.6753 14.443 16.6753 14.4428 16.6753C14.4426 16.6753 14.4423 16.6753 14.4421 16.6753C14.4418 16.6753 14.4416 16.6753 14.4414 16.6753C14.4411 16.6753 14.4409 16.6753 14.4406 16.6753C14.4404 16.6753 14.4402 16.6753 14.4399 16.6753C14.4397 16.6753 14.4394 16.6753 14.4392 16.6753C14.4389 16.6753 14.4387 16.6753 14.4384 16.6753C14.4382 16.6753 14.4379 16.6753 14.4377 16.6753C14.4374 16.6753 14.4371 16.6753 14.4369 16.6753C14.4366 16.6753 14.4364 16.6753 14.4361 16.6753C14.4358 16.6753 14.4356 16.6753 14.4353 16.6753C14.4351 16.6753 14.4348 16.6753 14.4345 16.6753C14.4343 16.6753 14.434 16.6753 14.4338 16.6753C14.4335 16.6753 14.4332 16.6753 14.4329 16.6753C14.4327 16.6753 14.4324 16.6753 14.4321 16.6753C14.4319 16.6753 14.4316 16.6753 14.4313 16.6753C14.4311 16.6753 14.4308 16.6753 14.4305 16.6753C14.4302 16.6753 14.43 16.6753 14.4297 16.6753C14.4294 16.6753 14.4291 16.6753 14.4289 16.6753C14.4286 16.6753 14.4283 16.6753 14.428 16.6753C14.4277 16.6753 14.4274 16.6753 14.4272 16.6753C14.4269 16.6753 14.4266 16.6753 14.4263 16.6753C14.426 16.6753 14.4257 16.6753 14.4255 16.6753C14.4252 16.6753 14.4249 16.6753 14.4246 16.6753C14.4243 16.6753 14.424 16.6753 14.4237 16.6753C14.4234 16.6753 14.4231 16.6753 14.4228 16.6753C14.4225 16.6753 14.4222 16.6753 14.4219 16.6753C14.4216 16.6753 14.4213 16.6753 14.421 16.6753C14.4207 16.6753 14.4204 16.6753 14.4201 16.6753C14.4198 16.6753 14.4195 16.6753 14.4192 16.6753C14.4189 16.6753 14.4186 16.6753 14.4183 16.6753C14.418 16.6753 14.4177 16.6753 14.4174 16.6753C14.4171 16.6753 14.4168 16.6753 14.4165 16.6753C14.4162 16.6753 14.4159 16.6753 14.4156 16.6753C14.4152 16.6753 14.4149 16.6753 14.4146 16.6753C14.4143 16.6753 14.414 16.6753 14.4137 16.6753C14.4134 16.6753 14.413 16.6753 14.4127 16.6753C14.4124 16.6753 14.4121 16.6753 14.4118 16.6753C14.4115 16.6753 14.4111 16.6753 14.4108 16.6753C14.4105 16.6753 14.4102 16.6753 14.4098 16.6753C14.4095 16.6753 14.4092 16.6753 14.4089 16.6753C14.4085 16.6753 14.4082 16.6753 14.4079 16.6753C14.4076 16.6753 14.4072 16.6753 14.4069 16.6753C14.4066 16.6753 14.4063 16.6753 14.4059 16.6753C14.4056 16.6753 14.4053 16.6753 14.4049 16.6753C14.4046 16.6753 14.4043 16.6753 14.4039 16.6753C14.4036 16.6753 14.4033 16.6753 14.4029 16.6753C14.4026 16.6753 14.4023 16.6753 14.4019 16.6753C14.4016 16.6753 14.4012 16.6753 14.4009 16.6753C14.4005 16.6753 14.4002 16.6753 14.3999 16.6753C14.3995 16.6753 14.3992 16.6753 14.3988 16.6753C14.3985 16.6753 14.3981 16.6753 14.3978 16.6753C14.3975 16.6753 14.3971 16.6753 14.3968 16.6753C14.3964 16.6753 14.3961 16.6753 14.3957 16.6753C14.3954 16.6753 14.395 16.6753 14.3947 16.6753C14.3943 16.6753 14.394 16.6753 14.3936 16.6753C14.3933 16.6753 14.3929 16.6753 14.3925 16.6753C14.3922 16.6753 14.3918 16.6753 14.3915 16.6753C14.3911 16.6753 14.3908 16.6753 14.3904 16.6753C14.3901 16.6753 14.3897 16.6753 14.3893 16.6753C14.389 16.6753 14.3886 16.6753 14.3883 16.6753C14.3879 16.6753 14.3875 16.6753 14.3872 16.6753C14.3868 16.6753 14.3865 16.6753 14.3861 16.6753C14.3857 16.6753 14.3854 16.6753 14.385 16.6753C14.3846 16.6753 14.3843 16.6753 14.3839 16.6753C14.3835 16.6753 14.3832 16.6753 14.3828 16.6753C14.3824 16.6753 14.3821 16.6753 14.3817 16.6753C14.3813 16.6753 14.3809 16.6753 14.3806 16.6753C14.3802 16.6753 14.3798 16.6753 14.3794 16.6753C14.3791 16.6753 14.3787 16.6753 14.3783 16.6753C14.3779 16.6753 14.3776 16.6753 14.3772 16.6753C14.3768 16.6753 14.3764 16.6753 14.3761 16.6753C14.3757 16.6753 14.3753 16.6753 14.3749 16.6753C14.3745 16.6753 14.3742 16.6753 14.3738 16.6753C14.3734 16.6753 14.373 16.6753 14.3726 16.6753C14.3722 16.6753 14.3719 16.6753 14.3715 16.6753C14.3711 16.6753 14.3707 16.6753 14.3703 16.6753C14.3699 16.6753 14.3695 16.6753 14.3692 16.6753C14.3688 16.6753 14.3684 16.6753 14.368 16.6753C14.3676 16.6753 14.3672 16.6753 14.3668 16.6753C14.3664 16.6753 14.366 16.6753 14.3656 16.6753C14.3653 16.6753 14.3649 16.6753 14.3645 16.6753C14.3641 16.6753 14.3637 16.6753 14.3633 16.6753C14.3629 16.6753 14.3625 16.6753 14.3621 16.6753C14.3617 16.6753 14.3613 16.6753 14.3609 16.6753C14.3605 16.6753 14.3601 16.6753 14.3597 16.6753C14.3593 16.6753 14.3589 16.6753 14.3585 16.6753C14.3581 16.6753 14.3577 16.6753 14.3573 16.6753C14.3569 16.6753 14.3565 16.6753 14.3561 16.6753C14.3557 16.6753 14.3553 16.6753 14.3549 16.6753C14.3545 16.6753 14.3541 16.6753 14.3537 16.6753C14.3533 16.6753 14.3529 16.6753 14.3525 16.6753C14.3521 16.6753 14.3517 16.6753 14.3513 16.6753C14.3508 16.6753 14.3504 16.6753 14.35 16.6753C14.3496 16.6753 14.3492 16.6753 14.3488 16.6753C14.3484 16.6753 14.348 16.6753 14.3476 16.6753C14.3472 16.6753 14.3467 16.6753 14.3463 16.6753C14.3459 16.6753 14.3455 16.6753 14.3451 16.6753C14.3447 16.6753 14.3443 16.6753 14.3439 16.6753C14.3434 16.6753 14.343 16.6753 14.3426 16.6753C14.3422 16.6753 14.3418 16.6753 14.3414 16.6753C14.3409 16.6753 14.3405 16.6753 14.3401 16.6753C14.3397 16.6753 14.3393 16.6753 14.3388 16.6753C14.3384 16.6753 14.338 16.6753 14.3376 16.6753C14.3372 16.6753 14.3367 16.6753 14.3363 16.6753C14.3359 16.6753 14.3355 16.6753 14.3351 16.6753C14.3346 16.6753 14.3342 16.6753 14.3338 16.6753C14.3334 16.6753 14.3329 16.6753 14.3325 16.6753C14.3321 16.6753 14.3317 16.6753 14.3312 16.6753C14.3308 16.6753 14.3304 16.6753 14.3299 16.6753C14.3295 16.6753 14.3291 16.6753 14.3287 16.6753C14.3282 16.6753 14.3278 16.6753 14.3274 16.6753C14.3269 16.6753 14.3265 16.6753 14.3261 16.6753C14.3257 16.6753 14.3252 16.6753 14.3248 16.6753C14.3244 16.6753 14.3239 16.6753 14.3235 16.6753C14.3231 16.6753 14.3226 16.6753 14.3222 16.6753C14.3218 16.6753 14.3214 16.6753 14.3209 16.6753C14.3205 16.6753 14.32 16.6753 14.3196 16.6753C14.3192 16.6753 14.3187 16.6753 14.3183 16.6753C14.3179 16.6753 14.3174 16.6753 14.317 16.6753C14.3165 16.6753 14.3161 16.6753 14.3157 16.6753C14.3152 16.6753 14.3148 16.6753 14.3144 16.6753C14.3139 16.6753 14.3135 16.6753 14.313 16.6753C14.3126 16.6753 14.3122 16.6753 14.3117 16.6753C14.3113 16.6753 14.3109 16.6753 14.3104 16.6753C14.31 16.6753 14.3095 16.6753 14.3091 16.6753C14.3086 16.6753 14.3082 16.6753 14.3078 16.6753C14.3073 16.6753 14.3069 16.6753 14.3064 16.6753C14.306 16.6753 14.3055 16.6753 14.3051 16.6753C14.3047 16.6753 14.3042 16.6753 14.3038 16.6753C14.3033 16.6753 14.3029 16.6753 14.3024 16.6753C14.302 16.6753 14.3015 16.6753 14.3011 16.6753C14.3006 16.6753 14.3002 16.6753 14.2998 16.6753C14.2993 16.6753 14.2988 16.6753 14.2984 16.6753C14.298 16.6753 14.2975 16.6753 14.2971 16.6753C14.2966 16.6753 14.2962 16.6753 14.2957 16.6753C14.2953 16.6753 14.2948 16.6753 14.2944 16.6753C14.2939 16.6753 14.2935 16.6753 14.293 16.6753C14.2926 16.6753 14.2921 16.6753 14.2917 16.6753C14.2912 16.6753 14.2908 16.6753 14.2903 16.6753C14.2899 16.6753 14.2894 16.6753 14.289 16.6753C14.2885 16.6753 14.288 16.6753 14.2876 16.6753C14.2871 16.6753 14.2867 16.6753 14.2862 16.6753C14.2858 16.6753 14.2853 16.6753 14.2849 16.6753C14.2844 16.6753 14.284 16.6753 14.2835 16.6753C14.2831 16.6753 14.2826 16.6753 14.2821 16.6753C14.2817 16.6753 14.2812 16.6753 14.2808 16.6753C14.2803 16.6753 14.2799 16.6753 14.2794 16.6753C14.279 16.6753 14.2785 16.6753 14.278 16.6753C14.2776 16.6753 14.2771 16.6753 14.2767 16.6753C14.2762 16.6753 14.2757 16.6753 14.2753 16.6753C14.2748 16.6753 14.2744 16.6753 14.2739 16.6753C14.2735 16.6753 14.273 16.6753 14.2725 16.6753C14.2721 16.6753 14.2716 16.6753 14.2712 16.6753C14.2707 16.6753 14.2703 16.6753 14.2698 16.6753C14.2693 16.6753 14.2689 16.6753 14.2684 16.6753C14.2679 16.6753 14.2675 16.6753 14.267 16.6753C14.2666 16.6753 14.2661 16.6753 14.2656 16.6753C14.2652 16.6753 14.2647 16.6753 14.2643 16.6753C14.2638 16.6753 14.2633 16.6753 14.2629 16.6753C14.2624 16.6753 14.262 16.6753 14.2615 16.6753C14.261 16.6753 14.2606 16.6753 14.2601 16.6753C14.2596 16.6753 14.2592 16.6753 14.2587 16.6753C14.2583 16.6753 14.2578 16.6753 14.2573 16.6753C14.2569 16.6753 14.2564 16.6753 14.2559 16.6753C14.2555 16.6753 14.255 16.6753 14.2546 16.6753C14.2541 16.6753 14.2536 16.6753 14.2531 16.6753C14.2527 16.6753 14.2522 16.6753 14.2518 16.6753C14.2513 16.6753 14.2508 16.6753 14.2504 16.6753C14.2499 16.6753 14.2494 16.6753 14.249 16.6753C14.2485 16.6753 14.2481 16.6753 14.2476 16.6753C14.2471 16.6753 14.2467 16.6753 14.2462 16.6753C14.2457 16.6753 14.2453 16.6753 14.2448 16.6753C14.2443 16.6753 14.2439 16.6753 14.2434 16.6753C14.2429 16.6753 14.2425 16.6753 14.242 16.6753C14.2415 16.6753 14.2411 16.6753 14.2406 16.6753C14.2401 16.6753 14.2397 16.6753 14.2392 16.6753C14.2387 16.6753 14.2383 16.6753 14.2378 16.6753C14.2373 16.6753 14.2369 16.6753 14.2364 16.6753C14.2359 16.6753 14.2355 16.6753 14.235 16.6753C14.2345 16.6753 14.2341 16.6753 14.2336 16.6753C14.2331 16.6753 14.2327 16.6753 14.2322 16.6753C14.2317 16.6753 14.2313 16.6753 14.2308 16.6753C14.2303 16.6753 14.2299 16.6753 14.2294 16.6753C14.229 16.6753 14.2285 16.6753 14.228 16.6753C14.2276 16.6753 14.2271 16.6753 14.2266 16.6753C14.2261 16.6753 14.2257 16.6753 14.2252 16.6753C14.2247 16.6753 14.2243 16.6753 14.2238 16.6753C14.2233 16.6753 14.2229 16.6753 14.2224 16.6753C14.2219 16.6753 14.2215 16.6753 14.221 16.6753C14.2205 16.6753 14.2201 16.6753 14.2196 16.6753C14.2192 16.6753 14.2187 16.6753 14.2182 16.6753C14.2178 16.6753 14.2173 16.6753 14.2168 16.6753C14.2163 16.6753 14.2159 16.6753 14.2154 16.6753C14.2149 16.6753 14.2145 16.6753 14.214 16.6753C14.2135 16.6753 14.2131 16.6753 14.2126 16.6753C14.2122 16.6753 14.2117 16.6753 14.2112 16.6753C14.2108 16.6753 14.2103 16.6753 14.2098 16.6753C14.2094 16.6753 14.2089 16.6753 14.2084 16.6753C14.208 16.6753 14.2075 16.6753 14.207 16.6753C14.2066 16.6753 14.2061 16.6753 14.2056 16.6753C14.2052 16.6753 14.2047 16.6753 14.2042 16.6753C14.2038 16.6753 14.2033 16.6753 14.2028 16.6753C14.2024 16.6753 14.2019 16.6753 14.2014 16.6753C14.201 16.6753 14.2005 16.6753 14.2001 16.6753C14.1996 16.6753 14.1991 16.6753 14.1987 16.6753C14.1982 16.6753 14.1977 16.6753 14.1973 16.6753C14.1968 16.6753 14.1963 16.6753 14.1959 16.6753C14.1954 16.6753 14.1949 16.6753 14.1945 16.6753C14.194 16.6753 14.1936 16.6753 14.1931 16.6753C14.1926 16.6753 14.1922 16.6753 14.1917 16.6753C14.1912 16.6753 14.1908 16.6753 14.1903 16.6753C14.1898 16.6753 14.1894 16.6753 14.1889 16.6753C14.1885 16.6753 14.188 16.6753 14.1875 16.6753C14.1871 16.6753 14.1866 16.6753 14.1862 16.6753C14.1857 16.6753 14.1852 16.6753 14.1848 16.6753C14.1843 16.6753 14.1839 16.6753 14.1834 16.6753C14.1829 16.6753 14.1825 16.6753 14.182 16.6753C14.1815 16.6753 14.1811 16.6753 14.1806 16.6753C14.1802 16.6753 14.1797 16.6753 14.1792 16.6753C14.1788 16.6753 14.1783 16.6753 14.1779 16.6753C14.1774 16.6753 14.177 16.6753 14.1765 16.6753C14.176 16.6753 14.1756 16.6753 14.1751 16.6753C14.1746 16.6753 14.1742 16.6753 14.1737 16.6753C14.1733 16.6753 14.1728 16.6753 14.1724 16.6753C14.1719 16.6753 14.1715 16.6753 14.171 16.6753C14.1705 16.6753 14.1701 16.6753 14.1696 16.6753C14.1692 16.6753 14.1687 16.6753 14.1682 16.6753C14.1678 16.6753 14.1673 16.6753 14.1669 16.6753C14.1664 16.6753 14.166 16.6753 14.1655 16.6753C14.1651 16.6753 14.1646 16.6753 14.1642 16.6753C14.1637 16.6753 14.1633 16.6753 14.1628 16.6753C14.1623 16.6753 14.1619 16.6753 14.1614 16.6753C14.161 16.6753 14.1605 16.6753 14.1601 16.6753C14.1596 16.6753 14.1592 16.6753 14.1587 16.6753C14.1583 16.6753 14.1578 16.6753 14.1574 16.6753C14.1569 16.6753 14.1565 16.6753 14.156 16.6753C14.1556 16.6753 14.1551 16.6753 14.1547 16.6753C14.1542 16.6753 14.1538 16.6753 14.1533 16.6753C14.1529 16.6753 14.1524 16.6753 14.152 16.6753C14.1515 16.6753 14.1511 16.6753 14.1506 16.6753C14.1502 16.6753 14.1497 16.6753 14.1493 16.6753C14.1488 16.6753 14.1484 16.6753 14.148 16.6753C14.1475 16.6753 14.1471 16.6753 14.1466 16.6753C14.1462 16.6753 14.1457 16.6753 14.1453 16.6753C14.1448 16.6753 14.1444 16.6753 14.1439 16.6753C14.1435 16.6753 14.1431 16.6753 14.1426 16.6753C14.1422 16.6753 14.1417 16.6753 14.1413 16.6753C14.1408 16.6753 14.1404 16.6753 14.14 16.6753C14.1395 16.6753 14.1391 16.6753 14.1386 16.6753C14.1382 16.6753 14.1377 16.6753 14.1373 16.6753C14.1369 16.6753 14.1364 16.6753 14.136 16.6753C14.1356 16.6753 14.1351 16.6753 14.1347 16.6753C14.1343 16.6753 14.1338 16.6753 14.1334 16.6753C14.1329 16.6753 14.1325 16.6753 14.1321 16.6753C14.1316 16.6753 14.1312 16.6753 14.1308 16.6753C14.1303 16.6753 14.1299 16.6753 14.1294 16.6753C14.129 16.6753 14.1286 16.6753 14.1281 16.6753C14.1277 16.6753 14.1273 16.6753 14.1268 16.6753C14.1264 16.6753 14.126 16.6753 14.1255 16.6753C14.1251 16.6753 14.1247 16.6753 14.1243 16.6753C14.1238 16.6753 14.1234 16.6753 14.123 16.6753C14.1225 16.6753 14.1221 16.6753 14.1217 16.6753C14.1212 16.6753 14.1208 16.6753 14.1204 16.6753C14.12 16.6753 14.1195 16.6753 14.1191 16.6753C14.1187 16.6753 14.1182 16.6753 14.1178 16.6753C14.1174 16.6753 14.117 16.6753 14.1166 16.6753C14.1161 16.6753 14.1157 16.6753 14.1153 16.6753C14.1149 16.6753 14.1144 16.6753 14.114 16.6753C14.1136 16.6753 14.1132 16.6753 14.1127 16.6753C14.1123 16.6753 14.1119 16.6753 14.1115 16.6753C14.1111 16.6753 14.1106 16.6753 14.1102 16.6753C14.1098 16.6753 14.1094 16.6753 14.109 16.6753C14.1085 16.6753 14.1081 16.6753 14.1077 16.6753C14.1073 16.6753 14.1069 16.6753 14.1065 16.6753C14.106 16.6753 14.1056 16.6753 14.1052 16.6753C14.1048 16.6753 14.1044 16.6753 14.104 16.6753C14.1036 16.6753 14.1031 16.6753 14.1027 16.6753C14.1023 16.6753 14.1019 16.6753 14.1015 16.6753C14.1011 16.6753 14.1007 16.6753 14.1003 16.6753C14.0999 16.6753 14.0995 16.6753 14.099 16.6753C14.0986 16.6753 14.0982 16.6753 14.0978 16.6753C14.0974 16.6753 14.097 16.6753 14.0966 16.6753C14.0962 16.6753 14.0958 16.6753 14.0954 16.6753C14.095 16.6753 14.0946 16.6753 14.0942 16.6753C14.0938 16.6753 14.0934 16.6753 14.093 16.6753C14.0926 16.6753 14.0921 16.6753 14.0917 16.6753C14.0914 16.6753 14.091 16.6753 14.0906 16.6753C14.0902 16.6753 14.0897 16.6753 14.0894 16.6753C14.089 16.6753 14.0886 16.6753 14.0882 16.6753C14.0878 16.6753 14.0874 16.6753 14.087 16.6753C14.0866 16.6753 14.0862 16.6753 14.0858 16.6753C14.0854 16.6753 14.085 16.6753 14.0846 16.6753C14.0842 16.6753 14.0838 16.6753 14.0834 16.6753C14.083 16.6753 14.0827 16.6753 14.0823 16.6753C14.0819 16.6753 14.0815 16.6753 14.0811 16.6753C14.0807 16.6753 14.0803 16.6753 14.0799 16.6753C14.0795 16.6753 14.0792 16.6753 14.0788 16.6753C14.0784 16.6753 14.078 16.6753 14.0776 16.6753C14.0772 16.6753 14.0769 16.6753 14.0765 16.6753C14.0761 16.6753 14.0757 16.6753 14.0753 16.6753C14.0749 16.6753 14.0745 16.6753 14.0742 16.6753C14.0738 16.6753 14.0734 16.6753 14.073 16.6753C14.0727 16.6753 14.0723 16.6753 14.0719 16.6753C14.0715 16.6753 14.0711 16.6753 14.0708 16.6753C14.0704 16.6753 14.07 16.6753 14.0696 16.6753C14.0693 16.6753 14.0689 16.6753 14.0685 16.6753C14.0682 16.6753 14.0678 16.6753 14.0674 16.6753C14.067 16.6753 14.0667 16.6753 14.0663 16.6753C14.0659 16.6753 14.0656 16.6753 14.0652 16.6753C14.0648 16.6753 14.0645 16.6753 14.0641 16.6753C14.0637 16.6753 14.0634 16.6753 14.063 16.6753C14.0627 16.6753 14.0623 16.6753 14.0619 16.6753C14.0616 16.6753 14.0612 16.6753 14.0608 16.6753C14.0605 16.6753 14.0601 16.6753 14.0598 16.6753C14.0594 16.6753 14.059 16.6753 14.0587 16.6753C14.0583 16.6753 14.058 16.6753 14.0576 16.6753C14.0573 16.6753 14.0569 16.6753 14.0566 16.6753C14.0562 16.6753 14.0558 16.6753 14.0555 16.6753C14.0551 16.6753 14.0548 16.6753 14.0544 16.6753C14.0541 16.6753 14.0537 16.6753 14.0534 16.6753C14.053 16.6753 14.0527 16.6753 14.0523 16.6753C14.052 16.6753 14.0517 16.6753 14.0513 16.6753C14.051 16.6753 14.0506 16.6753 14.0503 16.6753C14.0499 16.6753 14.0496 16.6753 14.0493 16.6753C14.0489 16.6753 14.0486 16.6753 14.0482 16.6753C14.0479 16.6753 14.0475 16.6753 14.0472 16.6753C14.0469 16.6753 14.0465 16.6753 14.0462 16.6753C14.0459 16.6753 14.0455 16.6753 14.0452 16.6753C14.0449 16.6753 14.0445 16.6753 14.0442 16.6753C14.0439 16.6753 14.0435 16.6753 14.0432 16.6753C14.0429 16.6753 14.0425 16.6753 14.0422 16.6753C14.0419 16.6753 14.0416 16.6753 14.0412 16.6753C14.0409 16.6753 14.0406 16.6753 14.0403 16.6753C14.0399 16.6753 14.0396 16.6753 14.0393 16.6753C14.039 16.6753 14.0386 16.6753 14.0383 16.6753C14.038 16.6753 14.0377 16.6753 14.0374 16.6753C14.0371 16.6753 14.0367 16.6753 14.0364 16.6753C14.0361 16.6753 14.0358 16.6753 14.0355 16.6753C14.0351 16.6753 14.0348 16.6753 14.0345 16.6753C14.0342 16.6753 14.0339 16.6753 14.0336 16.6753C14.0333 16.6753 14.033 16.6753 14.0327 16.6753C14.0324 16.6753 14.0321 16.6753 14.0317 16.6753C14.0314 16.6753 14.0311 16.6753 14.0308 16.6753C14.0305 16.6753 14.0302 16.6753 14.0299 16.6753C14.0296 16.6753 14.0293 16.6753 14.029 16.6753C14.0287 16.6753 14.0284 16.6753 14.0281 16.6753C14.0278 16.6753 14.0275 16.6753 14.0272 16.6753C14.0269 16.6753 14.0266 16.6753 14.0263 16.6753C14.026 16.6753 14.0258 16.6753 14.0255 16.6753C14.0252 16.6753 14.0249 16.6753 14.0246 16.6753C14.0243 16.6753 14.024 16.6753 14.0237 16.6753C14.0234 16.6753 14.0231 16.6753 14.0229 16.6753C14.0226 16.6753 14.0223 16.6753 14.022 16.6753C14.0217 16.6753 14.0214 16.6753 14.0212 16.6753C14.0209 16.6753 14.0206 16.6753 14.0203 16.6753C14.02 16.6753 14.0198 16.6753 14.0195 16.6753C14.0192 16.6753 14.019 16.6753 14.0187 16.6753C14.0184 16.6753 14.0181 16.6753 14.0179 16.6753C14.0176 16.6753 14.0173 16.6753 14.017 16.6753C14.0168 16.6753 14.0165 16.6753 14.0162 16.6753C14.016 16.6753 14.0157 16.6753 14.0154 16.6753C14.0152 16.6753 14.0149 16.6753 14.0146 16.6753C14.0144 16.6753 14.0141 16.6753 14.0139 16.6753C14.0136 16.6753 14.0133 16.6753 14.0131 16.6753C14.0128 16.6753 14.0126 16.6753 14.0123 16.6753C14.0121 16.6753 14.0118 16.6753 14.0116 16.6753C14.0113 16.6753 14.011 16.6753 14.0108 16.6753C14.0105 16.6753 14.0103 16.6753 14.01 16.6753C14.0098 16.6753 14.0096 16.6753 14.0093 16.6753C14.0091 16.6753 14.0088 16.6753 14.0086 16.6753C14.0083 16.6753 14.0081 16.6753 14.0078 16.6753C14.0076 16.6753 14.0074 16.6753 14.0071 16.6753C14.0069 16.6753 14.0066 16.6753 14.0064 16.6753C14.0062 16.6753 14.0059 16.6753 14.0057 16.6753C14.0055 16.6753 14.0052 16.6753 14.005 16.6753C14.0048 16.6753 14.0045 16.6753 14.0043 16.6753C14.0041 16.6753 14.0039 16.6753 14.0036 16.6753C14.0034 16.6753 14.0032 16.6753 14.003 16.6753C14.0027 16.6753 14.0025 16.6753 14.0023 16.6753C14.0021 16.6753 14.0018 16.6753 14.0016 16.6753C14.0014 16.6753 14.0012 16.6753 14.001 16.6753C14.0008 16.6753 14.0005 16.6753 14.0003 16.6753C14.0001 16.6753 13.9999 16.6753 13.9997 16.6753C13.9995 16.6753 13.9993 16.6753 13.9991 16.6753C13.9988 16.6753 13.9987 16.6753 13.9984 16.6753C13.9982 16.6753 13.998 16.6753 13.9978 16.6753C13.9976 16.6753 13.9974 16.6753 13.9972 16.6753C13.997 16.6753 13.9968 16.6753 13.9966 16.6753C13.9964 16.6753 13.9962 16.6753 13.996 16.6753C13.9959 16.6753 13.9956 16.6753 13.9954 16.6753C13.9953 16.6753 13.9951 16.6753 13.9949 16.6753C13.9947 16.6753 13.9945 16.6753 13.9943 16.6753C13.9941 16.6753 13.9939 16.6753 13.9938 16.6753C13.9936 16.6753 13.9934 16.6753 13.9932 16.6753C13.993 16.6753 13.9929 16.6753 13.9927 16.6753C13.9925 16.6753 13.9923 16.6753 13.9921 16.6753C13.992 16.6753 13.9918 16.6753 13.9916 16.6753C13.9915 16.6753 13.9913 16.6753 13.9911 16.6753C13.9909 16.6753 13.9908 16.6753 13.9906 16.6753C13.9904 16.6753 13.9903 16.6753 13.9901 16.6753C13.9899 16.6753 13.9898 16.6753 13.9896 16.6753C13.9894 16.6753 13.9893 16.6753 13.9891 16.6753C13.989 16.6753 13.9888 16.6753 13.9886 16.6753C13.9885 16.6753 13.9883 16.6753 13.9882 16.6753C13.988 16.6753 13.9879 16.6753 13.9877 16.6753C13.9876 16.6753 13.9874 16.6753 13.9873 16.6753C13.9871 16.6753 13.987 16.6753 13.9868 16.6753C13.9867 16.6753 13.9866 16.6753 13.9864 16.6753C13.9863 16.6753 13.9861 16.6753 13.986 16.6753C13.9859 16.6753 13.9857 16.6753 13.9856 16.6753C13.9854 16.6753 13.9853 16.6753 13.9852 16.6753C13.9851 16.6753 13.9849 16.6753 13.9848 16.6753C13.9846 16.6753 13.9845 16.6753 13.9844 16.6753C13.9843 16.6753 13.9841 16.6753 13.984 16.6753C13.9839 16.6753 13.9838 16.6753 13.9836 16.6753C13.9835 16.6753 13.9838 16.6753 13.9836 16.6753C13.9835 16.6753 13.9831 16.6753 13.9829 16.6753C13.9828 16.6753 13.9827 16.6753 13.9826 16.6753C13.9825 16.6753 13.9827 16.6753 13.9826 16.6753C13.9825 16.6753 13.9821 16.6753 13.982 16.6753C13.9818 16.6753 13.9821 16.6753 13.982 16.6753C13.9819 16.6753 13.9814 16.6753 13.9813 16.6753C13.9812 16.6753 13.9814 16.6753 13.9813 16.6753C13.9812 16.6753 13.9809 16.6753 13.9808 16.6753C13.9807 16.6753 13.9809 16.6753 13.9808 16.6753C13.9807 16.6753 13.9803 16.6753 13.9802 16.6753C13.9801 16.6753 13.9803 16.6753 13.9802 16.6753C13.9801 16.6753 13.9798 16.6753 13.9797 16.6753C13.9796 16.6753 13.9798 16.6753 13.9797 16.6753C13.9796 16.6753 13.9793 16.6753 13.9792 16.6753C13.9792 16.6753 13.9793 16.6753 13.9792 16.6753C13.9792 16.6753 13.9789 16.6753 13.9788 16.6753C13.9788 16.6753 13.9789 16.6753 13.9788 16.6753C13.9788 16.6753 13.9785 16.6753 13.9784 16.6753C13.9784 16.6753 13.9785 16.6753 13.9784 16.6753C13.9784 16.6753 13.9782 16.6753 13.9781 16.6753C13.978 16.6753 13.9781 16.6753 13.9781 16.6753C13.978 16.6753 13.9776 16.6753 13.9775 16.6753C13.9775 16.6753 13.9771 16.6753 13.977 16.6753C13.977 16.6753 13.9768 16.6753 13.9768 10.7979C13.9768 4.92045 13.9768 4.92045 13.9768 4.92045C13.9767 4.92045 13.9768 4.92045 13.9768 4.92045C13.9768 4.92045 13.9772 4.92045 13.9773 4.92045C13.9772 4.92045 13.9773 4.92045 13.9773 4.92045C13.9773 4.92045 13.9777 4.92045 13.9778 4.92045C13.9777 4.92045 13.9778 4.92045 13.9778 4.92045C13.9779 4.92045 13.9784 4.92045 13.9784 4.92045C13.9784 4.92045 13.9785 4.92045 13.9784 4.92045C13.9785 4.92045 13.9788 4.92045 13.9788 4.92045C13.9788 4.92045 13.9789 4.92045 13.9788 4.92045C13.9789 4.92045 13.9792 4.92045 13.9792 4.92045C13.9792 4.92045 13.9793 4.92045 13.9792 4.92045C13.9793 4.92045 13.9796 4.92045 13.9797 4.92045C13.9796 4.92045 13.9798 4.92045 13.9797 4.92045C13.9798 4.92045 13.9801 4.92045 13.9802 4.92045C13.9802 4.92045 13.9803 4.92045 13.9802 4.92045C13.9803 4.92045 13.9807 4.92045 13.9808 4.92045C13.9807 4.92045 13.9809 4.92045 13.9808 4.92045C13.9809 4.92045 13.9812 4.92045 13.9813 4.92045C13.9812 4.92045 13.9814 4.92045 13.9813 4.92045C13.9814 4.92045 13.9818 4.92045 13.982 4.92045C13.9818 4.92045 13.9821 4.92045 13.982 4.92045C13.982 4.92045 13.9825 4.92045 13.9826 4.92045C13.9827 4.92045 13.9828 4.92045 13.9829 4.92045C13.9831 4.92045 13.9832 4.92045 13.9833 4.92045C13.9832 4.92045 13.9834 4.92045 13.9833 4.92045C13.9834 4.92045 13.9839 4.92045 13.984 4.92045C13.9841 4.92045 13.9843 4.92045 13.9844 4.92045C13.9845 4.92045 13.9846 4.92045 13.9848 4.92045C13.9849 4.92045 13.9851 4.92045 13.9852 4.92045C13.9853 4.92045 13.9854 4.92045 13.9856 4.92045C13.9857 4.92045 13.9859 4.92045 13.986 4.92045C13.9861 4.92045 13.9863 4.92045 13.9864 4.92045C13.9866 4.92045 13.9867 4.92045 13.9868 4.92045C13.987 4.92045 13.9871 4.92045 13.9873 4.92045C13.9874 4.92045 13.9876 4.92045 13.9877 4.92045C13.9879 4.92045 13.988 4.92045 13.9882 4.92045C13.9883 4.92045 13.9885 4.92045 13.9886 4.92045C13.9888 4.92045 13.989 4.92045 13.9891 4.92045C13.9893 4.92045 13.9894 4.92045 13.9896 4.92045C13.9898 4.92045 13.9899 4.92045 13.9901 4.92045C13.9903 4.92045 13.9904 4.92045 13.9906 4.92045C13.9908 4.92045 13.9909 4.92045 13.9911 4.92045C13.9913 4.92045 13.9915 4.92045 13.9916 4.92045C13.9918 4.92045 13.992 4.92045 13.9921 4.92045C13.9923 4.92045 13.9925 4.92045 13.9927 4.92045C13.9929 4.92045 13.993 4.92045 13.9932 4.92045C13.9934 4.92045 13.9936 4.92045 13.9938 4.92045C13.9939 4.92045 13.9941 4.92045 13.9943 4.92045C13.9945 4.92045 13.9947 4.92045 13.9949 4.92045C13.9951 4.92045 13.9953 4.92045 13.9954 4.92045C13.9956 4.92045 13.9959 4.92045 13.996 4.92045C13.9962 4.92045 13.9964 4.92045 13.9966 4.92045C13.9968 4.92045 13.997 4.92045 13.9972 4.92045C13.9974 4.92045 13.9976 4.92045 13.9978 4.92045C13.998 4.92045 13.9982 4.92045 13.9984 4.92045C13.9987 4.92045 13.9988 4.92045 13.9991 4.92045C13.9993 4.92045 13.9995 4.92045 13.9997 4.92045C13.9999 4.92045 14.0001 4.92045 14.0003 4.92045C14.0005 4.92045 14.0008 4.92045 14.001 4.92045C14.0012 4.92045 14.0014 4.92045 14.0016 4.92045C14.0018 4.92045 14.0021 4.92045 14.0023 4.92045C14.0025 4.92045 14.0027 4.92045 14.003 4.92045C14.0032 4.92045 14.0034 4.92045 14.0036 4.92045C14.0039 4.92045 14.0041 4.92045 14.0043 4.92045C14.0045 4.92045 14.0048 4.92045 14.005 4.92045C14.0052 4.92045 14.0055 4.92045 14.0057 4.92045C14.0059 4.92045 14.0062 4.92045 14.0064 4.92045C14.0066 4.92045 14.0069 4.92045 14.0071 4.92045C14.0074 4.92045 14.0076 4.92045 14.0078 4.92045C14.0081 4.92045 14.0083 4.92045 14.0086 4.92045C14.0088 4.92045 14.0091 4.92045 14.0093 4.92045C14.0096 4.92045 14.0098 4.92045 14.01 4.92045C14.0103 4.92045 14.0105 4.92045 14.0108 4.92045C14.011 4.92045 14.0113 4.92045 14.0116 4.92045C14.0118 4.92045 14.0121 4.92045 14.0123 4.92045C14.0126 4.92045 14.0128 4.92045 14.0131 4.92045C14.0133 4.92045 14.0136 4.92045 14.0139 4.92045C14.0141 4.92045 14.0144 4.92045 14.0146 4.92045C14.0149 4.92045 14.0152 4.92045 14.0154 4.92045C14.0157 4.92045 14.016 4.92045 14.0162 4.92045C14.0165 4.92045 14.0168 4.92045 14.017 4.92045C14.0173 4.92045 14.0176 4.92045 14.0179 4.92045C14.0181 4.92045 14.0184 4.92045 14.0187 4.92045C14.019 4.92045 14.0192 4.92045 14.0195 4.92045C14.0198 4.92045 14.02 4.92045 14.0203 4.92045C14.0206 4.92045 14.0209 4.92045 14.0212 4.92045C14.0214 4.92045 14.0217 4.92045 14.022 4.92045C14.0223 4.92045 14.0226 4.92045 14.0229 4.92045C14.0231 4.92045 14.0234 4.92045 14.0237 4.92045C14.024 4.92045 14.0243 4.92045 14.0246 4.92045C14.0249 4.92045 14.0252 4.92045 14.0255 4.92045C14.0258 4.92045 14.026 4.92045 14.0263 4.92045C14.0266 4.92045 14.0269 4.92045 14.0272 4.92045C14.0275 4.92045 14.0278 4.92045 14.0281 4.92045C14.0284 4.92045 14.0287 4.92045 14.029 4.92045C14.0293 4.92045 14.0296 4.92045 14.0299 4.92045C14.0302 4.92045 14.0305 4.92045 14.0308 4.92045C14.0311 4.92045 14.0314 4.92045 14.0317 4.92045C14.0321 4.92045 14.0324 4.92045 14.0327 4.92045C14.033 4.92045 14.0333 4.92045 14.0336 4.92045C14.0339 4.92045 14.0342 4.92045 14.0345 4.92045C14.0348 4.92045 14.0351 4.92045 14.0355 4.92045C14.0358 4.92045 14.0361 4.92045 14.0364 4.92045C14.0367 4.92045 14.0371 4.92045 14.0374 4.92045C14.0377 4.92045 14.038 4.92045 14.0383 4.92045C14.0386 4.92045 14.039 4.92045 14.0393 4.92045C14.0396 4.92045 14.0399 4.92045 14.0403 4.92045C14.0406 4.92045 14.0409 4.92045 14.0412 4.92045C14.0416 4.92045 14.0419 4.92045 14.0422 4.92045C14.0425 4.92045 14.0429 4.92045 14.0432 4.92045C14.0435 4.92045 14.0439 4.92045 14.0442 4.92045C14.0445 4.92045 14.0449 4.92045 14.0452 4.92045C14.0455 4.92045 14.0459 4.92045 14.0462 4.92045C14.0465 4.92045 14.0469 4.92045 14.0472 4.92045C14.0475 4.92045 14.0479 4.92045 14.0482 4.92045C14.0486 4.92045 14.0489 4.92045 14.0493 4.92045C14.0496 4.92045 14.0499 4.92045 14.0503 4.92045C14.0506 4.92045 14.051 4.92045 14.0513 4.92045C14.0517 4.92045 14.052 4.92045 14.0523 4.92045C14.0527 4.92045 14.053 4.92045 14.0534 4.92045C14.0537 4.92045 14.0541 4.92045 14.0544 4.92045C14.0548 4.92045 14.0551 4.92045 14.0555 4.92045C14.0558 4.92045 14.0562 4.92045 14.0566 4.92045C14.0569 4.92045 14.0573 4.92045 14.0576 4.92045C14.058 4.92045 14.0583 4.92045 14.0587 4.92045C14.059 4.92045 14.0594 4.92045 14.0598 4.92045C14.0601 4.92045 14.0605 4.92045 14.0608 4.92045C14.0612 4.92045 14.0616 4.92045 14.0619 4.92045C14.0623 4.92045 14.0627 4.92045 14.063 4.92045C14.0634 4.92045 14.0637 4.92045 14.0641 4.92045C14.0645 4.92045 14.0648 4.92045 14.0652 4.92045C14.0656 4.92045 14.0659 4.92045 14.0663 4.92045C14.0667 4.92045 14.067 4.92045 14.0674 4.92045C14.0678 4.92045 14.0682 4.92045 14.0685 4.92045C14.0689 4.92045 14.0693 4.92045 14.0696 4.92045C14.07 4.92045 14.0704 4.92045 14.0708 4.92045C14.0711 4.92045 14.0715 4.92045 14.0719 4.92045C14.0723 4.92045 14.0727 4.92045 14.073 4.92045C14.0734 4.92045 14.0738 4.92045 14.0742 4.92045C14.0745 4.92045 14.0749 4.92045 14.0753 4.92045C14.0757 4.92045 14.0761 4.92045 14.0765 4.92045C14.0769 4.92045 14.0772 4.92045 14.0776 4.92045C14.078 4.92045 14.0784 4.92045 14.0788 4.92045C14.0792 4.92045 14.0795 4.92045 14.0799 4.92045C14.0803 4.92045 14.0807 4.92045 14.0811 4.92045C14.0815 4.92045 14.0819 4.92045 14.0823 4.92045C14.0827 4.92045 14.083 4.92045 14.0834 4.92045C14.0838 4.92045 14.0842 4.92045 14.0846 4.92045C14.085 4.92045 14.0854 4.92045 14.0858 4.92045C14.0862 4.92045 14.0866 4.92045 14.087 4.92045C14.0874 4.92045 14.0878 4.92045 14.0882 4.92045C14.0886 4.92045 14.089 4.92045 14.0894 4.92045C14.0897 4.92045 14.0902 4.92045 14.0906 4.92045C14.091 4.92045 14.0914 4.92045 14.0917 4.92045C14.0921 4.92045 14.0926 4.92045 14.093 4.92045C14.0934 4.92045 14.0938 4.92045 14.0942 4.92045C14.0946 4.92045 14.095 4.92045 14.0954 4.92045C14.0958 4.92045 14.0962 4.92045 14.0966 4.92045C14.097 4.92045 14.0974 4.92045 14.0978 4.92045C14.0982 4.92045 14.0986 4.92045 14.099 4.92045C14.0995 4.92045 14.0999 4.92045 14.1003 4.92045C14.1007 4.92045 14.1011 4.92045 14.1015 4.92045C14.1019 4.92045 14.1023 4.92045 14.1027 4.92045C14.1031 4.92045 14.1036 4.92045 14.104 4.92045C14.1044 4.92045 14.1048 4.92045 14.1052 4.92045C14.1056 4.92045 14.106 4.92045 14.1065 4.92045C14.1069 4.92045 14.1073 4.92045 14.1077 4.92045C14.1081 4.92045 14.1085 4.92045 14.109 4.92045C14.1094 4.92045 14.1098 4.92045 14.1102 4.92045C14.1106 4.92045 14.1111 4.92045 14.1115 4.92045C14.1119 4.92045 14.1123 4.92045 14.1127 4.92045C14.1132 4.92045 14.1136 4.92045 14.114 4.92045C14.1144 4.92045 14.1149 4.92045 14.1153 4.92045C14.1157 4.92045 14.1161 4.92045 14.1166 4.92045C14.117 4.92045 14.1174 4.92045 14.1178 4.92045C14.1182 4.92045 14.1187 4.92045 14.1191 4.92045C14.1195 4.92045 14.12 4.92045 14.1204 4.92045C14.1208 4.92045 14.1212 4.92045 14.1217 4.92045C14.1221 4.92045 14.1225 4.92045 14.123 4.92045C14.1234 4.92045 14.1238 4.92045 14.1243 4.92045C14.1247 4.92045 14.1251 4.92045 14.1255 4.92045C14.126 4.92045 14.1264 4.92045 14.1268 4.92045C14.1273 4.92045 14.1277 4.92045 14.1281 4.92045C14.1286 4.92045 14.129 4.92045 14.1294 4.92045C14.1299 4.92045 14.1303 4.92045 14.1308 4.92045C14.1312 4.92045 14.1316 4.92045 14.1321 4.92045C14.1325 4.92045 14.1329 4.92045 14.1334 4.92045C14.1338 4.92045 14.1343 4.92045 14.1347 4.92045C14.1351 4.92045 14.1356 4.92045 14.136 4.92045C14.1364 4.92045 14.1369 4.92045 14.1373 4.92045C14.1377 4.92045 14.1382 4.92045 14.1386 4.92045C14.1391 4.92045 14.1395 4.92045 14.14 4.92045C14.1404 4.92045 14.1408 4.92045 14.1413 4.92045C14.1417 4.92045 14.1422 4.92045 14.1426 4.92045C14.1431 4.92045 14.1435 4.92045 14.1439 4.92045C14.1444 4.92045 14.1448 4.92045 14.1453 4.92045C14.1457 4.92045 14.1462 4.92045 14.1466 4.92045C14.1471 4.92045 14.1475 4.92045 14.148 4.92045C14.1484 4.92045 14.1488 4.92045 14.1493 4.92045C14.1497 4.92045 14.1502 4.92045 14.1506 4.92045C14.1511 4.92045 14.1515 4.92045 14.152 4.92045C14.1524 4.92045 14.1529 4.92045 14.1533 4.92045C14.1538 4.92045 14.1542 4.92045 14.1547 4.92045C14.1551 4.92045 14.1556 4.92045 14.156 4.92045C14.1565 4.92045 14.1569 4.92045 14.1574 4.92045C14.1578 4.92045 14.1583 4.92045 14.1587 4.92045C14.1592 4.92045 14.1596 4.92045 14.1601 4.92045C14.1605 4.92045 14.161 4.92045 14.1614 4.92045C14.1619 4.92045 14.1623 4.92045 14.1628 4.92045C14.1633 4.92045 14.1637 4.92045 14.1642 4.92045C14.1646 4.92045 14.1651 4.92045 14.1655 4.92045C14.166 4.92045 14.1664 4.92045 14.1669 4.92045C14.1673 4.92045 14.1678 4.92045 14.1682 4.92045C14.1687 4.92045 14.1692 4.92045 14.1696 4.92045C14.1701 4.92045 14.1705 4.92045 14.171 4.92045C14.1715 4.92045 14.1719 4.92045 14.1724 4.92045C14.1728 4.92045 14.1733 4.92045 14.1737 4.92045C14.1742 4.92045 14.1746 4.92045 14.1751 4.92045C14.1756 4.92045 14.176 4.92045 14.1765 4.92045C14.177 4.92045 14.1774 4.92045 14.1779 4.92045C14.1783 4.92045 14.1788 4.92045 14.1792 4.92045C14.1797 4.92045 14.1802 4.92045 14.1806 4.92045C14.1811 4.92045 14.1815 4.92045 14.182 4.92045C14.1825 4.92045 14.1829 4.92045 14.1834 4.92045C14.1839 4.92045 14.1843 4.92045 14.1848 4.92045C14.1852 4.92045 14.1857 4.92045 14.1862 4.92045C14.1866 4.92045 14.1871 4.92045 14.1875 4.92045C14.188 4.92045 14.1885 4.92045 14.1889 4.92045C14.1894 4.92045 14.1898 4.92045 14.1903 4.92045C14.1908 4.92045 14.1912 4.92045 14.1917 4.92045C14.1922 4.92045 14.1926 4.92045 14.1931 4.92045C14.1936 4.92045 14.194 4.92045 14.1945 4.92045C14.1949 4.92045 14.1954 4.92045 14.1959 4.92045C14.1963 4.92045 14.1968 4.92045 14.1973 4.92045C14.1977 4.92045 14.1982 4.92045 14.1987 4.92045C14.1991 4.92045 14.1996 4.92045 14.2001 4.92045C14.2005 4.92045 14.201 4.92045 14.2014 4.92045C14.2019 4.92045 14.2024 4.92045 14.2028 4.92045C14.2033 4.92045 14.2038 4.92045 14.2042 4.92045C14.2047 4.92045 14.2052 4.92045 14.2056 4.92045C14.2061 4.92045 14.2066 4.92045 14.207 4.92045C14.2075 4.92045 14.208 4.92045 14.2084 4.92045C14.2089 4.92045 14.2094 4.92045 14.2098 4.92045C14.2103 4.92045 14.2108 4.92045 14.2112 4.92045C14.2117 4.92045 14.2122 4.92045 14.2126 4.92045C14.2131 4.92045 14.2135 4.92045 14.214 4.92045C14.2145 4.92045 14.2149 4.92045 14.2154 4.92045C14.2159 4.92045 14.2163 4.92045 14.2168 4.92045C14.2173 4.92045 14.2178 4.92045 14.2182 4.92045C14.2187 4.92045 14.2192 4.92045 14.2196 4.92045C14.2201 4.92045 14.2205 4.92045 14.221 4.92045C14.2215 4.92045 14.2219 4.92045 14.2224 4.92045C14.2229 4.92045 14.2233 4.92045 14.2238 4.92045C14.2243 4.92045 14.2247 4.92045 14.2252 4.92045C14.2257 4.92045 14.2261 4.92045 14.2266 4.92045C14.2271 4.92045 14.2276 4.92045 14.228 4.92045C14.2285 4.92045 14.229 4.92045 14.2294 4.92045C14.2299 4.92045 14.2303 4.92045 14.2308 4.92045C14.2313 4.92045 14.2317 4.92045 14.2322 4.92045C14.2327 4.92045 14.2331 4.92045 14.2336 4.92045C14.2341 4.92045 14.2345 4.92045 14.235 4.92045C14.2355 4.92045 14.2359 4.92045 14.2364 4.92045C14.2369 4.92045 14.2373 4.92045 14.2378 4.92045C14.2383 4.92045 14.2387 4.92045 14.2392 4.92045C14.2397 4.92045 14.2401 4.92045 14.2406 4.92045C14.2411 4.92045 14.2415 4.92045 14.242 4.92045C14.2425 4.92045 14.2429 4.92045 14.2434 4.92045C14.2439 4.92045 14.2443 4.92045 14.2448 4.92045C14.2453 4.92045 14.2457 4.92045 14.2462 4.92045C14.2467 4.92045 14.2471 4.92045 14.2476 4.92045C14.2481 4.92045 14.2485 4.92045 14.249 4.92045C14.2494 4.92045 14.2499 4.92045 14.2504 4.92045C14.2508 4.92045 14.2513 4.92045 14.2518 4.92045C14.2522 4.92045 14.2527 4.92045 14.2531 4.92045C14.2536 4.92045 14.2541 4.92045 14.2546 4.92045C14.255 4.92045 14.2555 4.92045 14.2559 4.92045C14.2564 4.92045 14.2569 4.92045 14.2573 4.92045C14.2578 4.92045 14.2583 4.92045 14.2587 4.92045C14.2592 4.92045 14.2596 4.92045 14.2601 4.92045C14.2606 4.92045 14.261 4.92045 14.2615 4.92045C14.262 4.92045 14.2624 4.92045 14.2629 4.92045C14.2633 4.92045 14.2638 4.92045 14.2643 4.92045C14.2647 4.92045 14.2652 4.92045 14.2656 4.92045C14.2661 4.92045 14.2666 4.92045 14.267 4.92045C14.2675 4.92045 14.2679 4.92045 14.2684 4.92045C14.2689 4.92045 14.2693 4.92045 14.2698 4.92045C14.2703 4.92045 14.2707 4.92045 14.2712 4.92045C14.2716 4.92045 14.2721 4.92045 14.2725 4.92045C14.273 4.92045 14.2735 4.92045 14.2739 4.92045C14.2744 4.92045 14.2748 4.92045 14.2753 4.92045C14.2757 4.92045 14.2762 4.92045 14.2767 4.92045C14.2771 4.92045 14.2776 4.92045 14.278 4.92045C14.2785 4.92045 14.279 4.92045 14.2794 4.92045C14.2799 4.92045 14.2803 4.92045 14.2808 4.92045C14.2812 4.92045 14.2817 4.92045 14.2821 4.92045C14.2826 4.92045 14.2831 4.92045 14.2835 4.92045C14.284 4.92045 14.2844 4.92045 14.2849 4.92045C14.2853 4.92045 14.2858 4.92045 14.2862 4.92045C14.2867 4.92045 14.2871 4.92045 14.2876 4.92045C14.288 4.92045 14.2885 4.92045 14.289 4.92045C14.2894 4.92045 14.2899 4.92045 14.2903 4.92045C14.2908 4.92045 14.2912 4.92045 14.2917 4.92045C14.2921 4.92045 14.2926 4.92045 14.293 4.92045C14.2935 4.92045 14.2939 4.92045 14.2944 4.92045C14.2948 4.92045 14.2953 4.92045 14.2957 4.92045C14.2962 4.92045 14.2966 4.92045 14.2971 4.92045C14.2975 4.92045 14.298 4.92045 14.2984 4.92045C14.2988 4.92045 14.2993 4.92045 14.2998 4.92045C14.3002 4.92045 14.3006 4.92045 14.3011 4.92045C14.3015 4.92045 14.302 4.92045 14.3024 4.92045C14.3029 4.92045 14.3033 4.92045 14.3038 4.92045C14.3042 4.92045 14.3047 4.92045 14.3051 4.92045C14.3055 4.92045 14.306 4.92045 14.3064 4.92045C14.3069 4.92045 14.3073 4.92045 14.3078 4.92045C14.3082 4.92045 14.3086 4.92045 14.3091 4.92045C14.3095 4.92045 14.31 4.92045 14.3104 4.92045C14.3109 4.92045 14.3113 4.92045 14.3117 4.92045C14.3122 4.92045 14.3126 4.92045 14.313 4.92045C14.3135 4.92045 14.3139 4.92045 14.3144 4.92045C14.3148 4.92045 14.3152 4.92045 14.3157 4.92045C14.3161 4.92045 14.3165 4.92045 14.317 4.92045C14.3174 4.92045 14.3179 4.92045 14.3183 4.92045C14.3187 4.92045 14.3192 4.92045 14.3196 4.92045C14.32 4.92045 14.3205 4.92045 14.3209 4.92045C14.3214 4.92045 14.3218 4.92045 14.3222 4.92045C14.3226 4.92045 14.3231 4.92045 14.3235 4.92045C14.3239 4.92045 14.3244 4.92045 14.3248 4.92045C14.3252 4.92045 14.3257 4.92045 14.3261 4.92045C14.3265 4.92045 14.3269 4.92045 14.3274 4.92045C14.3278 4.92045 14.3282 4.92045 14.3287 4.92045C14.3291 4.92045 14.3295 4.92045 14.3299 4.92045C14.3304 4.92045 14.3308 4.92045 14.3312 4.92045C14.3317 4.92045 14.3321 4.92045 14.3325 4.92045C14.3329 4.92045 14.3334 4.92045 14.3338 4.92045C14.3342 4.92045 14.3346 4.92045 14.3351 4.92045C14.3355 4.92045 14.3359 4.92045 14.3363 4.92045C14.3367 4.92045 14.3372 4.92045 14.3376 4.92045C14.338 4.92045 14.3384 4.92045 14.3388 4.92045C14.3393 4.92045 14.3397 4.92045 14.3401 4.92045C14.3405 4.92045 14.3409 4.92045 14.3414 4.92045C14.3418 4.92045 14.3422 4.92045 14.3426 4.92045C14.343 4.92045 14.3434 4.92045 14.3439 4.92045C14.3443 4.92045 14.3447 4.92045 14.3451 4.92045C14.3455 4.92045 14.3459 4.92045 14.3463 4.92045C14.3467 4.92045 14.3472 4.92045 14.3476 4.92045C14.348 4.92045 14.3484 4.92045 14.3488 4.92045C14.3492 4.92045 14.3496 4.92045 14.35 4.92045C14.3504 4.92045 14.3508 4.92045 14.3513 4.92045C14.3517 4.92045 14.3521 4.92045 14.3525 4.92045C14.3529 4.92045 14.3533 4.92045 14.3537 4.92045C14.3541 4.92045 14.3545 4.92045 14.3549 4.92045C14.3553 4.92045 14.3557 4.92045 14.3561 4.92045C14.3565 4.92045 14.3569 4.92045 14.3573 4.92045C14.3577 4.92045 14.3581 4.92045 14.3585 4.92045C14.3589 4.92045 14.3593 4.92045 14.3597 4.92045C14.3601 4.92045 14.3605 4.92045 14.3609 4.92045C14.3613 4.92045 14.3617 4.92045 14.3621 4.92045C14.3625 4.92045 14.3629 4.92045 14.3633 4.92045C14.3637 4.92045 14.3641 4.92045 14.3645 4.92045C14.3649 4.92045 14.3653 4.92045 14.3656 4.92045C14.366 4.92045 14.3664 4.92045 14.3668 4.92045C14.3672 4.92045 14.3676 4.92045 14.368 4.92045C14.3684 4.92045 14.3688 4.92045 14.3692 4.92045C14.3695 4.92045 14.3699 4.92045 14.3703 4.92045C14.3707 4.92045 14.3711 4.92045 14.3715 4.92045C14.3719 4.92045 14.3722 4.92045 14.3726 4.92045C14.373 4.92045 14.3734 4.92045 14.3738 4.92045C14.3742 4.92045 14.3745 4.92045 14.3749 4.92045C14.3753 4.92045 14.3757 4.92045 14.3761 4.92045C14.3764 4.92045 14.3768 4.92045 14.3772 4.92045C14.3776 4.92045 14.3779 4.92045 14.3783 4.92045C14.3787 4.92045 14.3791 4.92045 14.3794 4.92045C14.3798 4.92045 14.3802 4.92045 14.3806 4.92045C14.3809 4.92045 14.3813 4.92045 14.3817 4.92045C14.3821 4.92045 14.3824 4.92045 14.3828 4.92045C14.3832 4.92045 14.3835 4.92045 14.3839 4.92045C14.3843 4.92045 14.3846 4.92045 14.385 4.92045C14.3854 4.92045 14.3857 4.92045 14.3861 4.92045C14.3865 4.92045 14.3868 4.92045 14.3872 4.92045C14.3875 4.92045 14.3879 4.92045 14.3883 4.92045C14.3886 4.92045 14.389 4.92045 14.3893 4.92045C14.3897 4.92045 14.3901 4.92045 14.3904 4.92045C14.3908 4.92045 14.3911 4.92045 14.3915 4.92045C14.3918 4.92045 14.3922 4.92045 14.3925 4.92045C14.3929 4.92045 14.3933 4.92045 14.3936 4.92045C14.394 4.92045 14.3943 4.92045 14.3947 4.92045C14.395 4.92045 14.3954 4.92045 14.3957 4.92045C14.3961 4.92045 14.3964 4.92045 14.3968 4.92045C14.3971 4.92045 14.3975 4.92045 14.3978 4.92045C14.3981 4.92045 14.3985 4.92045 14.3988 4.92045C14.3992 4.92045 14.3995 4.92045 14.3999 4.92045C14.4002 4.92045 14.4005 4.92045 14.4009 4.92045C14.4012 4.92045 14.4016 4.92045 14.4019 4.92045C14.4023 4.92045 14.4026 4.92045 14.4029 4.92045C14.4033 4.92045 14.4036 4.92045 14.4039 4.92045C14.4043 4.92045 14.4046 4.92045 14.4049 4.92045C14.4053 4.92045 14.4056 4.92045 14.4059 4.92045C14.4063 4.92045 14.4066 4.92045 14.4069 4.92045C14.4072 4.92045 14.4076 4.92045 14.4079 4.92045C14.4082 4.92045 14.4085 4.92045 14.4089 4.92045C14.4092 4.92045 14.4095 4.92045 14.4098 4.92045C14.4102 4.92045 14.4105 4.92045 14.4108 4.92045C14.4111 4.92045 14.4115 4.92045 14.4118 4.92045C14.4121 4.92045 14.4124 4.92045 14.4127 4.92045C14.413 4.92045 14.4134 4.92045 14.4137 4.92045C14.414 4.92045 14.4143 4.92045 14.4146 4.92045C14.4149 4.92045 14.4152 4.92045 14.4156 4.92045C14.4159 4.92045 14.4162 4.92045 14.4165 4.92045C14.4168 4.92045 14.4171 4.92045 14.4174 4.92045C14.4177 4.92045 14.418 4.92045 14.4183 4.92045C14.4186 4.92045 14.4189 4.92045 14.4192 4.92045C14.4195 4.92045 14.4198 4.92045 14.4201 4.92045C14.4204 4.92045 14.4207 4.92045 14.421 4.92045C14.4213 4.92045 14.4216 4.92045 14.4219 4.92045C14.4222 4.92045 14.4225 4.92045 14.4228 4.92045C14.4231 4.92045 14.4234 4.92045 14.4237 4.92045C14.424 4.92045 14.4243 4.92045 14.4246 4.92045C14.4249 4.92045 14.4252 4.92045 14.4255 4.92045C14.4257 4.92045 14.426 4.92045 14.4263 4.92045C14.4266 4.92045 14.4269 4.92045 14.4272 4.92045C14.4274 4.92045 14.4277 4.92045 14.428 4.92045C14.4283 4.92045 14.4286 4.92045 14.4289 4.92045C14.4291 4.92045 14.4294 4.92045 14.4297 4.92045C14.43 4.92045 14.4302 4.92045 14.4305 4.92045C14.4308 4.92045 14.4311 4.92045 14.4313 4.92045C14.4316 4.92045 14.4319 4.92045 14.4321 4.92045C14.4324 4.92045 14.4327 4.92045 14.4329 4.92045C14.4332 4.92045 14.4335 4.92045 14.4338 4.92045C14.434 4.92045 14.4343 4.92045 14.4345 4.92045C14.4348 4.92045 14.4351 4.92045 14.4353 4.92045C14.4356 4.92045 14.4358 4.92045 14.4361 4.92045C14.4364 4.92045 14.4366 4.92045 14.4369 4.92045C14.4371 4.92045 14.4374 4.92045 14.4377 4.92045C14.4379 4.92045 14.4382 4.92045 14.4384 4.92045C14.4387 4.92045 14.4389 4.92045 14.4392 4.92045C14.4394 4.92045 14.4397 4.92045 14.4399 4.92045C14.4402 4.92045 14.4404 4.92045 14.4406 4.92045C14.4409 4.92045 14.4411 4.92045 14.4414 4.92045C14.4416 4.92045 14.4418 4.92045 14.4421 4.92045C14.4423 4.92045 14.4426 4.92045 14.4428 4.92045C14.443 4.92045 14.4433 4.92045 14.4435 4.92045C14.4437 4.92045 14.444 4.92045 14.4442 4.92045C14.4444 4.92045 14.4447 4.92045 14.4449 4.92045C14.4451 4.92045 14.4454 4.92045 14.4456 4.92045C14.4458 4.92045 14.446 4.92045 14.4463 4.92045C14.4465 4.92045 14.4467 4.92045 14.4469 4.92045C14.4471 4.92045 14.4474 4.92045 14.4476 4.92045C14.4478 4.92045 14.448 4.92045 14.4482 4.92045C14.4485 4.92045 14.4487 4.92045 14.4489 4.92045C14.4491 4.92045 14.4493 4.92045 14.4495 4.92045C14.4497 4.92045 14.45 4.92045 14.4502 4.92045C14.4504 4.92045 14.4506 4.92045 14.4508 4.92045C14.451 4.92045 14.4512 4.92045 14.4514 4.92045C14.4516 4.92045 14.4518 4.92045 14.452 4.92045C14.4522 4.92045 14.4524 4.92045 14.4526 4.92045C14.4528 4.92045 14.453 4.92045 14.4532 4.92045C14.4534 4.92045 14.4536 4.92045 14.4538 4.92045C14.454 4.92045 14.4542 4.92045 14.4544 4.92045C14.4545 4.92045 14.4547 4.92045 14.4549 4.92045C14.4551 4.92045 14.4553 4.92045 14.4555 4.92045C14.4557 4.92045 14.4559 4.92045 14.456 4.92045C14.4562 4.92045 14.4564 4.92045 14.4566 4.92045C14.4568 4.92045 14.4569 4.92045 14.4571 4.92045C14.4573 4.92045 14.4575 4.92045 14.4576 4.92045C14.4578 4.92045 14.458 4.92045 14.4582 4.92045C14.4583 4.92045 14.4585 4.92045 14.4587 4.92045C14.4588 4.92045 14.459 4.92045 14.4592 4.92045C14.4593 4.92045 14.4595 4.92045 14.4597 4.92045C14.4598 4.92045 14.46 4.92045 14.4601 4.92045C14.4603 4.92045 14.4605 4.92045 14.4606 4.92045C14.4608 4.92045 14.4609 4.92045 14.4611 4.92045C14.4612 4.92045 14.4614 4.92045 14.4615 4.92045C14.4617 4.92045 14.4618 4.92045 14.462 4.92045C14.4621 4.92045 14.4623 4.92045 14.4624 4.92045C14.4626 4.92045 14.4627 4.92045 14.4629 4.92045C14.463 4.92045 14.4632 4.92045 14.4633 4.92045C14.4634 4.92045 14.4636 4.92045 14.4637 4.92045C14.4638 4.92045 14.464 4.92045 14.4641 4.92045C14.4642 4.92045 14.4644 4.92045 14.4645 4.92045C14.4646 4.92045 14.4648 4.92045 14.4649 4.92045C14.465 4.92045 14.4652 4.92045 14.4653 4.92045C14.4654 4.92045 14.4655 4.92045 14.4657 4.92045C14.4658 4.92045 14.4659 4.92045 14.466 4.92045C14.4661 4.92045 14.4662 4.92045 14.4664 4.92045C14.4663 4.92045 14.4665 4.92045 14.4664 4.92045C14.4665 4.92045 14.4669 4.92045 14.467 4.92045C14.4669 4.92045 14.4671 4.92045 14.467 4.92045C14.4671 4.92045 14.4676 4.92045 14.4677 4.92045C14.4676 4.92045 14.4678 4.92045 14.4677 4.92045C14.4678 4.92045 14.4682 4.92045 14.4683 4.92045C14.4682 4.92045 14.4684 4.92045 14.4683 4.92045C14.4683 4.92045 14.4687 4.92045 14.4688 4.92045C14.4687 4.92045 14.4689 4.92045 14.4688 4.92045C14.4689 4.92045 14.4693 4.92045 14.4694 4.92045C14.4693 4.92045 14.4694 4.92045 14.4694 4.92045C14.4695 4.92045 14.4698 4.92045 14.4698 4.92045C14.4698 4.92045 14.4699 4.92045 14.4698 4.92045C14.4699 4.92045 14.4702 4.92045 14.4703 4.92045L14.4707 16.6753ZM13.9768 10.7979C20.3778 11.0235 20.3778 11.0237 20.3778 11.024C20.3778 11.024 20.3778 11.0243 20.3778 11.0245C20.3778 11.0248 20.3778 11.0251 20.3776 11.0254C20.3776 11.0261 20.3776 11.0268 20.3776 11.0274C20.3776 11.0288 20.3774 11.0301 20.3774 11.0315C20.3772 11.0343 20.3772 11.0372 20.377 11.0402C20.3768 11.0461 20.3764 11.0524 20.3762 11.0591C20.3755 11.0725 20.3747 11.0877 20.3737 11.1045C20.372 11.137 20.3693 11.1806 20.3653 11.2318C20.3611 11.2889 20.3434 11.5257 20.2913 11.8166L7.64978 9.9083C7.60225 10.1733 7.58782 10.3776 7.58542 10.4089C7.58248 10.4473 7.58048 10.4797 7.57912 10.5042C7.57842 10.517 7.57778 10.529 7.57725 10.5401C7.57698 10.5457 7.57675 10.5512 7.57648 10.5566C7.57638 10.5592 7.57625 10.5619 7.57615 10.5645C7.57608 10.5658 7.57601 10.5671 7.57595 10.5684C7.57595 10.5691 7.57592 10.5697 7.57588 10.5704C7.57588 10.5707 7.57585 10.571 7.57585 10.5714C7.57582 10.5715 7.57582 10.5718 7.57582 10.5718C7.57582 10.5721 7.57578 10.5724 13.9768 10.7979ZM20.2913 11.8166C20.2225 12.1996 20.1068 12.6261 19.9187 13.0759L7.95825 8.86308C7.80442 9.23075 7.70788 9.58409 7.64978 9.9083L20.2913 11.8166ZM19.9187 13.0759C19.5282 14.0092 18.875 14.9205 17.9296 15.6738L9.52985 6.79803C8.80458 7.37589 8.27875 8.09704 7.95825 8.86308L19.9187 13.0759ZM17.9296 15.6738C16.0783 17.1488 13.9198 17.4132 12.495 17.4132V5.6583C12.3578 5.6583 10.9476 5.66848 9.52985 6.79803L17.9296 15.6738ZM12.495 17.4132H11.453V5.6583H12.495V17.4132ZM17.6952 12.855L17.3248 14.3307L4.84028 11.6923L5.21072 10.2165L17.6952 12.855ZM11.0825 7.13403H11.2601V18.8889H11.0825V7.13403ZM11.2601 7.13403C15.6912 7.13403 18.4067 10.5586 18.4067 13.7493H5.59535C5.59535 16.1252 7.64748 18.8889 11.2601 18.8889V7.13403ZM18.4067 13.7493V14.2412H5.59535V13.7493H18.4067ZM18.4067 14.2412C18.4067 17.4321 15.6912 20.8565 11.2601 20.8565V9.10166C7.64748 9.10166 5.59535 11.8655 5.59535 14.2412H18.4067ZM11.2601 20.8565H9.53138V9.10166H11.2601V20.8565ZM9.53138 20.8565C5.10032 20.8565 2.38477 17.4321 2.38477 14.2412H15.1962C15.1962 11.8655 13.1441 9.10166 9.53138 9.10166V20.8565ZM2.38477 14.2412V13.6112H15.1962V14.2412H2.38477ZM2.38477 13.6112C2.38477 10.6427 4.74152 7.52124 8.71378 7.16442L9.96208 18.8635C13.3204 18.5618 15.1962 15.954 15.1962 13.6112H2.38477ZM3.09567 11.6947L3.46672 10.2165L15.9512 12.855L15.5802 14.3332L3.09567 11.6947ZM9.70898 17.4132H9.53138V5.6583H9.70898V17.4132ZM9.53138 17.4132C5.10022 17.4132 2.38477 13.9886 2.38477 10.7979H15.1962C15.1962 8.42222 13.1441 5.6583 9.53138 5.6583V17.4132ZM2.38477 10.7979V10.306H15.1962V10.7979H2.38477ZM2.38477 10.306C2.38477 7.11527 5.10022 3.69067 9.53138 3.69067V15.4456C13.1441 15.4456 15.1962 12.6817 15.1962 10.306H2.38477ZM9.53138 3.69067H12.495V15.4456H9.53138V3.69067ZM12.495 3.69067C13.9198 3.69067 16.0783 3.95515 17.9296 5.4301L9.52988 14.3059C10.9477 15.4354 12.3578 15.4456 12.495 15.4456V3.69067ZM17.9296 5.4301C18.875 6.18333 19.5282 7.09489 19.9187 8.02822L7.95832 12.241C8.27878 13.007 8.80462 13.728 9.52988 14.3059L17.9296 5.4301ZM19.9187 8.02822C20.1068 8.4779 20.2225 8.90456 20.2913 9.28764L7.64978 11.1956C7.70788 11.5198 7.80448 11.8734 7.95832 12.241L19.9187 8.02822ZM20.2913 9.28727C20.3603 9.67252 20.3734 9.9831 20.3772 10.0666L7.57642 10.5454C7.57818 10.5856 7.58842 10.8536 7.64985 11.196L20.2913 9.28727ZM13.9768 4.42856H14.4707V16.1834H13.9768V4.42856ZM14.4707 4.42856C18.629 4.42856 21.1234 7.63286 21.1234 10.552H8.31198C8.31198 13.1994 10.5852 16.1834 14.4707 16.1834V4.42856ZM21.1234 10.552C21.1234 13.4711 18.629 16.6753 14.4707 16.6753L14.4703 4.92045C10.5848 4.92045 8.31198 7.90453 8.31198 10.552H21.1234ZM19.4759 12.855L19.4755 12.8557L7.48955 8.70461L7.48988 8.70387L19.4759 12.855ZM19.4625 12.8871C19.1035 13.745 18.5006 14.5891 17.621 15.2898L9.22138 6.41386C8.85375 6.70676 8.50462 7.05656 8.19728 7.46462C7.88075 7.88493 7.65858 8.30047 7.50258 8.67324L19.4625 12.8871ZM17.621 15.2898C16.1509 16.4609 14.458 16.8152 13.2033 16.8984L12.2806 5.17394C11.8554 5.20213 10.5356 5.36682 9.22138 6.41386L17.621 15.2898ZM6.33625 11.0362V10.0678H19.1477V11.0362H6.33625ZM13.2033 4.20556C14.458 4.28871 16.1509 4.64297 17.621 5.81417L9.22138 14.6901C10.5356 15.7371 11.8554 15.9018 12.2806 15.93L13.2033 4.20556ZM17.621 5.81417C18.5006 6.51497 19.1035 7.35892 19.4625 8.21684L7.50258 12.4307C7.65858 12.8035 7.88075 13.219 8.19728 13.6393C8.50462 14.0474 8.85375 14.3972 9.22138 14.6901L17.621 5.81417ZM19.4755 8.24817L19.4759 8.24888L7.48988 12.4L7.48955 12.3993L19.4755 8.24817ZM19.8885 10.3245V10.7795H7.07715V10.3245H19.8885ZM18.6537 10.0601V11.0439H5.84232V10.0601H18.6537ZM12.248 16.9213H11.453V5.1664H12.248V16.9213ZM11.453 16.9213C14.54 16.9213 16.6782 14.8781 17.216 12.7358L4.73152 10.0973C5.37928 7.51698 7.91262 5.1664 11.453 5.1664V16.9213ZM17.216 12.7358L16.8456 14.2114L4.36108 11.5729L4.73152 10.0973L17.216 12.7358ZM16.8456 14.2114C17.5396 11.447 15.5331 7.62593 11.0825 7.62593V19.3808C5.98918 19.3808 3.51118 14.9582 4.36108 11.5729L16.8456 14.2114ZM11.0825 7.62593H11.2601V19.3808H11.0825V7.62593ZM11.2601 7.62593C15.4184 7.62593 17.9128 10.8302 17.9128 13.7493H5.10142C5.10142 16.3967 7.37465 19.3808 11.2601 19.3808V7.62593ZM17.9128 13.7493V14.2412H5.10142V13.7493H17.9128ZM17.9128 14.2412C17.9128 17.1604 15.4184 20.3647 11.2601 20.3647V8.60976C7.37465 8.60976 5.10142 11.5938 5.10142 14.2412H17.9128ZM11.2601 20.3647H9.53138V8.60976H11.2601V20.3647ZM9.53138 20.3647C5.37308 20.3647 2.8787 17.1604 2.8787 14.2412H15.6901C15.6901 11.5938 13.4168 8.60976 9.53138 8.60976V20.3647ZM2.8787 14.2412V13.6112H15.6901V14.2412H2.8787ZM2.8787 13.6112C2.8787 10.7684 5.31102 7.62593 9.39268 7.62593V19.3808C13.3547 19.3808 15.6901 16.335 15.6901 13.6112H2.8787ZM9.39268 7.62593C6.27428 7.62593 4.10788 9.69034 3.56228 11.8641L16.0469 14.5021C15.4068 17.0523 12.9007 19.3808 9.39268 19.3808V7.62593ZM3.56228 11.8641L3.94592 10.3358L16.4304 12.9743L16.0469 14.5021L3.56228 11.8641ZM3.94592 10.3358C3.2519 13.1003 5.25845 16.9213 9.70898 16.9213V5.1664C14.8022 5.1664 17.2803 9.58893 16.4304 12.9743L3.94592 10.3358ZM9.70898 16.9213H9.53138V5.1664H9.70898V16.9213ZM9.53138 16.9213C5.37302 16.9213 2.8787 13.717 2.8787 10.7979H15.6901C15.6901 8.15055 13.4169 5.1664 9.53138 5.1664V16.9213ZM2.8787 10.7979V10.306H15.6901V10.7979H2.8787ZM2.8787 10.306C2.8787 7.38698 5.37302 4.18257 9.53138 4.18257V15.9376C13.4169 15.9376 15.6901 12.9534 15.6901 10.306H2.8787ZM9.53138 4.18257H12.248V15.9376H9.53138V4.18257Z" fill="#2B2B2B"/>
</g>
</g>
<defs>
<clipPath id="clip0_517_826">
<rect width="15" height="24" fill="white"/>
</clipPath>
</defs>
</svg>
