<svg width="146" height="220" viewBox="0 0 146 220" fill="none" xmlns="http://www.w3.org/2000/svg">
<path d="M91.5215 58.0638L80.9547 57.8956C80.3781 54.8463 79.327 52.1588 77.8013 49.8331C76.304 47.5078 74.46 45.5464 72.2693 43.9488C70.1074 42.3233 67.6977 41.0916 65.0402 40.2538C62.3828 39.4159 59.6054 38.9739 56.708 38.9278C51.4246 38.8437 46.617 40.1026 42.2853 42.7045C37.9819 45.3068 34.5249 49.1869 31.9141 54.3449C29.3316 59.5033 27.9803 65.8604 27.8601 73.4163C27.7398 80.9722 28.8881 87.3691 31.3051 92.6071C33.7505 97.8455 37.0823 101.834 41.3006 104.572C45.5474 107.31 50.3124 108.721 55.5959 108.805C58.4932 108.851 61.2833 108.498 63.9661 107.745C66.6488 106.992 69.0963 105.852 71.3084 104.325C73.5493 102.769 75.455 100.853 77.0256 98.5769C78.6249 96.2725 79.761 93.6198 80.4339 90.6187L91.0007 90.7869C90.1344 95.2339 88.6222 99.2018 86.4641 102.691C84.3061 106.179 81.6451 109.135 78.4811 111.556C75.3176 113.949 71.7799 115.754 67.868 116.97C63.9846 118.187 59.8414 118.761 55.4385 118.69C47.9963 118.572 41.4067 116.649 35.6699 112.921C29.933 109.192 25.4562 103.95 22.2395 97.1935C19.0227 90.4369 17.4876 82.4569 17.6341 73.2536C17.7806 64.0502 19.5689 56.1231 22.999 49.4723C26.4291 42.8215 31.0705 37.7242 36.9231 34.1806C42.7757 30.6369 49.4231 28.9243 56.8653 29.0427C61.2682 29.1128 65.391 29.8177 69.2338 31.1574C73.105 32.4976 76.5832 34.4282 79.6685 36.9492C82.7542 39.4418 85.3201 42.466 87.366 46.0217C89.4124 49.549 90.7976 53.5631 91.5215 58.0638Z" fill="black"/>
<path d="M82.3899 170.661L74.5917 170.71L74.2693 119.191L73.6301 119.195L38.1578 170.938L30.4875 170.986L30.0779 105.533L38.0038 105.483L38.3255 156.874L38.9646 156.87L74.3099 105.256L81.9803 105.208L82.3899 170.661Z" fill="black"/>
<path d="M116.193 208.516L28.9209 208.771L28.8348 179.282C28.8149 172.436 30.0343 166.836 32.4932 162.482C34.9236 158.1 38.2238 154.851 42.3938 152.737C46.5638 150.623 51.2198 149.558 56.3618 149.543C61.5038 149.528 66.1802 150.565 70.3908 152.655C74.6014 154.717 77.963 157.917 80.4757 162.257C82.96 166.596 84.212 172.16 84.2318 178.95L84.2935 200.086L74.9186 200.114L74.8579 179.318C74.8442 174.631 74.0235 170.869 72.3959 168.033C70.7683 165.197 68.5748 163.144 65.8154 161.873C63.0275 160.575 59.8864 159.93 56.3921 159.94C52.8978 159.951 49.7748 160.613 47.0229 161.928C44.271 163.215 42.1179 165.295 40.5638 168.169C38.9813 171.042 38.1969 174.852 38.2108 179.596L38.265 198.175L116.162 197.948L116.193 208.516Z" fill="black"/>
<mask id="path-4-inside-1_47_9" fill="white">
<path fill-rule="evenodd" clip-rule="evenodd" d="M140.875 117.364C140.588 117.364 136.625 117.364 136.625 117.364C136.625 117.364 136.611 117.719 136.571 117.958C136.526 118.231 136.443 118.569 136.296 118.948C135.994 119.721 135.446 120.601 134.499 121.411C132.634 123.007 129.415 124.182 123.875 124.182H114.909L111.722 137.818H113.25C116.771 137.818 119.625 140.871 119.625 144.636V149.182C119.625 152.947 116.771 156 113.25 156H98.375C94.8541 156 92 152.947 92 149.182V143.36C92 140.469 94.0695 138.095 96.7105 137.841L99.9033 124.182H98.375C94.8541 124.182 92 121.129 92 117.364V112.818C92 109.053 94.8541 106 98.375 106H123.875C129.415 106 132.634 107.175 134.499 108.771C135.446 109.581 135.994 110.461 136.296 111.234C136.443 111.613 136.526 111.951 136.571 112.223C136.604 112.421 136.617 112.618 136.625 112.818H140.875C142.049 112.818 143 113.836 143 115.091C143 116.346 142.049 117.364 140.875 117.364ZM132.375 117.193L132.372 117.2C132.342 117.279 132.225 117.536 131.844 117.862C131.174 118.435 129.569 119.311 126 119.565V110.617C129.569 110.871 131.174 111.746 131.844 112.32C132.225 112.646 132.342 112.903 132.372 112.982L132.375 112.989V117.193ZM121.75 110.545V119.636H114.909C112.959 119.636 111.259 121.056 110.786 123.079L107.599 136.716C106.928 139.585 108.957 142.364 111.722 142.364H113.25C114.424 142.364 115.375 143.381 115.375 144.636V149.182C115.375 150.437 114.424 151.455 113.25 151.455H98.375C97.2014 151.455 96.25 150.437 96.25 149.182V143.36C96.25 142.81 96.6671 142.364 97.1816 142.364C98.858 142.364 100.319 141.143 100.726 139.404L104.026 125.284C104.697 122.415 102.668 119.636 99.9033 119.636H98.375C97.2014 119.636 96.25 118.619 96.25 117.364V112.818C96.25 111.563 97.2014 110.545 98.375 110.545H121.75Z"/>
</mask>
<path d="M136.625 117.364L103.317 116.065L104.566 84.0303H136.625V117.364ZM136.571 117.958L103.693 112.47L103.693 112.468L136.571 117.958ZM136.296 118.948L105.236 106.848L105.236 106.847L136.296 118.948ZM134.499 121.411L156.17 146.739L156.17 146.739L134.499 121.411ZM114.909 124.182L82.4508 116.595L88.469 90.8485H114.909V124.182ZM111.722 137.818V171.152H69.6982L79.2633 130.231L111.722 137.818ZM96.7105 137.841L129.169 145.428L123.724 168.723L99.9113 171.02L96.7105 137.841ZM99.9033 124.182V90.8485H141.927L132.362 131.769L99.9033 124.182ZM134.499 108.771L156.17 83.4431L156.17 83.4432L134.499 108.771ZM136.296 111.234L105.236 123.334L105.236 123.334L136.296 111.234ZM136.571 112.223L103.693 117.714L103.693 117.712L136.571 112.223ZM136.625 112.818V146.152H104.642L103.32 114.196L136.625 112.818ZM132.375 117.193H165.708V123.359L163.503 129.116L132.375 117.193ZM132.372 117.2L163.5 129.123L163.466 129.213L163.431 129.303L132.372 117.2ZM131.844 117.862L110.174 92.5337L110.174 92.5337L131.844 117.862ZM126 119.565L128.366 152.814L92.6667 155.354V119.565H126ZM126 110.617H92.6667V74.8274L128.366 77.3675L126 110.617ZM131.844 112.32L110.174 137.648L110.174 137.648L131.844 112.32ZM132.372 112.982L163.431 100.879L163.466 100.969L163.5 101.059L132.372 112.982ZM132.375 112.989L163.503 101.066L165.708 106.823V112.989H132.375ZM121.75 110.545V77.2121H155.083V110.545H121.75ZM121.75 119.636H155.083V152.97H121.75V119.636ZM110.786 123.079L78.3277 115.492L78.3278 115.492L110.786 123.079ZM107.599 136.716L140.057 144.303L140.057 144.303L107.599 136.716ZM100.726 139.404L68.2673 131.818L68.2675 131.817L100.726 139.404ZM104.026 125.284L71.5681 117.697L71.5682 117.696L104.026 125.284ZM140.875 150.697C140.874 150.697 140.874 150.697 140.873 150.697C140.873 150.697 140.872 150.697 140.871 150.697C140.871 150.697 140.87 150.697 140.87 150.697C140.869 150.697 140.868 150.697 140.868 150.697C140.867 150.697 140.866 150.697 140.866 150.697C140.865 150.697 140.864 150.697 140.863 150.697C140.863 150.697 140.862 150.697 140.861 150.697C140.86 150.697 140.86 150.697 140.859 150.697C140.858 150.697 140.857 150.697 140.856 150.697C140.856 150.697 140.855 150.697 140.854 150.697C140.853 150.697 140.852 150.697 140.851 150.697C140.851 150.697 140.85 150.697 140.849 150.697C140.848 150.697 140.847 150.697 140.846 150.697C140.845 150.697 140.844 150.697 140.843 150.697C140.842 150.697 140.841 150.697 140.84 150.697C140.84 150.697 140.839 150.697 140.838 150.697C140.837 150.697 140.836 150.697 140.835 150.697C140.833 150.697 140.832 150.697 140.831 150.697C140.83 150.697 140.829 150.697 140.828 150.697C140.827 150.697 140.826 150.697 140.825 150.697C140.824 150.697 140.823 150.697 140.822 150.697C140.82 150.697 140.819 150.697 140.818 150.697C140.817 150.697 140.816 150.697 140.815 150.697C140.814 150.697 140.812 150.697 140.811 150.697C140.81 150.697 140.809 150.697 140.808 150.697C140.806 150.697 140.805 150.697 140.804 150.697C140.803 150.697 140.801 150.697 140.8 150.697C140.799 150.697 140.797 150.697 140.796 150.697C140.795 150.697 140.794 150.697 140.792 150.697C140.791 150.697 140.79 150.697 140.788 150.697C140.787 150.697 140.785 150.697 140.784 150.697C140.783 150.697 140.781 150.697 140.78 150.697C140.779 150.697 140.777 150.697 140.776 150.697C140.774 150.697 140.773 150.697 140.771 150.697C140.77 150.697 140.768 150.697 140.767 150.697C140.766 150.697 140.764 150.697 140.763 150.697C140.761 150.697 140.76 150.697 140.758 150.697C140.756 150.697 140.755 150.697 140.753 150.697C140.752 150.697 140.75 150.697 140.749 150.697C140.747 150.697 140.746 150.697 140.744 150.697C140.742 150.697 140.741 150.697 140.739 150.697C140.738 150.697 140.736 150.697 140.734 150.697C140.733 150.697 140.731 150.697 140.729 150.697C140.728 150.697 140.726 150.697 140.724 150.697C140.723 150.697 140.721 150.697 140.719 150.697C140.718 150.697 140.716 150.697 140.714 150.697C140.712 150.697 140.711 150.697 140.709 150.697C140.707 150.697 140.705 150.697 140.704 150.697C140.702 150.697 140.7 150.697 140.698 150.697C140.696 150.697 140.695 150.697 140.693 150.697C140.691 150.697 140.689 150.697 140.687 150.697C140.685 150.697 140.684 150.697 140.682 150.697C140.68 150.697 140.678 150.697 140.676 150.697C140.674 150.697 140.672 150.697 140.67 150.697C140.668 150.697 140.667 150.697 140.665 150.697C140.663 150.697 140.661 150.697 140.659 150.697C140.657 150.697 140.655 150.697 140.653 150.697C140.651 150.697 140.649 150.697 140.647 150.697C140.645 150.697 140.643 150.697 140.641 150.697C140.639 150.697 140.637 150.697 140.635 150.697C140.633 150.697 140.631 150.697 140.629 150.697C140.627 150.697 140.625 150.697 140.622 150.697C140.62 150.697 140.618 150.697 140.616 150.697C140.614 150.697 140.612 150.697 140.61 150.697C140.608 150.697 140.606 150.697 140.603 150.697C140.601 150.697 140.599 150.697 140.597 150.697C140.595 150.697 140.593 150.697 140.591 150.697C140.588 150.697 140.586 150.697 140.584 150.697C140.582 150.697 140.579 150.697 140.577 150.697C140.575 150.697 140.573 150.697 140.571 150.697C140.568 150.697 140.566 150.697 140.564 150.697C140.562 150.697 140.559 150.697 140.557 150.697C140.555 150.697 140.552 150.697 140.55 150.697C140.548 150.697 140.545 150.697 140.543 150.697C140.541 150.697 140.538 150.697 140.536 150.697C140.534 150.697 140.531 150.697 140.529 150.697C140.527 150.697 140.524 150.697 140.522 150.697C140.52 150.697 140.517 150.697 140.515 150.697C140.512 150.697 140.51 150.697 140.508 150.697C140.505 150.697 140.503 150.697 140.5 150.697C140.498 150.697 140.495 150.697 140.493 150.697C140.49 150.697 140.488 150.697 140.486 150.697C140.483 150.697 140.481 150.697 140.478 150.697C140.476 150.697 140.473 150.697 140.471 150.697C140.468 150.697 140.465 150.697 140.463 150.697C140.46 150.697 140.458 150.697 140.455 150.697C140.453 150.697 140.45 150.697 140.448 150.697C140.445 150.697 140.442 150.697 140.44 150.697C140.437 150.697 140.435 150.697 140.432 150.697C140.43 150.697 140.427 150.697 140.424 150.697C140.422 150.697 140.419 150.697 140.416 150.697C140.414 150.697 140.411 150.697 140.408 150.697C140.406 150.697 140.403 150.697 140.4 150.697C140.398 150.697 140.395 150.697 140.392 150.697C140.39 150.697 140.387 150.697 140.384 150.697C140.382 150.697 140.379 150.697 140.376 150.697C140.373 150.697 140.371 150.697 140.368 150.697C140.365 150.697 140.362 150.697 140.36 150.697C140.357 150.697 140.354 150.697 140.351 150.697C140.349 150.697 140.346 150.697 140.343 150.697C140.34 150.697 140.337 150.697 140.335 150.697C140.332 150.697 140.329 150.697 140.326 150.697C140.323 150.697 140.32 150.697 140.318 150.697C140.315 150.697 140.312 150.697 140.309 150.697C140.306 150.697 140.303 150.697 140.3 150.697C140.297 150.697 140.295 150.697 140.292 150.697C140.289 150.697 140.286 150.697 140.283 150.697C140.28 150.697 140.277 150.697 140.274 150.697C140.271 150.697 140.268 150.697 140.265 150.697C140.263 150.697 140.26 150.697 140.257 150.697C140.254 150.697 140.251 150.697 140.248 150.697C140.245 150.697 140.242 150.697 140.239 150.697C140.236 150.697 140.233 150.697 140.23 150.697C140.227 150.697 140.224 150.697 140.221 150.697C140.218 150.697 140.215 150.697 140.212 150.697C140.209 150.697 140.206 150.697 140.203 150.697C140.2 150.697 140.196 150.697 140.193 150.697C140.19 150.697 140.187 150.697 140.184 150.697C140.181 150.697 140.178 150.697 140.175 150.697C140.172 150.697 140.169 150.697 140.166 150.697C140.163 150.697 140.159 150.697 140.156 150.697C140.153 150.697 140.15 150.697 140.147 150.697C140.144 150.697 140.141 150.697 140.137 150.697C140.134 150.697 140.131 150.697 140.128 150.697C140.125 150.697 140.122 150.697 140.118 150.697C140.115 150.697 140.112 150.697 140.109 150.697C140.106 150.697 140.103 150.697 140.099 150.697C140.096 150.697 140.093 150.697 140.09 150.697C140.086 150.697 140.083 150.697 140.08 150.697C140.077 150.697 140.074 150.697 140.07 150.697C140.067 150.697 140.064 150.697 140.061 150.697C140.057 150.697 140.054 150.697 140.051 150.697C140.048 150.697 140.044 150.697 140.041 150.697C140.038 150.697 140.034 150.697 140.031 150.697C140.028 150.697 140.024 150.697 140.021 150.697C140.018 150.697 140.015 150.697 140.011 150.697C140.008 150.697 140.005 150.697 140.001 150.697C139.998 150.697 139.995 150.697 139.991 150.697C139.988 150.697 139.985 150.697 139.981 150.697C139.978 150.697 139.974 150.697 139.971 150.697C139.968 150.697 139.964 150.697 139.961 150.697C139.958 150.697 139.954 150.697 139.951 150.697C139.947 150.697 139.944 150.697 139.941 150.697C139.937 150.697 139.934 150.697 139.93 150.697C139.927 150.697 139.923 150.697 139.92 150.697C139.917 150.697 139.913 150.697 139.91 150.697C139.906 150.697 139.903 150.697 139.899 150.697C139.896 150.697 139.892 150.697 139.889 150.697C139.886 150.697 139.882 150.697 139.879 150.697C139.875 150.697 139.872 150.697 139.868 150.697C139.865 150.697 139.861 150.697 139.858 150.697C139.854 150.697 139.851 150.697 139.847 150.697C139.844 150.697 139.84 150.697 139.837 150.697C139.833 150.697 139.83 150.697 139.826 150.697C139.823 150.697 139.819 150.697 139.815 150.697C139.812 150.697 139.808 150.697 139.805 150.697C139.801 150.697 139.798 150.697 139.794 150.697C139.791 150.697 139.787 150.697 139.783 150.697C139.78 150.697 139.776 150.697 139.773 150.697C139.769 150.697 139.766 150.697 139.762 150.697C139.758 150.697 139.755 150.697 139.751 150.697C139.748 150.697 139.744 150.697 139.74 150.697C139.737 150.697 139.733 150.697 139.73 150.697C139.726 150.697 139.722 150.697 139.719 150.697C139.715 150.697 139.711 150.697 139.708 150.697C139.704 150.697 139.7 150.697 139.697 150.697C139.693 150.697 139.689 150.697 139.686 150.697C139.682 150.697 139.679 150.697 139.675 150.697C139.671 150.697 139.668 150.697 139.664 150.697C139.66 150.697 139.656 150.697 139.653 150.697C139.649 150.697 139.645 150.697 139.642 150.697C139.638 150.697 139.634 150.697 139.631 150.697C139.627 150.697 139.623 150.697 139.62 150.697C139.616 150.697 139.612 150.697 139.608 150.697C139.605 150.697 139.601 150.697 139.597 150.697C139.594 150.697 139.59 150.697 139.586 150.697C139.582 150.697 139.579 150.697 139.575 150.697C139.571 150.697 139.567 150.697 139.564 150.697C139.56 150.697 139.556 150.697 139.552 150.697C139.549 150.697 139.545 150.697 139.541 150.697C139.537 150.697 139.534 150.697 139.53 150.697C139.526 150.697 139.522 150.697 139.518 150.697C139.515 150.697 139.511 150.697 139.507 150.697C139.503 150.697 139.499 150.697 139.496 150.697C139.492 150.697 139.488 150.697 139.484 150.697C139.481 150.697 139.477 150.697 139.473 150.697C139.469 150.697 139.465 150.697 139.461 150.697C139.458 150.697 139.454 150.697 139.45 150.697C139.446 150.697 139.442 150.697 139.439 150.697C139.435 150.697 139.431 150.697 139.427 150.697C139.423 150.697 139.419 150.697 139.416 150.697C139.412 150.697 139.408 150.697 139.404 150.697C139.4 150.697 139.396 150.697 139.392 150.697C139.389 150.697 139.385 150.697 139.381 150.697C139.377 150.697 139.373 150.697 139.369 150.697C139.365 150.697 139.362 150.697 139.358 150.697C139.354 150.697 139.35 150.697 139.346 150.697C139.342 150.697 139.338 150.697 139.334 150.697C139.331 150.697 139.327 150.697 139.323 150.697C139.319 150.697 139.315 150.697 139.311 150.697C139.307 150.697 139.303 150.697 139.299 150.697C139.296 150.697 139.292 150.697 139.288 150.697C139.284 150.697 139.28 150.697 139.276 150.697C139.272 150.697 139.268 150.697 139.264 150.697C139.26 150.697 139.256 150.697 139.253 150.697C139.249 150.697 139.245 150.697 139.241 150.697C139.237 150.697 139.233 150.697 139.229 150.697C139.225 150.697 139.221 150.697 139.217 150.697C139.213 150.697 139.209 150.697 139.205 150.697C139.201 150.697 139.198 150.697 139.194 150.697C139.19 150.697 139.186 150.697 139.182 150.697C139.178 150.697 139.174 150.697 139.17 150.697C139.166 150.697 139.162 150.697 139.158 150.697C139.154 150.697 139.15 150.697 139.146 150.697C139.142 150.697 139.138 150.697 139.134 150.697C139.13 150.697 139.126 150.697 139.122 150.697C139.118 150.697 139.115 150.697 139.111 150.697C139.107 150.697 139.103 150.697 139.099 150.697C139.095 150.697 139.091 150.697 139.087 150.697C139.083 150.697 139.079 150.697 139.075 150.697C139.071 150.697 139.067 150.697 139.063 150.697C139.059 150.697 139.055 150.697 139.051 150.697C139.047 150.697 139.043 150.697 139.039 150.697C139.035 150.697 139.031 150.697 139.027 150.697C139.023 150.697 139.019 150.697 139.015 150.697C139.011 150.697 139.007 150.697 139.003 150.697C138.999 150.697 138.995 150.697 138.991 150.697C138.987 150.697 138.983 150.697 138.979 150.697C138.975 150.697 138.971 150.697 138.967 150.697C138.963 150.697 138.959 150.697 138.955 150.697C138.951 150.697 138.947 150.697 138.943 150.697C138.939 150.697 138.935 150.697 138.931 150.697C138.927 150.697 138.923 150.697 138.919 150.697C138.915 150.697 138.911 150.697 138.907 150.697C138.903 150.697 138.899 150.697 138.895 150.697C138.891 150.697 138.887 150.697 138.883 150.697C138.879 150.697 138.875 150.697 138.871 150.697C138.867 150.697 138.863 150.697 138.859 150.697C138.855 150.697 138.851 150.697 138.847 150.697C138.843 150.697 138.839 150.697 138.835 150.697C138.831 150.697 138.827 150.697 138.823 150.697C138.819 150.697 138.815 150.697 138.811 150.697C138.807 150.697 138.803 150.697 138.799 150.697C138.795 150.697 138.791 150.697 138.787 150.697C138.783 150.697 138.779 150.697 138.775 150.697C138.771 150.697 138.767 150.697 138.763 150.697C138.759 150.697 138.755 150.697 138.751 150.697C138.747 150.697 138.743 150.697 138.739 150.697C138.735 150.697 138.731 150.697 138.727 150.697C138.722 150.697 138.718 150.697 138.714 150.697C138.71 150.697 138.706 150.697 138.702 150.697C138.698 150.697 138.694 150.697 138.69 150.697C138.686 150.697 138.682 150.697 138.678 150.697C138.674 150.697 138.67 150.697 138.666 150.697C138.662 150.697 138.658 150.697 138.654 150.697C138.65 150.697 138.646 150.697 138.642 150.697C138.638 150.697 138.634 150.697 138.63 150.697C138.626 150.697 138.622 150.697 138.618 150.697C138.614 150.697 138.61 150.697 138.606 150.697C138.602 150.697 138.598 150.697 138.594 150.697C138.59 150.697 138.586 150.697 138.582 150.697C138.578 150.697 138.574 150.697 138.57 150.697C138.566 150.697 138.562 150.697 138.558 150.697C138.554 150.697 138.55 150.697 138.546 150.697C138.542 150.697 138.538 150.697 138.534 150.697C138.53 150.697 138.526 150.697 138.522 150.697C138.518 150.697 138.514 150.697 138.51 150.697C138.506 150.697 138.502 150.697 138.498 150.697C138.494 150.697 138.49 150.697 138.486 150.697C138.482 150.697 138.478 150.697 138.474 150.697C138.47 150.697 138.466 150.697 138.462 150.697C138.458 150.697 138.454 150.697 138.45 150.697C138.446 150.697 138.442 150.697 138.438 150.697C138.435 150.697 138.431 150.697 138.427 150.697C138.423 150.697 138.419 150.697 138.415 150.697C138.411 150.697 138.407 150.697 138.403 150.697C138.399 150.697 138.395 150.697 138.391 150.697C138.387 150.697 138.383 150.697 138.379 150.697C138.375 150.697 138.371 150.697 138.367 150.697C138.363 150.697 138.359 150.697 138.355 150.697C138.351 150.697 138.347 150.697 138.343 150.697C138.339 150.697 138.336 150.697 138.332 150.697C138.328 150.697 138.324 150.697 138.32 150.697C138.316 150.697 138.312 150.697 138.308 150.697C138.304 150.697 138.3 150.697 138.296 150.697C138.292 150.697 138.288 150.697 138.284 150.697C138.28 150.697 138.276 150.697 138.273 150.697C138.269 150.697 138.265 150.697 138.261 150.697C138.257 150.697 138.253 150.697 138.249 150.697C138.245 150.697 138.241 150.697 138.237 150.697C138.233 150.697 138.23 150.697 138.226 150.697C138.222 150.697 138.218 150.697 138.214 150.697C138.21 150.697 138.206 150.697 138.202 150.697C138.198 150.697 138.194 150.697 138.191 150.697C138.187 150.697 138.183 150.697 138.179 150.697C138.175 150.697 138.171 150.697 138.167 150.697C138.163 150.697 138.16 150.697 138.156 150.697C138.152 150.697 138.148 150.697 138.144 150.697C138.14 150.697 138.136 150.697 138.132 150.697C138.129 150.697 138.125 150.697 138.121 150.697C138.117 150.697 138.113 150.697 138.109 150.697C138.106 150.697 138.102 150.697 138.098 150.697C138.094 150.697 138.09 150.697 138.086 150.697C138.083 150.697 138.079 150.697 138.075 150.697C138.071 150.697 138.067 150.697 138.063 150.697C138.06 150.697 138.056 150.697 138.052 150.697C138.048 150.697 138.044 150.697 138.041 150.697C138.037 150.697 138.033 150.697 138.029 150.697C138.025 150.697 138.022 150.697 138.018 150.697C138.014 150.697 138.01 150.697 138.006 150.697C138.003 150.697 137.999 150.697 137.995 150.697C137.991 150.697 137.987 150.697 137.984 150.697C137.98 150.697 137.976 150.697 137.972 150.697C137.969 150.697 137.965 150.697 137.961 150.697C137.957 150.697 137.954 150.697 137.95 150.697C137.946 150.697 137.942 150.697 137.939 150.697C137.935 150.697 137.931 150.697 137.927 150.697C137.924 150.697 137.92 150.697 137.916 150.697C137.913 150.697 137.909 150.697 137.905 150.697C137.901 150.697 137.898 150.697 137.894 150.697C137.89 150.697 137.887 150.697 137.883 150.697C137.879 150.697 137.875 150.697 137.872 150.697C137.868 150.697 137.864 150.697 137.861 150.697C137.857 150.697 137.853 150.697 137.85 150.697C137.846 150.697 137.842 150.697 137.839 150.697C137.835 150.697 137.831 150.697 137.828 150.697C137.824 150.697 137.82 150.697 137.817 150.697C137.813 150.697 137.809 150.697 137.806 150.697C137.802 150.697 137.799 150.697 137.795 150.697C137.791 150.697 137.788 150.697 137.784 150.697C137.78 150.697 137.777 150.697 137.773 150.697C137.77 150.697 137.766 150.697 137.762 150.697C137.759 150.697 137.755 150.697 137.752 150.697C137.748 150.697 137.744 150.697 137.741 150.697C137.737 150.697 137.734 150.697 137.73 150.697C137.727 150.697 137.723 150.697 137.719 150.697C137.716 150.697 137.712 150.697 137.709 150.697C137.705 150.697 137.702 150.697 137.698 150.697C137.695 150.697 137.691 150.697 137.688 150.697C137.684 150.697 137.681 150.697 137.677 150.697C137.674 150.697 137.67 150.697 137.666 150.697C137.663 150.697 137.659 150.697 137.656 150.697C137.652 150.697 137.649 150.697 137.646 150.697C137.642 150.697 137.639 150.697 137.635 150.697C137.632 150.697 137.628 150.697 137.625 150.697C137.621 150.697 137.618 150.697 137.614 150.697C137.611 150.697 137.607 150.697 137.604 150.697C137.601 150.697 137.597 150.697 137.594 150.697C137.59 150.697 137.587 150.697 137.583 150.697C137.58 150.697 137.577 150.697 137.573 150.697C137.57 150.697 137.566 150.697 137.563 150.697C137.56 150.697 137.556 150.697 137.553 150.697C137.549 150.697 137.546 150.697 137.543 150.697C137.539 150.697 137.536 150.697 137.533 150.697C137.529 150.697 137.526 150.697 137.523 150.697C137.519 150.697 137.516 150.697 137.513 150.697C137.509 150.697 137.506 150.697 137.503 150.697C137.499 150.697 137.496 150.697 137.493 150.697C137.489 150.697 137.486 150.697 137.483 150.697C137.479 150.697 137.476 150.697 137.473 150.697C137.47 150.697 137.466 150.697 137.463 150.697C137.46 150.697 137.457 150.697 137.453 150.697C137.45 150.697 137.447 150.697 137.444 150.697C137.44 150.697 137.437 150.697 137.434 150.697C137.431 150.697 137.427 150.697 137.424 150.697C137.421 150.697 137.418 150.697 137.415 150.697C137.411 150.697 137.408 150.697 137.405 150.697C137.402 150.697 137.399 150.697 137.395 150.697C137.392 150.697 137.389 150.697 137.386 150.697C137.383 150.697 137.38 150.697 137.376 150.697C137.373 150.697 137.37 150.697 137.367 150.697C137.364 150.697 137.361 150.697 137.358 150.697C137.355 150.697 137.351 150.697 137.348 150.697C137.345 150.697 137.342 150.697 137.339 150.697C137.336 150.697 137.333 150.697 137.33 150.697C137.327 150.697 137.324 150.697 137.321 150.697C137.318 150.697 137.314 150.697 137.311 150.697C137.308 150.697 137.305 150.697 137.302 150.697C137.299 150.697 137.296 150.697 137.293 150.697C137.29 150.697 137.287 150.697 137.284 150.697C137.281 150.697 137.278 150.697 137.275 150.697C137.272 150.697 137.269 150.697 137.266 150.697C137.263 150.697 137.26 150.697 137.257 150.697C137.255 150.697 137.252 150.697 137.249 150.697C137.246 150.697 137.243 150.697 137.24 150.697C137.237 150.697 137.234 150.697 137.231 150.697C137.228 150.697 137.225 150.697 137.222 150.697C137.22 150.697 137.217 150.697 137.214 150.697C137.211 150.697 137.208 150.697 137.205 150.697C137.202 150.697 137.199 150.697 137.197 150.697C137.194 150.697 137.191 150.697 137.188 150.697C137.185 150.697 137.182 150.697 137.18 150.697C137.177 150.697 137.174 150.697 137.171 150.697C137.168 150.697 137.166 150.697 137.163 150.697C137.16 150.697 137.157 150.697 137.155 150.697C137.152 150.697 137.149 150.697 137.146 150.697C137.144 150.697 137.141 150.697 137.138 150.697C137.135 150.697 137.133 150.697 137.13 150.697C137.127 150.697 137.125 150.697 137.122 150.697C137.119 150.697 137.117 150.697 137.114 150.697C137.111 150.697 137.109 150.697 137.106 150.697C137.103 150.697 137.101 150.697 137.098 150.697C137.095 150.697 137.093 150.697 137.09 150.697C137.087 150.697 137.085 150.697 137.082 150.697C137.08 150.697 137.077 150.697 137.074 150.697C137.072 150.697 137.069 150.697 137.067 150.697C137.064 150.697 137.062 150.697 137.059 150.697C137.057 150.697 137.054 150.697 137.051 150.697C137.049 150.697 137.046 150.697 137.044 150.697C137.041 150.697 137.039 150.697 137.036 150.697C137.034 150.697 137.031 150.697 137.029 150.697C137.026 150.697 137.024 150.697 137.022 150.697C137.019 150.697 137.017 150.697 137.014 150.697C137.012 150.697 137.009 150.697 137.007 150.697C137.005 150.697 137.002 150.697 137 150.697C136.997 150.697 136.995 150.697 136.993 150.697C136.99 150.697 136.988 150.697 136.985 150.697C136.983 150.697 136.981 150.697 136.978 150.697C136.976 150.697 136.974 150.697 136.971 150.697C136.969 150.697 136.967 150.697 136.965 150.697C136.962 150.697 136.96 150.697 136.958 150.697C136.955 150.697 136.953 150.697 136.951 150.697C136.949 150.697 136.946 150.697 136.944 150.697C136.942 150.697 136.94 150.697 136.937 150.697C136.935 150.697 136.933 150.697 136.931 150.697C136.929 150.697 136.926 150.697 136.924 150.697C136.922 150.697 136.92 150.697 136.918 150.697C136.916 150.697 136.913 150.697 136.911 150.697C136.909 150.697 136.907 150.697 136.905 150.697C136.903 150.697 136.901 150.697 136.899 150.697C136.896 150.697 136.894 150.697 136.892 150.697C136.89 150.697 136.888 150.697 136.886 150.697C136.884 150.697 136.882 150.697 136.88 150.697C136.878 150.697 136.876 150.697 136.874 150.697C136.872 150.697 136.87 150.697 136.868 150.697C136.866 150.697 136.864 150.697 136.862 150.697C136.86 150.697 136.858 150.697 136.856 150.697C136.854 150.697 136.852 150.697 136.85 150.697C136.848 150.697 136.846 150.697 136.845 150.697C136.843 150.697 136.841 150.697 136.839 150.697C136.837 150.697 136.835 150.697 136.833 150.697C136.831 150.697 136.83 150.697 136.828 150.697C136.826 150.697 136.824 150.697 136.822 150.697C136.82 150.697 136.819 150.697 136.817 150.697C136.815 150.697 136.813 150.697 136.811 150.697C136.81 150.697 136.808 150.697 136.806 150.697C136.804 150.697 136.803 150.697 136.801 150.697C136.799 150.697 136.798 150.697 136.796 150.697C136.794 150.697 136.792 150.697 136.791 150.697C136.789 150.697 136.787 150.697 136.786 150.697C136.784 150.697 136.782 150.697 136.781 150.697C136.779 150.697 136.778 150.697 136.776 150.697C136.774 150.697 136.773 150.697 136.771 150.697C136.77 150.697 136.768 150.697 136.766 150.697C136.765 150.697 136.763 150.697 136.762 150.697C136.76 150.697 136.759 150.697 136.757 150.697C136.756 150.697 136.754 150.697 136.753 150.697C136.751 150.697 136.75 150.697 136.748 150.697C136.747 150.697 136.745 150.697 136.744 150.697C136.742 150.697 136.741 150.697 136.74 150.697C136.738 150.697 136.737 150.697 136.735 150.697C136.734 150.697 136.733 150.697 136.731 150.697C136.73 150.697 136.729 150.697 136.727 150.697C136.726 150.697 136.724 150.697 136.723 150.697C136.722 150.697 136.721 150.697 136.719 150.697C136.718 150.697 136.717 150.697 136.715 150.697C136.714 150.697 136.713 150.697 136.712 150.697C136.71 150.697 136.709 150.697 136.708 150.697C136.707 150.697 136.705 150.697 136.704 150.697C136.703 150.697 136.702 150.697 136.701 150.697C136.7 150.697 136.698 150.697 136.697 150.697C136.696 150.697 136.695 150.697 136.694 150.697C136.693 150.697 136.692 150.697 136.691 150.697C136.689 150.697 136.688 150.697 136.687 150.697C136.686 150.697 136.685 150.697 136.684 150.697C136.683 150.697 136.682 150.697 136.681 150.697C136.68 150.697 136.679 150.697 136.678 150.697C136.677 150.697 136.676 150.697 136.675 150.697C136.674 150.697 136.673 150.697 136.672 150.697C136.671 150.697 136.67 150.697 136.67 150.697C136.669 150.697 136.668 150.697 136.667 150.697C136.666 150.697 136.665 150.697 136.664 150.697C136.663 150.697 136.663 150.697 136.662 150.697C136.661 150.697 136.66 150.697 136.659 150.697C136.658 150.697 136.658 150.697 136.657 150.697C136.656 150.697 136.655 150.697 136.655 150.697C136.654 150.697 136.653 150.697 136.652 150.697C136.652 150.697 136.651 150.697 136.65 150.697C136.65 150.697 136.649 150.697 136.648 150.697C136.648 150.697 136.647 150.697 136.646 150.697C136.646 150.697 136.645 150.697 136.644 150.697C136.644 150.697 136.643 150.697 136.643 150.697C136.642 150.697 136.642 150.697 136.641 150.697C136.64 150.697 136.64 150.697 136.639 150.697C136.639 150.697 136.638 150.697 136.638 150.697C136.637 150.697 136.637 150.697 136.636 150.697C136.636 150.697 136.635 150.697 136.635 150.697C136.635 150.697 136.634 150.697 136.634 150.697C136.633 150.697 136.633 150.697 136.633 150.697C136.632 150.697 136.632 150.697 136.631 150.697C136.631 150.697 136.631 150.697 136.63 150.697C136.63 150.697 136.63 150.697 136.629 150.697C136.629 150.697 136.629 150.697 136.629 150.697C136.628 150.697 136.628 150.697 136.628 150.697C136.628 150.697 136.627 150.697 136.627 150.697C136.627 150.697 136.627 150.697 136.627 150.697C136.626 150.697 136.626 150.697 136.626 150.697C136.626 150.697 136.626 150.697 136.626 150.697C136.626 150.697 136.625 150.697 136.625 150.697C136.625 150.697 136.625 150.697 136.625 150.697C136.625 150.697 136.625 150.697 136.625 150.697C136.625 150.697 136.625 150.697 136.625 117.364C136.625 84.0303 136.625 84.0303 136.625 84.0303C136.625 84.0303 136.625 84.0303 136.625 84.0303C136.625 84.0303 136.625 84.0303 136.625 84.0303C136.625 84.0303 136.626 84.0303 136.626 84.0303C136.626 84.0303 136.626 84.0303 136.626 84.0303C136.626 84.0303 136.626 84.0303 136.627 84.0303C136.627 84.0303 136.627 84.0303 136.627 84.0303C136.627 84.0303 136.628 84.0303 136.628 84.0303C136.628 84.0303 136.628 84.0303 136.629 84.0303C136.629 84.0303 136.629 84.0303 136.629 84.0303C136.63 84.0303 136.63 84.0303 136.63 84.0303C136.631 84.0303 136.631 84.0303 136.631 84.0303C136.632 84.0303 136.632 84.0303 136.633 84.0303C136.633 84.0303 136.633 84.0303 136.634 84.0303C136.634 84.0303 136.635 84.0303 136.635 84.0303C136.635 84.0303 136.636 84.0303 136.636 84.0303C136.637 84.0303 136.637 84.0303 136.638 84.0303C136.638 84.0303 136.639 84.0303 136.639 84.0303C136.64 84.0303 136.64 84.0303 136.641 84.0303C136.642 84.0303 136.642 84.0303 136.643 84.0303C136.643 84.0303 136.644 84.0303 136.644 84.0303C136.645 84.0303 136.646 84.0303 136.646 84.0303C136.647 84.0303 136.648 84.0303 136.648 84.0303C136.649 84.0303 136.65 84.0303 136.65 84.0303C136.651 84.0303 136.652 84.0303 136.652 84.0303C136.653 84.0303 136.654 84.0303 136.655 84.0303C136.655 84.0303 136.656 84.0303 136.657 84.0303C136.658 84.0303 136.658 84.0303 136.659 84.0303C136.66 84.0303 136.661 84.0303 136.662 84.0303C136.663 84.0303 136.663 84.0303 136.664 84.0303C136.665 84.0303 136.666 84.0303 136.667 84.0303C136.668 84.0303 136.669 84.0303 136.67 84.0303C136.67 84.0303 136.671 84.0303 136.672 84.0303C136.673 84.0303 136.674 84.0303 136.675 84.0303C136.676 84.0303 136.677 84.0303 136.678 84.0303C136.679 84.0303 136.68 84.0303 136.681 84.0303C136.682 84.0303 136.683 84.0303 136.684 84.0303C136.685 84.0303 136.686 84.0303 136.687 84.0303C136.688 84.0303 136.689 84.0303 136.691 84.0303C136.692 84.0303 136.693 84.0303 136.694 84.0303C136.695 84.0303 136.696 84.0303 136.697 84.0303C136.698 84.0303 136.7 84.0303 136.701 84.0303C136.702 84.0303 136.703 84.0303 136.704 84.0303C136.705 84.0303 136.707 84.0303 136.708 84.0303C136.709 84.0303 136.71 84.0303 136.712 84.0303C136.713 84.0303 136.714 84.0303 136.715 84.0303C136.717 84.0303 136.718 84.0303 136.719 84.0303C136.721 84.0303 136.722 84.0303 136.723 84.0303C136.724 84.0303 136.726 84.0303 136.727 84.0303C136.729 84.0303 136.73 84.0303 136.731 84.0303C136.733 84.0303 136.734 84.0303 136.735 84.0303C136.737 84.0303 136.738 84.0303 136.74 84.0303C136.741 84.0303 136.742 84.0303 136.744 84.0303C136.745 84.0303 136.747 84.0303 136.748 84.0303C136.75 84.0303 136.751 84.0303 136.753 84.0303C136.754 84.0303 136.756 84.0303 136.757 84.0303C136.759 84.0303 136.76 84.0303 136.762 84.0303C136.763 84.0303 136.765 84.0303 136.766 84.0303C136.768 84.0303 136.77 84.0303 136.771 84.0303C136.773 84.0303 136.774 84.0303 136.776 84.0303C136.778 84.0303 136.779 84.0303 136.781 84.0303C136.782 84.0303 136.784 84.0303 136.786 84.0303C136.787 84.0303 136.789 84.0303 136.791 84.0303C136.792 84.0303 136.794 84.0303 136.796 84.0303C136.798 84.0303 136.799 84.0303 136.801 84.0303C136.803 84.0303 136.804 84.0303 136.806 84.0303C136.808 84.0303 136.81 84.0303 136.811 84.0303C136.813 84.0303 136.815 84.0303 136.817 84.0303C136.819 84.0303 136.82 84.0303 136.822 84.0303C136.824 84.0303 136.826 84.0303 136.828 84.0303C136.83 84.0303 136.831 84.0303 136.833 84.0303C136.835 84.0303 136.837 84.0303 136.839 84.0303C136.841 84.0303 136.843 84.0303 136.845 84.0303C136.846 84.0303 136.848 84.0303 136.85 84.0303C136.852 84.0303 136.854 84.0303 136.856 84.0303C136.858 84.0303 136.86 84.0303 136.862 84.0303C136.864 84.0303 136.866 84.0303 136.868 84.0303C136.87 84.0303 136.872 84.0303 136.874 84.0303C136.876 84.0303 136.878 84.0303 136.88 84.0303C136.882 84.0303 136.884 84.0303 136.886 84.0303C136.888 84.0303 136.89 84.0303 136.892 84.0303C136.894 84.0303 136.896 84.0303 136.899 84.0303C136.901 84.0303 136.903 84.0303 136.905 84.0303C136.907 84.0303 136.909 84.0303 136.911 84.0303C136.913 84.0303 136.916 84.0303 136.918 84.0303C136.92 84.0303 136.922 84.0303 136.924 84.0303C136.926 84.0303 136.929 84.0303 136.931 84.0303C136.933 84.0303 136.935 84.0303 136.937 84.0303C136.94 84.0303 136.942 84.0303 136.944 84.0303C136.946 84.0303 136.949 84.0303 136.951 84.0303C136.953 84.0303 136.955 84.0303 136.958 84.0303C136.96 84.0303 136.962 84.0303 136.965 84.0303C136.967 84.0303 136.969 84.0303 136.971 84.0303C136.974 84.0303 136.976 84.0303 136.978 84.0303C136.981 84.0303 136.983 84.0303 136.985 84.0303C136.988 84.0303 136.99 84.0303 136.993 84.0303C136.995 84.0303 136.997 84.0303 137 84.0303C137.002 84.0303 137.005 84.0303 137.007 84.0303C137.009 84.0303 137.012 84.0303 137.014 84.0303C137.017 84.0303 137.019 84.0303 137.022 84.0303C137.024 84.0303 137.026 84.0303 137.029 84.0303C137.031 84.0303 137.034 84.0303 137.036 84.0303C137.039 84.0303 137.041 84.0303 137.044 84.0303C137.046 84.0303 137.049 84.0303 137.051 84.0303C137.054 84.0303 137.057 84.0303 137.059 84.0303C137.062 84.0303 137.064 84.0303 137.067 84.0303C137.069 84.0303 137.072 84.0303 137.074 84.0303C137.077 84.0303 137.08 84.0303 137.082 84.0303C137.085 84.0303 137.087 84.0303 137.09 84.0303C137.093 84.0303 137.095 84.0303 137.098 84.0303C137.101 84.0303 137.103 84.0303 137.106 84.0303C137.109 84.0303 137.111 84.0303 137.114 84.0303C137.117 84.0303 137.119 84.0303 137.122 84.0303C137.125 84.0303 137.127 84.0303 137.13 84.0303C137.133 84.0303 137.135 84.0303 137.138 84.0303C137.141 84.0303 137.144 84.0303 137.146 84.0303C137.149 84.0303 137.152 84.0303 137.155 84.0303C137.157 84.0303 137.16 84.0303 137.163 84.0303C137.166 84.0303 137.168 84.0303 137.171 84.0303C137.174 84.0303 137.177 84.0303 137.18 84.0303C137.182 84.0303 137.185 84.0303 137.188 84.0303C137.191 84.0303 137.194 84.0303 137.197 84.0303C137.199 84.0303 137.202 84.0303 137.205 84.0303C137.208 84.0303 137.211 84.0303 137.214 84.0303C137.217 84.0303 137.22 84.0303 137.222 84.0303C137.225 84.0303 137.228 84.0303 137.231 84.0303C137.234 84.0303 137.237 84.0303 137.24 84.0303C137.243 84.0303 137.246 84.0303 137.249 84.0303C137.252 84.0303 137.255 84.0303 137.257 84.0303C137.26 84.0303 137.263 84.0303 137.266 84.0303C137.269 84.0303 137.272 84.0303 137.275 84.0303C137.278 84.0303 137.281 84.0303 137.284 84.0303C137.287 84.0303 137.29 84.0303 137.293 84.0303C137.296 84.0303 137.299 84.0303 137.302 84.0303C137.305 84.0303 137.308 84.0303 137.311 84.0303C137.314 84.0303 137.318 84.0303 137.321 84.0303C137.324 84.0303 137.327 84.0303 137.33 84.0303C137.333 84.0303 137.336 84.0303 137.339 84.0303C137.342 84.0303 137.345 84.0303 137.348 84.0303C137.351 84.0303 137.355 84.0303 137.358 84.0303C137.361 84.0303 137.364 84.0303 137.367 84.0303C137.37 84.0303 137.373 84.0303 137.376 84.0303C137.38 84.0303 137.383 84.0303 137.386 84.0303C137.389 84.0303 137.392 84.0303 137.395 84.0303C137.399 84.0303 137.402 84.0303 137.405 84.0303C137.408 84.0303 137.411 84.0303 137.415 84.0303C137.418 84.0303 137.421 84.0303 137.424 84.0303C137.427 84.0303 137.431 84.0303 137.434 84.0303C137.437 84.0303 137.44 84.0303 137.444 84.0303C137.447 84.0303 137.45 84.0303 137.453 84.0303C137.457 84.0303 137.46 84.0303 137.463 84.0303C137.466 84.0303 137.47 84.0303 137.473 84.0303C137.476 84.0303 137.479 84.0303 137.483 84.0303C137.486 84.0303 137.489 84.0303 137.493 84.0303C137.496 84.0303 137.499 84.0303 137.503 84.0303C137.506 84.0303 137.509 84.0303 137.513 84.0303C137.516 84.0303 137.519 84.0303 137.523 84.0303C137.526 84.0303 137.529 84.0303 137.533 84.0303C137.536 84.0303 137.539 84.0303 137.543 84.0303C137.546 84.0303 137.549 84.0303 137.553 84.0303C137.556 84.0303 137.56 84.0303 137.563 84.0303C137.566 84.0303 137.57 84.0303 137.573 84.0303C137.577 84.0303 137.58 84.0303 137.583 84.0303C137.587 84.0303 137.59 84.0303 137.594 84.0303C137.597 84.0303 137.601 84.0303 137.604 84.0303C137.607 84.0303 137.611 84.0303 137.614 84.0303C137.618 84.0303 137.621 84.0303 137.625 84.0303C137.628 84.0303 137.632 84.0303 137.635 84.0303C137.639 84.0303 137.642 84.0303 137.646 84.0303C137.649 84.0303 137.652 84.0303 137.656 84.0303C137.659 84.0303 137.663 84.0303 137.666 84.0303C137.67 84.0303 137.674 84.0303 137.677 84.0303C137.681 84.0303 137.684 84.0303 137.688 84.0303C137.691 84.0303 137.695 84.0303 137.698 84.0303C137.702 84.0303 137.705 84.0303 137.709 84.0303C137.712 84.0303 137.716 84.0303 137.719 84.0303C137.723 84.0303 137.727 84.0303 137.73 84.0303C137.734 84.0303 137.737 84.0303 137.741 84.0303C137.744 84.0303 137.748 84.0303 137.752 84.0303C137.755 84.0303 137.759 84.0303 137.762 84.0303C137.766 84.0303 137.77 84.0303 137.773 84.0303C137.777 84.0303 137.78 84.0303 137.784 84.0303C137.788 84.0303 137.791 84.0303 137.795 84.0303C137.799 84.0303 137.802 84.0303 137.806 84.0303C137.809 84.0303 137.813 84.0303 137.817 84.0303C137.82 84.0303 137.824 84.0303 137.828 84.0303C137.831 84.0303 137.835 84.0303 137.839 84.0303C137.842 84.0303 137.846 84.0303 137.85 84.0303C137.853 84.0303 137.857 84.0303 137.861 84.0303C137.864 84.0303 137.868 84.0303 137.872 84.0303C137.875 84.0303 137.879 84.0303 137.883 84.0303C137.887 84.0303 137.89 84.0303 137.894 84.0303C137.898 84.0303 137.901 84.0303 137.905 84.0303C137.909 84.0303 137.913 84.0303 137.916 84.0303C137.92 84.0303 137.924 84.0303 137.927 84.0303C137.931 84.0303 137.935 84.0303 137.939 84.0303C137.942 84.0303 137.946 84.0303 137.95 84.0303C137.954 84.0303 137.957 84.0303 137.961 84.0303C137.965 84.0303 137.969 84.0303 137.972 84.0303C137.976 84.0303 137.98 84.0303 137.984 84.0303C137.987 84.0303 137.991 84.0303 137.995 84.0303C137.999 84.0303 138.003 84.0303 138.006 84.0303C138.01 84.0303 138.014 84.0303 138.018 84.0303C138.022 84.0303 138.025 84.0303 138.029 84.0303C138.033 84.0303 138.037 84.0303 138.041 84.0303C138.044 84.0303 138.048 84.0303 138.052 84.0303C138.056 84.0303 138.06 84.0303 138.063 84.0303C138.067 84.0303 138.071 84.0303 138.075 84.0303C138.079 84.0303 138.083 84.0303 138.086 84.0303C138.09 84.0303 138.094 84.0303 138.098 84.0303C138.102 84.0303 138.106 84.0303 138.109 84.0303C138.113 84.0303 138.117 84.0303 138.121 84.0303C138.125 84.0303 138.129 84.0303 138.132 84.0303C138.136 84.0303 138.14 84.0303 138.144 84.0303C138.148 84.0303 138.152 84.0303 138.156 84.0303C138.16 84.0303 138.163 84.0303 138.167 84.0303C138.171 84.0303 138.175 84.0303 138.179 84.0303C138.183 84.0303 138.187 84.0303 138.191 84.0303C138.194 84.0303 138.198 84.0303 138.202 84.0303C138.206 84.0303 138.21 84.0303 138.214 84.0303C138.218 84.0303 138.222 84.0303 138.226 84.0303C138.23 84.0303 138.233 84.0303 138.237 84.0303C138.241 84.0303 138.245 84.0303 138.249 84.0303C138.253 84.0303 138.257 84.0303 138.261 84.0303C138.265 84.0303 138.269 84.0303 138.273 84.0303C138.276 84.0303 138.28 84.0303 138.284 84.0303C138.288 84.0303 138.292 84.0303 138.296 84.0303C138.3 84.0303 138.304 84.0303 138.308 84.0303C138.312 84.0303 138.316 84.0303 138.32 84.0303C138.324 84.0303 138.328 84.0303 138.332 84.0303C138.336 84.0303 138.339 84.0303 138.343 84.0303C138.347 84.0303 138.351 84.0303 138.355 84.0303C138.359 84.0303 138.363 84.0303 138.367 84.0303C138.371 84.0303 138.375 84.0303 138.379 84.0303C138.383 84.0303 138.387 84.0303 138.391 84.0303C138.395 84.0303 138.399 84.0303 138.403 84.0303C138.407 84.0303 138.411 84.0303 138.415 84.0303C138.419 84.0303 138.423 84.0303 138.427 84.0303C138.431 84.0303 138.435 84.0303 138.438 84.0303C138.442 84.0303 138.446 84.0303 138.45 84.0303C138.454 84.0303 138.458 84.0303 138.462 84.0303C138.466 84.0303 138.47 84.0303 138.474 84.0303C138.478 84.0303 138.482 84.0303 138.486 84.0303C138.49 84.0303 138.494 84.0303 138.498 84.0303C138.502 84.0303 138.506 84.0303 138.51 84.0303C138.514 84.0303 138.518 84.0303 138.522 84.0303C138.526 84.0303 138.53 84.0303 138.534 84.0303C138.538 84.0303 138.542 84.0303 138.546 84.0303C138.55 84.0303 138.554 84.0303 138.558 84.0303C138.562 84.0303 138.566 84.0303 138.57 84.0303C138.574 84.0303 138.578 84.0303 138.582 84.0303C138.586 84.0303 138.59 84.0303 138.594 84.0303C138.598 84.0303 138.602 84.0303 138.606 84.0303C138.61 84.0303 138.614 84.0303 138.618 84.0303C138.622 84.0303 138.626 84.0303 138.63 84.0303C138.634 84.0303 138.638 84.0303 138.642 84.0303C138.646 84.0303 138.65 84.0303 138.654 84.0303C138.658 84.0303 138.662 84.0303 138.666 84.0303C138.67 84.0303 138.674 84.0303 138.678 84.0303C138.682 84.0303 138.686 84.0303 138.69 84.0303C138.694 84.0303 138.698 84.0303 138.702 84.0303C138.706 84.0303 138.71 84.0303 138.714 84.0303C138.718 84.0303 138.722 84.0303 138.727 84.0303C138.731 84.0303 138.735 84.0303 138.739 84.0303C138.743 84.0303 138.747 84.0303 138.751 84.0303C138.755 84.0303 138.759 84.0303 138.763 84.0303C138.767 84.0303 138.771 84.0303 138.775 84.0303C138.779 84.0303 138.783 84.0303 138.787 84.0303C138.791 84.0303 138.795 84.0303 138.799 84.0303C138.803 84.0303 138.807 84.0303 138.811 84.0303C138.815 84.0303 138.819 84.0303 138.823 84.0303C138.827 84.0303 138.831 84.0303 138.835 84.0303C138.839 84.0303 138.843 84.0303 138.847 84.0303C138.851 84.0303 138.855 84.0303 138.859 84.0303C138.863 84.0303 138.867 84.0303 138.871 84.0303C138.875 84.0303 138.879 84.0303 138.883 84.0303C138.887 84.0303 138.891 84.0303 138.895 84.0303C138.899 84.0303 138.903 84.0303 138.907 84.0303C138.911 84.0303 138.915 84.0303 138.919 84.0303C138.923 84.0303 138.927 84.0303 138.931 84.0303C138.935 84.0303 138.939 84.0303 138.943 84.0303C138.947 84.0303 138.951 84.0303 138.955 84.0303C138.959 84.0303 138.963 84.0303 138.967 84.0303C138.971 84.0303 138.975 84.0303 138.979 84.0303C138.983 84.0303 138.987 84.0303 138.991 84.0303C138.995 84.0303 138.999 84.0303 139.003 84.0303C139.007 84.0303 139.011 84.0303 139.015 84.0303C139.019 84.0303 139.023 84.0303 139.027 84.0303C139.031 84.0303 139.035 84.0303 139.039 84.0303C139.043 84.0303 139.047 84.0303 139.051 84.0303C139.055 84.0303 139.059 84.0303 139.063 84.0303C139.067 84.0303 139.071 84.0303 139.075 84.0303C139.079 84.0303 139.083 84.0303 139.087 84.0303C139.091 84.0303 139.095 84.0303 139.099 84.0303C139.103 84.0303 139.107 84.0303 139.111 84.0303C139.115 84.0303 139.118 84.0303 139.122 84.0303C139.126 84.0303 139.13 84.0303 139.134 84.0303C139.138 84.0303 139.142 84.0303 139.146 84.0303C139.15 84.0303 139.154 84.0303 139.158 84.0303C139.162 84.0303 139.166 84.0303 139.17 84.0303C139.174 84.0303 139.178 84.0303 139.182 84.0303C139.186 84.0303 139.19 84.0303 139.194 84.0303C139.198 84.0303 139.201 84.0303 139.205 84.0303C139.209 84.0303 139.213 84.0303 139.217 84.0303C139.221 84.0303 139.225 84.0303 139.229 84.0303C139.233 84.0303 139.237 84.0303 139.241 84.0303C139.245 84.0303 139.249 84.0303 139.253 84.0303C139.256 84.0303 139.26 84.0303 139.264 84.0303C139.268 84.0303 139.272 84.0303 139.276 84.0303C139.28 84.0303 139.284 84.0303 139.288 84.0303C139.292 84.0303 139.296 84.0303 139.299 84.0303C139.303 84.0303 139.307 84.0303 139.311 84.0303C139.315 84.0303 139.319 84.0303 139.323 84.0303C139.327 84.0303 139.331 84.0303 139.334 84.0303C139.338 84.0303 139.342 84.0303 139.346 84.0303C139.35 84.0303 139.354 84.0303 139.358 84.0303C139.362 84.0303 139.365 84.0303 139.369 84.0303C139.373 84.0303 139.377 84.0303 139.381 84.0303C139.385 84.0303 139.389 84.0303 139.392 84.0303C139.396 84.0303 139.4 84.0303 139.404 84.0303C139.408 84.0303 139.412 84.0303 139.416 84.0303C139.419 84.0303 139.423 84.0303 139.427 84.0303C139.431 84.0303 139.435 84.0303 139.439 84.0303C139.442 84.0303 139.446 84.0303 139.45 84.0303C139.454 84.0303 139.458 84.0303 139.461 84.0303C139.465 84.0303 139.469 84.0303 139.473 84.0303C139.477 84.0303 139.481 84.0303 139.484 84.0303C139.488 84.0303 139.492 84.0303 139.496 84.0303C139.499 84.0303 139.503 84.0303 139.507 84.0303C139.511 84.0303 139.515 84.0303 139.518 84.0303C139.522 84.0303 139.526 84.0303 139.53 84.0303C139.534 84.0303 139.537 84.0303 139.541 84.0303C139.545 84.0303 139.549 84.0303 139.552 84.0303C139.556 84.0303 139.56 84.0303 139.564 84.0303C139.567 84.0303 139.571 84.0303 139.575 84.0303C139.579 84.0303 139.582 84.0303 139.586 84.0303C139.59 84.0303 139.594 84.0303 139.597 84.0303C139.601 84.0303 139.605 84.0303 139.608 84.0303C139.612 84.0303 139.616 84.0303 139.62 84.0303C139.623 84.0303 139.627 84.0303 139.631 84.0303C139.634 84.0303 139.638 84.0303 139.642 84.0303C139.645 84.0303 139.649 84.0303 139.653 84.0303C139.656 84.0303 139.66 84.0303 139.664 84.0303C139.668 84.0303 139.671 84.0303 139.675 84.0303C139.679 84.0303 139.682 84.0303 139.686 84.0303C139.689 84.0303 139.693 84.0303 139.697 84.0303C139.7 84.0303 139.704 84.0303 139.708 84.0303C139.711 84.0303 139.715 84.0303 139.719 84.0303C139.722 84.0303 139.726 84.0303 139.73 84.0303C139.733 84.0303 139.737 84.0303 139.74 84.0303C139.744 84.0303 139.748 84.0303 139.751 84.0303C139.755 84.0303 139.758 84.0303 139.762 84.0303C139.766 84.0303 139.769 84.0303 139.773 84.0303C139.776 84.0303 139.78 84.0303 139.783 84.0303C139.787 84.0303 139.791 84.0303 139.794 84.0303C139.798 84.0303 139.801 84.0303 139.805 84.0303C139.808 84.0303 139.812 84.0303 139.815 84.0303C139.819 84.0303 139.823 84.0303 139.826 84.0303C139.83 84.0303 139.833 84.0303 139.837 84.0303C139.84 84.0303 139.844 84.0303 139.847 84.0303C139.851 84.0303 139.854 84.0303 139.858 84.0303C139.861 84.0303 139.865 84.0303 139.868 84.0303C139.872 84.0303 139.875 84.0303 139.879 84.0303C139.882 84.0303 139.886 84.0303 139.889 84.0303C139.892 84.0303 139.896 84.0303 139.899 84.0303C139.903 84.0303 139.906 84.0303 139.91 84.0303C139.913 84.0303 139.917 84.0303 139.92 84.0303C139.923 84.0303 139.927 84.0303 139.93 84.0303C139.934 84.0303 139.937 84.0303 139.941 84.0303C139.944 84.0303 139.947 84.0303 139.951 84.0303C139.954 84.0303 139.958 84.0303 139.961 84.0303C139.964 84.0303 139.968 84.0303 139.971 84.0303C139.974 84.0303 139.978 84.0303 139.981 84.0303C139.985 84.0303 139.988 84.0303 139.991 84.0303C139.995 84.0303 139.998 84.0303 140.001 84.0303C140.005 84.0303 140.008 84.0303 140.011 84.0303C140.015 84.0303 140.018 84.0303 140.021 84.0303C140.024 84.0303 140.028 84.0303 140.031 84.0303C140.034 84.0303 140.038 84.0303 140.041 84.0303C140.044 84.0303 140.048 84.0303 140.051 84.0303C140.054 84.0303 140.057 84.0303 140.061 84.0303C140.064 84.0303 140.067 84.0303 140.07 84.0303C140.074 84.0303 140.077 84.0303 140.08 84.0303C140.083 84.0303 140.086 84.0303 140.09 84.0303C140.093 84.0303 140.096 84.0303 140.099 84.0303C140.103 84.0303 140.106 84.0303 140.109 84.0303C140.112 84.0303 140.115 84.0303 140.118 84.0303C140.122 84.0303 140.125 84.0303 140.128 84.0303C140.131 84.0303 140.134 84.0303 140.137 84.0303C140.141 84.0303 140.144 84.0303 140.147 84.0303C140.15 84.0303 140.153 84.0303 140.156 84.0303C140.159 84.0303 140.163 84.0303 140.166 84.0303C140.169 84.0303 140.172 84.0303 140.175 84.0303C140.178 84.0303 140.181 84.0303 140.184 84.0303C140.187 84.0303 140.19 84.0303 140.193 84.0303C140.196 84.0303 140.2 84.0303 140.203 84.0303C140.206 84.0303 140.209 84.0303 140.212 84.0303C140.215 84.0303 140.218 84.0303 140.221 84.0303C140.224 84.0303 140.227 84.0303 140.23 84.0303C140.233 84.0303 140.236 84.0303 140.239 84.0303C140.242 84.0303 140.245 84.0303 140.248 84.0303C140.251 84.0303 140.254 84.0303 140.257 84.0303C140.26 84.0303 140.263 84.0303 140.265 84.0303C140.268 84.0303 140.271 84.0303 140.274 84.0303C140.277 84.0303 140.28 84.0303 140.283 84.0303C140.286 84.0303 140.289 84.0303 140.292 84.0303C140.295 84.0303 140.297 84.0303 140.3 84.0303C140.303 84.0303 140.306 84.0303 140.309 84.0303C140.312 84.0303 140.315 84.0303 140.318 84.0303C140.32 84.0303 140.323 84.0303 140.326 84.0303C140.329 84.0303 140.332 84.0303 140.335 84.0303C140.337 84.0303 140.34 84.0303 140.343 84.0303C140.346 84.0303 140.349 84.0303 140.351 84.0303C140.354 84.0303 140.357 84.0303 140.36 84.0303C140.362 84.0303 140.365 84.0303 140.368 84.0303C140.371 84.0303 140.373 84.0303 140.376 84.0303C140.379 84.0303 140.382 84.0303 140.384 84.0303C140.387 84.0303 140.39 84.0303 140.392 84.0303C140.395 84.0303 140.398 84.0303 140.4 84.0303C140.403 84.0303 140.406 84.0303 140.408 84.0303C140.411 84.0303 140.414 84.0303 140.416 84.0303C140.419 84.0303 140.422 84.0303 140.424 84.0303C140.427 84.0303 140.43 84.0303 140.432 84.0303C140.435 84.0303 140.437 84.0303 140.44 84.0303C140.442 84.0303 140.445 84.0303 140.448 84.0303C140.45 84.0303 140.453 84.0303 140.455 84.0303C140.458 84.0303 140.46 84.0303 140.463 84.0303C140.465 84.0303 140.468 84.0303 140.471 84.0303C140.473 84.0303 140.476 84.0303 140.478 84.0303C140.481 84.0303 140.483 84.0303 140.486 84.0303C140.488 84.0303 140.49 84.0303 140.493 84.0303C140.495 84.0303 140.498 84.0303 140.5 84.0303C140.503 84.0303 140.505 84.0303 140.508 84.0303C140.51 84.0303 140.512 84.0303 140.515 84.0303C140.517 84.0303 140.52 84.0303 140.522 84.0303C140.524 84.0303 140.527 84.0303 140.529 84.0303C140.531 84.0303 140.534 84.0303 140.536 84.0303C140.538 84.0303 140.541 84.0303 140.543 84.0303C140.545 84.0303 140.548 84.0303 140.55 84.0303C140.552 84.0303 140.555 84.0303 140.557 84.0303C140.559 84.0303 140.562 84.0303 140.564 84.0303C140.566 84.0303 140.568 84.0303 140.571 84.0303C140.573 84.0303 140.575 84.0303 140.577 84.0303C140.579 84.0303 140.582 84.0303 140.584 84.0303C140.586 84.0303 140.588 84.0303 140.591 84.0303C140.593 84.0303 140.595 84.0303 140.597 84.0303C140.599 84.0303 140.601 84.0303 140.603 84.0303C140.606 84.0303 140.608 84.0303 140.61 84.0303C140.612 84.0303 140.614 84.0303 140.616 84.0303C140.618 84.0303 140.62 84.0303 140.622 84.0303C140.625 84.0303 140.627 84.0303 140.629 84.0303C140.631 84.0303 140.633 84.0303 140.635 84.0303C140.637 84.0303 140.639 84.0303 140.641 84.0303C140.643 84.0303 140.645 84.0303 140.647 84.0303C140.649 84.0303 140.651 84.0303 140.653 84.0303C140.655 84.0303 140.657 84.0303 140.659 84.0303C140.661 84.0303 140.663 84.0303 140.665 84.0303C140.667 84.0303 140.668 84.0303 140.67 84.0303C140.672 84.0303 140.674 84.0303 140.676 84.0303C140.678 84.0303 140.68 84.0303 140.682 84.0303C140.684 84.0303 140.685 84.0303 140.687 84.0303C140.689 84.0303 140.691 84.0303 140.693 84.0303C140.695 84.0303 140.696 84.0303 140.698 84.0303C140.7 84.0303 140.702 84.0303 140.704 84.0303C140.705 84.0303 140.707 84.0303 140.709 84.0303C140.711 84.0303 140.712 84.0303 140.714 84.0303C140.716 84.0303 140.718 84.0303 140.719 84.0303C140.721 84.0303 140.723 84.0303 140.724 84.0303C140.726 84.0303 140.728 84.0303 140.729 84.0303C140.731 84.0303 140.733 84.0303 140.734 84.0303C140.736 84.0303 140.738 84.0303 140.739 84.0303C140.741 84.0303 140.742 84.0303 140.744 84.0303C140.746 84.0303 140.747 84.0303 140.749 84.0303C140.75 84.0303 140.752 84.0303 140.753 84.0303C140.755 84.0303 140.756 84.0303 140.758 84.0303C140.76 84.0303 140.761 84.0303 140.763 84.0303C140.764 84.0303 140.766 84.0303 140.767 84.0303C140.768 84.0303 140.77 84.0303 140.771 84.0303C140.773 84.0303 140.774 84.0303 140.776 84.0303C140.777 84.0303 140.779 84.0303 140.78 84.0303C140.781 84.0303 140.783 84.0303 140.784 84.0303C140.785 84.0303 140.787 84.0303 140.788 84.0303C140.79 84.0303 140.791 84.0303 140.792 84.0303C140.794 84.0303 140.795 84.0303 140.796 84.0303C140.797 84.0303 140.799 84.0303 140.8 84.0303C140.801 84.0303 140.803 84.0303 140.804 84.0303C140.805 84.0303 140.806 84.0303 140.808 84.0303C140.809 84.0303 140.81 84.0303 140.811 84.0303C140.812 84.0303 140.814 84.0303 140.815 84.0303C140.816 84.0303 140.817 84.0303 140.818 84.0303C140.819 84.0303 140.82 84.0303 140.822 84.0303C140.823 84.0303 140.824 84.0303 140.825 84.0303C140.826 84.0303 140.827 84.0303 140.828 84.0303C140.829 84.0303 140.83 84.0303 140.831 84.0303C140.832 84.0303 140.833 84.0303 140.835 84.0303C140.836 84.0303 140.837 84.0303 140.838 84.0303C140.839 84.0303 140.84 84.0303 140.84 84.0303C140.841 84.0303 140.842 84.0303 140.843 84.0303C140.844 84.0303 140.845 84.0303 140.846 84.0303C140.847 84.0303 140.848 84.0303 140.849 84.0303C140.85 84.0303 140.851 84.0303 140.851 84.0303C140.852 84.0303 140.853 84.0303 140.854 84.0303C140.855 84.0303 140.856 84.0303 140.856 84.0303C140.857 84.0303 140.858 84.0303 140.859 84.0303C140.86 84.0303 140.86 84.0303 140.861 84.0303C140.862 84.0303 140.863 84.0303 140.863 84.0303C140.864 84.0303 140.865 84.0303 140.866 84.0303C140.866 84.0303 140.867 84.0303 140.868 84.0303C140.868 84.0303 140.869 84.0303 140.87 84.0303C140.87 84.0303 140.871 84.0303 140.871 84.0303C140.872 84.0303 140.873 84.0303 140.873 84.0303C140.874 84.0303 140.874 84.0303 140.875 84.0303V150.697ZM136.625 117.364C169.933 118.662 169.933 118.663 169.933 118.665C169.933 118.665 169.933 118.667 169.933 118.667C169.933 118.669 169.933 118.671 169.933 118.673C169.932 118.677 169.932 118.681 169.932 118.685C169.932 118.693 169.931 118.7 169.931 118.709C169.931 118.725 169.93 118.742 169.929 118.759C169.928 118.794 169.926 118.832 169.924 118.873C169.921 118.954 169.916 119.047 169.911 119.15C169.9 119.352 169.885 119.622 169.862 119.939C169.836 120.312 169.736 121.731 169.449 123.449L103.693 112.468C103.446 113.947 103.374 115.068 103.364 115.203C103.35 115.402 103.34 115.568 103.334 115.695C103.33 115.762 103.327 115.826 103.324 115.886C103.323 115.916 103.322 115.946 103.321 115.976C103.32 115.991 103.319 116.006 103.319 116.021C103.318 116.028 103.318 116.036 103.318 116.043C103.318 116.047 103.318 116.05 103.317 116.054C103.317 116.056 103.317 116.058 103.317 116.06C103.317 116.061 103.317 116.062 103.317 116.063C103.317 116.064 103.317 116.065 136.625 117.364ZM169.449 123.447C169.065 125.753 168.414 128.33 167.355 131.049L105.236 106.847C104.472 108.808 103.987 110.708 103.693 112.47L169.449 123.447ZM167.355 131.048C165.158 136.689 161.485 142.191 156.17 146.739L112.828 96.0835C109.408 99.0101 106.831 102.753 105.236 106.848L167.355 131.048ZM156.17 146.739C145.808 155.604 133.381 157.515 123.875 157.515V90.8485C125.448 90.8485 119.46 90.4092 112.829 96.0834L156.17 146.739ZM123.875 157.515H114.909V90.8485H123.875V157.515ZM147.368 131.769L144.18 145.405L79.2633 130.231L82.4508 116.595L147.368 131.769ZM111.722 104.485H113.25V171.152H111.722V104.485ZM113.25 104.485C137.255 104.485 152.958 124.607 152.958 144.636H86.2917C86.2917 157.135 96.2867 171.152 113.25 171.152V104.485ZM152.958 144.636V149.182H86.2917V144.636H152.958ZM152.958 149.182C152.958 169.211 137.255 189.333 113.25 189.333V122.667C96.2867 122.667 86.2917 136.684 86.2917 149.182H152.958ZM113.25 189.333H98.375V122.667H113.25V189.333ZM98.375 189.333C74.3698 189.333 58.6667 169.211 58.6667 149.182H125.333C125.333 136.684 115.338 122.667 98.375 122.667V189.333ZM58.6667 149.182V143.36H125.333V149.182H58.6667ZM58.6667 143.36C58.6667 124.984 72.1524 106.722 93.5097 104.661L99.9113 171.02C115.987 169.469 125.333 155.955 125.333 143.36H58.6667ZM64.2521 130.253L67.445 116.595L132.362 131.769L129.169 145.428L64.2521 130.253ZM99.9033 157.515H98.375V90.8485H99.9033V157.515ZM98.375 157.515C74.3695 157.515 58.6667 137.393 58.6667 117.364H125.333C125.333 104.866 115.339 90.8485 98.375 90.8485V157.515ZM58.6667 117.364V112.818H125.333V117.364H58.6667ZM58.6667 112.818C58.6667 92.7891 74.3695 72.6667 98.375 72.6667V139.333C115.339 139.333 125.333 125.316 125.333 112.818H58.6667ZM98.375 72.6667H123.875V139.333H98.375V72.6667ZM123.875 72.6667C133.381 72.6667 145.808 74.5774 156.17 83.4431L112.829 134.098C119.46 139.773 125.448 139.333 123.875 139.333V72.6667ZM156.17 83.4432C161.485 87.9906 165.157 93.4925 167.355 99.1339L105.236 123.334C106.831 127.429 109.408 131.172 112.828 134.098L156.17 83.4432ZM167.355 99.1334C168.414 101.852 169.065 104.429 169.449 106.735L103.693 117.712C103.987 119.474 104.472 121.374 105.236 123.334L167.355 99.1334ZM169.449 106.733C169.832 109.023 169.907 110.884 169.93 111.44L103.32 114.196C103.327 114.352 103.377 115.82 103.693 117.714L169.449 106.733ZM136.625 79.4848H140.875V146.152H136.625V79.4848ZM140.875 79.4848C162.533 79.4848 176.333 97.572 176.333 115.091H109.667C109.667 130.099 121.564 146.152 140.875 146.152V79.4848ZM176.333 115.091C176.333 132.61 162.533 150.697 140.875 150.697V84.0303C121.564 84.0303 109.667 100.082 109.667 115.091H176.333ZM163.503 129.116L163.5 129.123L101.245 105.277L101.247 105.27L163.503 129.116ZM163.431 129.303C161.503 134.249 158.263 139.127 153.515 143.19L110.174 92.5337C108.328 94.1129 106.541 96.0286 104.949 98.299C103.306 100.641 102.14 102.976 101.314 105.096L163.431 129.303ZM153.515 143.19C145.6 149.962 136.213 152.256 128.366 152.814L123.634 86.3158C122.925 86.3663 116.748 86.9091 110.174 92.5337L153.515 143.19ZM92.6667 119.565V110.617H159.333V119.565H92.6667ZM128.366 77.3675C136.213 77.9258 145.6 80.2203 153.515 86.9922L110.174 137.648C116.748 143.273 122.925 143.816 123.634 143.866L128.366 77.3675ZM153.515 86.9922C158.263 91.055 161.503 95.933 163.431 100.879L101.314 125.085C102.14 127.206 103.306 129.541 104.949 131.883C106.541 134.153 108.328 136.069 110.174 137.648L153.515 86.9922ZM163.5 101.059L163.503 101.066L101.247 124.912L101.245 124.905L163.5 101.059ZM165.708 112.989V117.193H99.0417V112.989H165.708ZM155.083 110.545V119.636H88.4167V110.545H155.083ZM121.75 152.97H114.909V86.303H121.75V152.97ZM114.909 152.97C129.851 152.97 140.523 142.31 143.244 130.667L78.3278 115.492C81.9956 99.8015 96.0666 86.303 114.909 86.303V152.97ZM143.244 130.667L140.057 144.303L75.1402 129.129L78.3277 115.492L143.244 130.667ZM140.057 144.303C143.613 129.089 133.246 109.03 111.722 109.03V175.697C84.6677 175.697 70.2424 150.08 75.1403 129.128L140.057 144.303ZM111.722 109.03H113.25V175.697H111.722V109.03ZM113.25 109.03C134.908 109.03 148.708 127.117 148.708 144.636H82.0417C82.0417 159.645 93.9394 175.697 113.25 175.697V109.03ZM148.708 144.636V149.182H82.0417V144.636H148.708ZM148.708 149.182C148.708 166.701 134.908 184.788 113.25 184.788V118.121C93.9394 118.121 82.0417 134.173 82.0417 149.182H148.708ZM113.25 184.788H98.375V118.121H113.25V184.788ZM98.375 184.788C76.7171 184.788 62.9167 166.701 62.9167 149.182H129.583C129.583 134.173 117.686 118.121 98.375 118.121V184.788ZM62.9167 149.182V143.36H129.583V149.182H62.9167ZM62.9167 143.36C62.9167 126.546 76.1829 109.03 97.1816 109.03V175.697C117.151 175.697 129.583 159.074 129.583 143.36H62.9167ZM97.1816 109.03C81.9682 109.03 71.0559 119.887 68.2673 131.818L133.184 146.99C129.583 162.4 115.748 175.697 97.1816 175.697V109.03ZM68.2675 131.817L71.5681 117.697L136.485 132.871L133.184 146.991L68.2675 131.817ZM71.5682 117.696C68.0114 132.911 78.3799 152.97 99.9033 152.97V86.303C126.957 86.303 141.383 111.919 136.485 132.872L71.5682 117.696ZM99.9033 152.97H98.375V86.303H99.9033V152.97ZM98.375 152.97C76.7167 152.97 62.9167 134.882 62.9167 117.364H129.583C129.583 102.355 117.686 86.303 98.375 86.303V152.97ZM62.9167 117.364V112.818H129.583V117.364H62.9167ZM62.9167 112.818C62.9167 95.2996 76.7167 77.2121 98.375 77.2121V143.879C117.686 143.879 129.583 127.826 129.583 112.818H62.9167ZM98.375 77.2121H121.75V143.879H98.375V77.2121Z" fill="black" mask="url(#path-4-inside-1_47_9)"/>
</svg>
