<svg width="515" height="75" viewBox="0 0 515 75" fill="none" xmlns="http://www.w3.org/2000/svg">
<path d="M88.7 47.35C86.8333 47.35 85.095 47.0467 83.485 46.44C81.8983 45.81 80.51 44.935 79.32 43.815C78.1533 42.6717 77.2433 41.33 76.59 39.79C75.9367 38.25 75.61 36.57 75.61 34.75C75.61 32.93 75.9367 31.25 76.59 29.71C77.2433 28.17 78.165 26.84 79.355 25.72C80.545 24.5767 81.9333 23.7017 83.52 23.095C85.1067 22.465 86.845 22.15 88.735 22.15C90.7417 22.15 92.5733 22.5 94.23 23.2C95.8867 23.8767 97.2867 24.8917 98.43 26.245L95.49 29.01C94.6033 28.0533 93.6117 27.3417 92.515 26.875C91.4183 26.385 90.2283 26.14 88.945 26.14C87.6617 26.14 86.4833 26.35 85.41 26.77C84.36 27.19 83.4383 27.785 82.645 28.555C81.875 29.325 81.2683 30.235 80.825 31.285C80.405 32.335 80.195 33.49 80.195 34.75C80.195 36.01 80.405 37.165 80.825 38.215C81.2683 39.265 81.875 40.175 82.645 40.945C83.4383 41.715 84.36 42.31 85.41 42.73C86.4833 43.15 87.6617 43.36 88.945 43.36C90.2283 43.36 91.4183 43.1267 92.515 42.66C93.6117 42.17 94.6033 41.435 95.49 40.455L98.43 43.255C97.2867 44.585 95.8867 45.6 94.23 46.3C92.5733 47 90.73 47.35 88.7 47.35ZM104.487 47V30.97L105.502 32.02H97.9069V28.31H115.407V32.02H107.847L108.862 30.97V47H104.487ZM127.89 47.245C126.374 47.245 124.985 46.895 123.725 46.195C122.489 45.495 121.497 44.445 120.75 43.045C120.027 41.6217 119.665 39.825 119.665 37.655C119.665 35.4617 120.015 33.665 120.715 32.265C121.439 30.865 122.419 29.8267 123.655 29.15C124.892 28.45 126.304 28.1 127.89 28.1C129.734 28.1 131.355 28.4967 132.755 29.29C134.179 30.0833 135.299 31.1917 136.115 32.615C136.955 34.0383 137.375 35.7183 137.375 37.655C137.375 39.5917 136.955 41.2833 136.115 42.73C135.299 44.1533 134.179 45.2617 132.755 46.055C131.355 46.8483 129.734 47.245 127.89 47.245ZM117.53 53.79V28.31H121.695V32.72L121.555 37.69L121.905 42.66V53.79H117.53ZM127.4 43.5C128.45 43.5 129.384 43.2667 130.2 42.8C131.04 42.3333 131.705 41.6567 132.195 40.77C132.685 39.8833 132.93 38.845 132.93 37.655C132.93 36.4417 132.685 35.4033 132.195 34.54C131.705 33.6533 131.04 32.9767 130.2 32.51C129.384 32.0433 128.45 31.81 127.4 31.81C126.35 31.81 125.405 32.0433 124.565 32.51C123.725 32.9767 123.06 33.6533 122.57 34.54C122.08 35.4033 121.835 36.4417 121.835 37.655C121.835 38.845 122.08 39.8833 122.57 40.77C123.06 41.6567 123.725 42.3333 124.565 42.8C125.405 43.2667 126.35 43.5 127.4 43.5ZM149.01 47.245C147.096 47.245 145.393 46.8367 143.9 46.02C142.406 45.18 141.228 44.0367 140.365 42.59C139.501 41.1433 139.07 39.4983 139.07 37.655C139.07 35.7883 139.501 34.1433 140.365 32.72C141.228 31.2733 142.406 30.1417 143.9 29.325C145.393 28.5083 147.096 28.1 149.01 28.1C150.946 28.1 152.661 28.5083 154.155 29.325C155.671 30.1417 156.85 31.2617 157.69 32.685C158.553 34.1083 158.985 35.765 158.985 37.655C158.985 39.4983 158.553 41.1433 157.69 42.59C156.85 44.0367 155.671 45.18 154.155 46.02C152.661 46.8367 150.946 47.245 149.01 47.245ZM149.01 43.5C150.083 43.5 151.04 43.2667 151.88 42.8C152.72 42.3333 153.373 41.6567 153.84 40.77C154.33 39.8833 154.575 38.845 154.575 37.655C154.575 36.4417 154.33 35.4033 153.84 34.54C153.373 33.6533 152.72 32.9767 151.88 32.51C151.04 32.0433 150.095 31.81 149.045 31.81C147.971 31.81 147.015 32.0433 146.175 32.51C145.358 32.9767 144.705 33.6533 144.215 34.54C143.725 35.4033 143.48 36.4417 143.48 37.655C143.48 38.845 143.725 39.8833 144.215 40.77C144.705 41.6567 145.358 42.3333 146.175 42.8C147.015 43.2667 147.96 43.5 149.01 43.5ZM162.257 47V28.31H166.632V40.63L176.957 28.31H180.947V47H176.572V34.68L166.282 47H162.257ZM189.667 47V30.97L190.682 32.02H183.087V28.31H200.587V32.02H193.027L194.042 30.97V47H189.667ZM210.605 47.245C208.528 47.245 206.708 46.8367 205.145 46.02C203.605 45.18 202.403 44.0367 201.54 42.59C200.7 41.1433 200.28 39.4983 200.28 37.655C200.28 35.7883 200.688 34.1433 201.505 32.72C202.345 31.2733 203.488 30.1417 204.935 29.325C206.405 28.5083 208.073 28.1 209.94 28.1C211.76 28.1 213.382 28.4967 214.805 29.29C216.228 30.0833 217.348 31.2033 218.165 32.65C218.982 34.0967 219.39 35.8 219.39 37.76C219.39 37.9467 219.378 38.1567 219.355 38.39C219.355 38.6233 219.343 38.845 219.32 39.055H203.745V36.15H217.01L215.295 37.06C215.318 35.9867 215.097 35.0417 214.63 34.225C214.163 33.4083 213.522 32.7667 212.705 32.3C211.912 31.8333 210.99 31.6 209.94 31.6C208.867 31.6 207.922 31.8333 207.105 32.3C206.312 32.7667 205.682 33.42 205.215 34.26C204.772 35.0767 204.55 36.045 204.55 37.165V37.865C204.55 38.985 204.807 39.9767 205.32 40.84C205.833 41.7033 206.557 42.3683 207.49 42.835C208.423 43.3017 209.497 43.535 210.71 43.535C211.76 43.535 212.705 43.3717 213.545 43.045C214.385 42.7183 215.132 42.205 215.785 41.505L218.13 44.2C217.29 45.18 216.228 45.9383 214.945 46.475C213.685 46.9883 212.238 47.245 210.605 47.245ZM220.156 46.965L220.366 43.29C220.529 43.3133 220.681 43.3367 220.821 43.36C220.961 43.3833 221.089 43.395 221.206 43.395C221.929 43.395 222.489 43.1733 222.886 42.73C223.283 42.2867 223.574 41.6917 223.761 40.945C223.971 40.175 224.111 39.3233 224.181 38.39C224.274 37.4333 224.344 36.4767 224.391 35.52L224.706 28.31H239.826V47H235.451V30.83L236.466 32.02H227.576L228.521 30.795L228.276 35.73C228.206 37.3867 228.066 38.9267 227.856 40.35C227.669 41.75 227.366 42.975 226.946 44.025C226.549 45.075 225.989 45.8917 225.266 46.475C224.566 47.0583 223.668 47.35 222.571 47.35C222.221 47.35 221.836 47.315 221.416 47.245C221.019 47.175 220.599 47.0817 220.156 46.965ZM254.048 34.47C256.451 34.47 258.283 35.0067 259.543 36.08C260.803 37.1533 261.433 38.67 261.433 40.63C261.433 42.66 260.733 44.2467 259.333 45.39C257.933 46.51 255.961 47.0583 253.418 47.035L244.668 47V28.31H249.043V34.435L254.048 34.47ZM253.033 43.815C254.316 43.8383 255.296 43.57 255.973 43.01C256.65 42.45 256.988 41.6333 256.988 40.56C256.988 39.4867 256.65 38.7167 255.973 38.25C255.32 37.76 254.34 37.5033 253.033 37.48L249.043 37.445V43.78L253.033 43.815ZM272.733 47.245C270.773 47.245 269.023 46.8367 267.483 46.02C265.967 45.18 264.777 44.0367 263.913 42.59C263.05 41.1433 262.618 39.4983 262.618 37.655C262.618 35.7883 263.05 34.1433 263.913 32.72C264.777 31.2733 265.967 30.1417 267.483 29.325C269.023 28.5083 270.773 28.1 272.733 28.1C274.553 28.1 276.152 28.4733 277.528 29.22C278.928 29.9433 279.99 31.0167 280.713 32.44L277.353 34.4C276.793 33.5133 276.105 32.86 275.288 32.44C274.495 32.02 273.632 31.81 272.698 31.81C271.625 31.81 270.657 32.0433 269.793 32.51C268.93 32.9767 268.253 33.6533 267.763 34.54C267.273 35.4033 267.028 36.4417 267.028 37.655C267.028 38.8683 267.273 39.9183 267.763 40.805C268.253 41.6683 268.93 42.3333 269.793 42.8C270.657 43.2667 271.625 43.5 272.698 43.5C273.632 43.5 274.495 43.29 275.288 42.87C276.105 42.45 276.793 41.7967 277.353 40.91L280.713 42.87C279.99 44.27 278.928 45.355 277.528 46.125C276.152 46.8717 274.553 47.245 272.733 47.245ZM287.263 47V30.97L288.278 32.02H280.683V28.31H298.183V32.02H290.623L291.638 30.97V47H287.263ZM300.307 47V28.31H309.442C311.705 28.31 313.479 28.73 314.762 29.57C316.069 30.41 316.722 31.6 316.722 33.14C316.722 34.6567 316.115 35.8467 314.902 36.71C313.689 37.55 312.079 37.97 310.072 37.97L310.597 36.885C312.86 36.885 314.54 37.305 315.637 38.145C316.757 38.9617 317.317 40.1633 317.317 41.75C317.317 43.4067 316.699 44.7017 315.462 45.635C314.225 46.545 312.347 47 309.827 47H300.307ZM304.472 43.815H309.477C310.667 43.815 311.565 43.6283 312.172 43.255C312.779 42.8583 313.082 42.2633 313.082 41.47C313.082 40.63 312.802 40.0117 312.242 39.615C311.682 39.2183 310.807 39.02 309.617 39.02H304.472V43.815ZM304.472 36.115H309.057C310.177 36.115 311.017 35.9167 311.577 35.52C312.16 35.1 312.452 34.5167 312.452 33.77C312.452 33 312.16 32.4283 311.577 32.055C311.017 31.6817 310.177 31.495 309.057 31.495H304.472V36.115ZM329.257 47.245C327.344 47.245 325.64 46.8367 324.147 46.02C322.654 45.18 321.475 44.0367 320.612 42.59C319.749 41.1433 319.317 39.4983 319.317 37.655C319.317 35.7883 319.749 34.1433 320.612 32.72C321.475 31.2733 322.654 30.1417 324.147 29.325C325.64 28.5083 327.344 28.1 329.257 28.1C331.194 28.1 332.909 28.5083 334.402 29.325C335.919 30.1417 337.097 31.2617 337.937 32.685C338.8 34.1083 339.232 35.765 339.232 37.655C339.232 39.4983 338.8 41.1433 337.937 42.59C337.097 44.0367 335.919 45.18 334.402 46.02C332.909 46.8367 331.194 47.245 329.257 47.245ZM329.257 43.5C330.33 43.5 331.287 43.2667 332.127 42.8C332.967 42.3333 333.62 41.6567 334.087 40.77C334.577 39.8833 334.822 38.845 334.822 37.655C334.822 36.4417 334.577 35.4033 334.087 34.54C333.62 33.6533 332.967 32.9767 332.127 32.51C331.287 32.0433 330.342 31.81 329.292 31.81C328.219 31.81 327.262 32.0433 326.422 32.51C325.605 32.9767 324.952 33.6533 324.462 34.54C323.972 35.4033 323.727 36.4417 323.727 37.655C323.727 38.845 323.972 39.8833 324.462 40.77C324.952 41.6567 325.605 42.3333 326.422 42.8C327.262 43.2667 328.207 43.5 329.257 43.5ZM351.127 47V28.31H355.502V40.63L365.827 28.31H369.817V47H365.442V34.68L355.152 47H351.127ZM393.635 47.245C392.118 47.245 390.73 46.895 389.47 46.195C388.233 45.495 387.241 44.445 386.495 43.045C385.771 41.6217 385.41 39.825 385.41 37.655C385.41 35.4617 385.76 33.665 386.46 32.265C387.183 30.865 388.163 29.8267 389.4 29.15C390.636 28.45 392.048 28.1 393.635 28.1C395.478 28.1 397.1 28.4967 398.5 29.29C399.923 30.0833 401.043 31.1917 401.86 32.615C402.7 34.0383 403.12 35.7183 403.12 37.655C403.12 39.5917 402.7 41.2833 401.86 42.73C401.043 44.1533 399.923 45.2617 398.5 46.055C397.1 46.8483 395.478 47.245 393.635 47.245ZM383.275 53.79V28.31H387.44V32.72L387.3 37.69L387.65 42.66V53.79H383.275ZM393.145 43.5C394.195 43.5 395.128 43.2667 395.945 42.8C396.785 42.3333 397.45 41.6567 397.94 40.77C398.43 39.8833 398.675 38.845 398.675 37.655C398.675 36.4417 398.43 35.4033 397.94 34.54C397.45 33.6533 396.785 32.9767 395.945 32.51C395.128 32.0433 394.195 31.81 393.145 31.81C392.095 31.81 391.15 32.0433 390.31 32.51C389.47 32.9767 388.805 33.6533 388.315 34.54C387.825 35.4033 387.58 36.4417 387.58 37.655C387.58 38.845 387.825 39.8833 388.315 40.77C388.805 41.6567 389.47 42.3333 390.31 42.8C391.15 43.2667 392.095 43.5 393.145 43.5ZM415.139 47.245C413.062 47.245 411.242 46.8367 409.679 46.02C408.139 45.18 406.937 44.0367 406.074 42.59C405.234 41.1433 404.814 39.4983 404.814 37.655C404.814 35.7883 405.222 34.1433 406.039 32.72C406.879 31.2733 408.022 30.1417 409.469 29.325C410.939 28.5083 412.607 28.1 414.474 28.1C416.294 28.1 417.916 28.4967 419.339 29.29C420.762 30.0833 421.882 31.2033 422.699 32.65C423.516 34.0967 423.924 35.8 423.924 37.76C423.924 37.9467 423.912 38.1567 423.889 38.39C423.889 38.6233 423.877 38.845 423.854 39.055H408.279V36.15H421.544L419.829 37.06C419.852 35.9867 419.631 35.0417 419.164 34.225C418.697 33.4083 418.056 32.7667 417.239 32.3C416.446 31.8333 415.524 31.6 414.474 31.6C413.401 31.6 412.456 31.8333 411.639 32.3C410.846 32.7667 410.216 33.42 409.749 34.26C409.306 35.0767 409.084 36.045 409.084 37.165V37.865C409.084 38.985 409.341 39.9767 409.854 40.84C410.367 41.7033 411.091 42.3683 412.024 42.835C412.957 43.3017 414.031 43.535 415.244 43.535C416.294 43.535 417.239 43.3717 418.079 43.045C418.919 42.7183 419.666 42.205 420.319 41.505L422.664 44.2C421.824 45.18 420.762 45.9383 419.479 46.475C418.219 46.9883 416.772 47.245 415.139 47.245ZM427.659 47V28.31H432.244L439.769 41.575H437.949L445.859 28.31H449.954L449.989 47H446.034V33L446.734 33.455L439.734 45.04H437.844L430.809 33.14L431.649 32.93V47H427.659ZM463.137 47.245C461.224 47.245 459.521 46.8367 458.027 46.02C456.534 45.18 455.356 44.0367 454.492 42.59C453.629 41.1433 453.197 39.4983 453.197 37.655C453.197 35.7883 453.629 34.1433 454.492 32.72C455.356 31.2733 456.534 30.1417 458.027 29.325C459.521 28.5083 461.224 28.1 463.137 28.1C465.074 28.1 466.789 28.5083 468.282 29.325C469.799 30.1417 470.977 31.2617 471.817 32.685C472.681 34.1083 473.112 35.765 473.112 37.655C473.112 39.4983 472.681 41.1433 471.817 42.59C470.977 44.0367 469.799 45.18 468.282 46.02C466.789 46.8367 465.074 47.245 463.137 47.245ZM463.137 43.5C464.211 43.5 465.167 43.2667 466.007 42.8C466.847 42.3333 467.501 41.6567 467.967 40.77C468.457 39.8833 468.702 38.845 468.702 37.655C468.702 36.4417 468.457 35.4033 467.967 34.54C467.501 33.6533 466.847 32.9767 466.007 32.51C465.167 32.0433 464.222 31.81 463.172 31.81C462.099 31.81 461.142 32.0433 460.302 32.51C459.486 32.9767 458.832 33.6533 458.342 34.54C457.852 35.4033 457.607 36.4417 457.607 37.655C457.607 38.845 457.852 39.8833 458.342 40.77C458.832 41.6567 459.486 42.3333 460.302 42.8C461.142 43.2667 462.087 43.5 463.137 43.5ZM476.384 47V28.31H480.759V35.905H490.174V28.31H494.549V47H490.174V39.615H480.759V47H476.384ZM503.248 47V30.97L504.263 32.02H496.668V28.31H514.168V32.02H506.608L507.623 30.97V47H503.248Z" fill="#2B2B2B"/>
<path d="M14.1393 25.9754C11.4214 25.9754 9.09551 25.4629 7.16166 24.438C5.22782 23.413 3.7382 21.957 2.69286 20.0701C1.67366 18.1832 1.16406 15.9353 1.16406 13.3262C1.16406 11.3694 1.45153 9.62232 2.02646 8.08485C2.62753 6.52406 3.47686 5.20793 4.57446 4.13634C5.69822 3.04149 7.07022 2.20287 8.69046 1.62048C10.3107 1.01483 12.127 0.711975 14.1393 0.711975C15.7595 0.711975 17.3014 0.921629 18.7649 1.34094C20.2283 1.73694 21.4958 2.33096 22.5673 3.12301C22.907 3.35598 23.1291 3.62383 23.2337 3.92669C23.3643 4.20623 23.3774 4.48577 23.2729 4.76531C23.1945 5.02154 23.0377 5.24287 22.8025 5.42922C22.5934 5.5923 22.3321 5.67381 22.0185 5.67381C21.7049 5.67381 21.3521 5.55736 20.9601 5.32439C20.0193 4.64885 18.987 4.14797 17.8633 3.82186C16.7395 3.49575 15.5243 3.33266 14.2177 3.33266C12.1531 3.33266 10.4022 3.72866 8.96486 4.52071C7.52751 5.28945 6.44302 6.41924 5.71126 7.91013C4.97951 9.40103 4.61366 11.2064 4.61366 13.3262C4.61366 15.4461 4.97951 17.2631 5.71126 18.7773C6.44302 20.2682 7.52751 21.4096 8.96486 22.2016C10.4022 22.9704 12.1531 23.3547 14.2177 23.3547C15.4982 23.3547 16.7134 23.1916 17.8633 22.8655C19.0131 22.5161 20.0715 22.0036 21.0385 21.3281C21.4305 21.0951 21.7833 20.9903 22.0969 21.0136C22.4105 21.0136 22.6718 21.0951 22.8809 21.2582C23.0899 21.4213 23.2337 21.6309 23.3121 21.8871C23.4166 22.1434 23.4166 22.4113 23.3121 22.6908C23.2337 22.9704 23.0377 23.215 22.7241 23.4246C21.6265 24.2632 20.3329 24.9038 18.8433 25.3465C17.3798 25.7658 15.8118 25.9754 14.1393 25.9754Z" fill="#2B2B2B"/>
<mask id="mask0_497_246" style="mask-type:luminance" maskUnits="userSpaceOnUse" x="0" y="0" width="25" height="27">
<path d="M24.5 0H0V26.7529H24.5V0Z" fill="white"/>
<path d="M14.1432 25.9754C11.4253 25.9754 9.09941 25.4629 7.16557 24.4379C5.23172 23.413 3.7421 21.957 2.69677 20.0701C1.67757 18.1832 1.16797 15.9353 1.16797 13.3262C1.16797 11.3694 1.45543 9.62229 2.03037 8.08482C2.63143 6.52403 3.48077 5.2079 4.57837 4.13631C5.70212 3.04146 7.07412 2.20284 8.69437 1.62045C10.3146 1.0148 12.1309 0.711945 14.1432 0.711945C15.7634 0.711945 17.3053 0.921599 18.7688 1.34091C20.2322 1.73691 21.4997 2.33093 22.5712 3.12298C22.9109 3.35595 23.133 3.6238 23.2376 3.92666C23.3682 4.2062 23.3813 4.48574 23.2768 4.76528C23.1984 5.0215 23.0416 5.24284 22.8064 5.42919C22.5973 5.59227 22.336 5.67378 22.0224 5.67378C21.7088 5.67378 21.356 5.55733 20.964 5.32436C20.0232 4.64882 18.9909 4.14794 17.8672 3.82183C16.7434 3.49572 15.5282 3.33263 14.2216 3.33263C12.157 3.33263 10.4061 3.72863 8.96877 4.52068C7.53141 5.28942 6.44692 6.4192 5.71517 7.9101C4.98341 9.401 4.61757 11.2063 4.61757 13.3262C4.61757 15.4461 4.98341 17.2631 5.71517 18.7772C6.44692 20.2681 7.53141 21.4096 8.96877 22.2016C10.4061 22.9703 12.157 23.3547 14.2216 23.3547C15.5021 23.3547 16.7173 23.1916 17.8672 22.8655C19.017 22.5161 20.0754 22.0036 21.0424 21.328C21.4344 21.0951 21.7872 20.9902 22.1008 21.0136C22.4144 21.0136 22.6757 21.0951 22.8848 21.2582C23.0938 21.4212 23.2376 21.6309 23.316 21.8871C23.4205 22.1433 23.4205 22.4113 23.316 22.6908C23.2376 22.9703 23.0416 23.2149 22.728 23.4246C21.6304 24.2632 20.3368 24.9038 18.8472 25.3464C17.3837 25.7657 15.8157 25.9754 14.1432 25.9754Z" fill="black"/>
</mask>
<g mask="url(#mask0_497_246)">
<path d="M2.69599 20.0701L2.14409 20.307L2.1468 20.3119L2.69599 20.0701ZM2.02959 8.08483L1.45025 7.90756L1.44852 7.9122L2.02959 8.08483ZM8.69359 1.62047L8.92266 2.12686L8.93044 2.12397L8.69359 1.62047ZM18.768 1.34093L18.5806 1.8607L18.5853 1.86206L18.5901 1.86337L18.768 1.34093ZM22.5704 3.123L22.1794 3.54329L22.1881 3.54962L22.1969 3.55574L22.5704 3.123ZM23.2368 3.92667L22.6514 4.08725L22.6601 4.11236L22.6714 4.13666L23.2368 3.92667ZM23.276 4.7653L22.6949 4.59266L22.6895 4.60702L22.685 4.62165L23.276 4.7653ZM22.8056 5.4292L23.2089 5.84011L23.2125 5.83727L22.8056 5.4292ZM20.9632 5.32438L20.579 5.74958L20.6005 5.76498L20.6234 5.77863L20.9632 5.32438ZM8.96799 4.5207L9.28312 4.98893L9.29004 4.98511L8.96799 4.5207ZM5.71439 18.7772L5.15187 18.9932L5.15322 18.9961L5.71439 18.7772ZM8.96799 22.2016L8.64587 22.6661L8.65286 22.6698L8.96799 22.2016ZM17.8664 22.8655L18.0521 23.3858L18.0581 23.3841L18.064 23.3823L17.8664 22.8655ZM21.0416 21.3281L20.7018 20.8737L20.6822 20.8854L20.6637 20.8983L21.0416 21.3281ZM22.1 21.0136L22.0492 21.5576L22.0745 21.5595H22.1V21.0136ZM23.3152 21.8871L22.7242 22.0308L22.7309 22.0525L22.7396 22.0737L23.3152 21.8871ZM23.3152 22.6908L22.7341 22.5182L22.7267 22.538L22.721 22.5584L23.3152 22.6908ZM22.7272 23.4246L22.3597 22.9878L22.3437 22.9985L22.3286 23.01L22.7272 23.4246ZM18.8464 25.3464L19.0338 25.8663L19.0401 25.8644L18.8464 25.3464ZM14.1424 25.4294C11.5118 25.4294 9.29904 24.9339 7.47784 23.9687L6.85174 24.9072C8.89829 25.9919 11.3373 26.5214 14.1424 26.5214V25.4294ZM7.47784 23.9687C5.65081 23.0003 4.24082 21.6256 3.24517 19.8284L2.1468 20.3119C3.24182 22.2884 4.81101 23.8256 6.85174 24.9072L7.47784 23.9687ZM3.24785 19.8333C2.27714 18.0361 1.77969 15.8729 1.77969 13.3262H0.554688C0.554688 15.9976 1.0764 18.3303 2.14409 20.307L3.24785 19.8333ZM1.77969 13.3262C1.77969 11.4163 2.06034 9.7291 2.61065 8.25747L1.44852 7.9122C0.848963 9.51551 0.554688 11.3225 0.554688 13.3262H1.77969ZM2.6089 8.26211C3.18647 6.76237 3.9961 5.51377 5.02992 4.50448L4.12568 3.76779C2.96429 4.90168 2.07481 6.28579 1.45025 7.90756L2.6089 8.26211ZM5.02992 4.50448C6.08881 3.4728 7.38296 2.68026 8.92266 2.12686L8.46451 1.11413C6.76366 1.72546 5.31424 2.60972 4.12568 3.76779L5.02992 4.50448ZM8.93044 2.12397C10.4656 1.55009 12.1997 1.25794 14.1424 1.25794V0.165985C12.0605 0.165985 10.1621 0.479484 8.45673 1.11697L8.93044 2.12397ZM14.1424 1.25794C15.7025 1.25794 17.1809 1.45968 18.5806 1.8607L18.9554 0.821157C17.4282 0.383556 15.8228 0.165985 14.1424 0.165985V1.25794ZM18.5901 1.86337C19.9833 2.24037 21.1766 2.80196 22.1794 3.54329L22.9613 2.7027C21.8213 1.85999 20.4796 1.23348 18.9459 0.818482L18.5901 1.86337ZM22.1969 3.55574C22.4572 3.73422 22.5913 3.91319 22.6514 4.08725L23.8222 3.7661C23.6732 3.33451 23.363 2.97766 22.9438 2.69026L22.1969 3.55574ZM22.6714 4.13666C22.7469 4.29821 22.7513 4.44191 22.6949 4.59266L23.8571 4.93793C24.0098 4.5296 23.988 4.11422 23.8022 3.71669L22.6714 4.13666ZM22.685 4.62165C22.6397 4.76983 22.5503 4.90097 22.3986 5.02114L23.2125 5.83727C23.5313 5.5847 23.7555 5.27322 23.8669 4.90894L22.685 4.62165ZM22.4023 5.0183C22.3193 5.083 22.2072 5.12782 22.0216 5.12782V6.21978C22.4631 6.21978 22.8737 6.10152 23.2089 5.84011L22.4023 5.0183ZM22.0216 5.12782C21.8755 5.12782 21.6417 5.07142 21.3029 4.87007L20.6234 5.77863C21.0687 6.04321 21.5405 6.21978 22.0216 6.21978V5.12782ZM21.3474 4.89917C20.35 4.18296 19.252 3.64981 18.056 3.30268L17.6768 4.34102C18.7282 4.64616 19.6948 5.11467 20.579 5.74958L21.3474 4.89917ZM18.056 3.30268C16.865 2.95702 15.5851 2.78667 14.2208 2.78667V3.87863C15.4698 3.87863 16.6204 4.03439 17.6768 4.34102L18.056 3.30268ZM14.2208 2.78667C12.0677 2.78667 10.1995 3.2002 8.64594 4.05629L9.29004 4.98511C10.6111 4.2571 12.2447 3.87863 14.2208 3.87863V2.78667ZM8.65286 4.05252C7.09668 4.88481 5.93115 6.10627 5.15322 7.69129L6.27556 8.12895C6.96107 6.73223 7.96465 5.69411 9.28312 4.98893L8.65286 4.05252ZM5.15322 7.69129C4.37905 9.26868 4.00429 11.1528 4.00429 13.3262H5.22929C5.22929 11.2599 5.58625 9.53331 6.27556 8.12895L5.15322 7.69129ZM4.00429 13.3262C4.00429 15.5 4.37919 17.3943 5.15187 18.9932L6.27691 18.5613C5.58613 17.1318 5.22929 15.3921 5.22929 13.3262H4.00429ZM5.15322 18.9961C5.9306 20.58 7.0941 21.811 8.64587 22.6661L9.29004 21.7372C7.96716 21.0082 6.96162 19.9563 6.27556 18.5584L5.15322 18.9961ZM8.65286 22.6698C10.2052 23.5 12.0709 23.9007 14.2208 23.9007V22.8087C12.2416 22.8087 10.6054 22.4407 9.28312 21.7334L8.65286 22.6698ZM14.2208 23.9007C15.5604 23.9007 16.8386 23.73 18.0521 23.3858L17.6807 22.3453C16.5944 22.6533 15.4422 22.8087 14.2208 22.8087V23.9007ZM18.064 23.3823C19.2798 23.0128 20.399 22.4707 21.4194 21.7578L20.6637 20.8983C19.7504 21.5365 18.7527 22.0193 17.6687 22.3488L18.064 23.3823ZM21.3813 21.7823C21.7131 21.5852 21.9271 21.5486 22.0492 21.5576L22.1508 20.4695C21.6456 20.4319 21.1541 20.605 20.7018 20.8737L21.3813 21.7823ZM22.1 21.5595C22.2856 21.5595 22.3977 21.6044 22.4807 21.6691L23.2873 20.8473C22.9521 20.5859 22.5415 20.4676 22.1 20.4676V21.5595ZM22.4807 21.6691C22.5924 21.7562 22.6751 21.8703 22.7242 22.0308L23.9061 21.7435C23.7985 21.3916 23.5937 21.0862 23.2873 20.8473L22.4807 21.6691ZM22.7396 22.0737C22.793 22.2046 22.7987 22.3454 22.7341 22.5182L23.8963 22.8635C24.0408 22.4771 24.0465 22.0822 23.8908 21.7006L22.7396 22.0737ZM22.721 22.5584C22.6835 22.692 22.5855 22.8369 22.3597 22.9878L23.0947 23.8614C23.4961 23.593 23.7901 23.2487 23.9094 22.8232L22.721 22.5584ZM22.3286 23.01C21.2961 23.7989 20.0737 24.4063 18.6527 24.8285L19.0401 25.8644C20.5983 25.4014 21.963 24.7275 23.1258 23.8392L22.3286 23.01ZM18.659 24.8267C17.2612 25.2271 15.7569 25.4294 14.1424 25.4294V26.5214C15.8729 26.5214 17.5047 26.3044 19.0338 25.8663L18.659 24.8267Z" fill="#2B2B2B"/>
</g>
<path d="M7.2601 43.4429C7.15554 43.4429 7.05754 43.4254 6.9661 43.3905C6.8877 43.3672 6.81585 43.3206 6.7505 43.2507C6.69825 43.1808 6.65256 43.1051 6.61336 43.0236C6.5872 42.9304 6.57416 42.8198 6.57422 42.6916L6.57569 31.5799C6.57575 31.3586 6.6411 31.1897 6.77175 31.0733C6.90246 30.9451 7.09197 30.8811 7.34021 30.8811C7.57541 30.8811 7.7583 30.9451 7.88895 31.0733C8.01966 31.1897 8.08495 31.3586 8.08489 31.5799L8.08354 41.4687H7.65234L16.1602 31.3179C16.2778 31.1548 16.3954 31.0442 16.513 30.9859C16.6437 30.916 16.807 30.8811 17.003 30.8811C17.1468 30.8811 17.2643 30.9102 17.3558 30.9684C17.4473 31.015 17.5191 31.0907 17.5714 31.1956C17.6236 31.3004 17.6498 31.4285 17.6497 31.5799L17.6482 42.7266C17.6482 42.9596 17.5828 43.1401 17.4521 43.2682C17.3345 43.3847 17.1581 43.4429 16.9229 43.4429C16.6747 43.4429 16.4851 43.3847 16.3545 43.2682C16.2238 43.1401 16.1586 42.9596 16.1586 42.7266L16.16 32.8553H16.5912L8.08336 43.0061C7.95265 43.1575 7.83505 43.2682 7.7305 43.3381C7.62594 43.408 7.46914 43.4429 7.2601 43.4429Z" fill="#2B2B2B"/>
<mask id="mask1_497_246" style="mask-type:luminance" maskUnits="userSpaceOnUse" x="5" y="30" width="14" height="15">
<path d="M18.3449 30.2172H5.48047V44.4126H18.3449V30.2172Z" fill="white"/>
<path d="M7.2601 43.4429C7.15554 43.4429 7.05754 43.4254 6.9661 43.3905C6.8877 43.3672 6.81585 43.3206 6.7505 43.2507C6.69825 43.1808 6.65256 43.1051 6.61336 43.0236C6.5872 42.9304 6.57416 42.8198 6.57422 42.6916L6.57569 31.5799C6.57575 31.3586 6.6411 31.1897 6.77175 31.0733C6.90246 30.9451 7.09197 30.8811 7.34021 30.8811C7.57541 30.8811 7.7583 30.9451 7.88895 31.0733C8.01966 31.1897 8.08495 31.3586 8.08489 31.5799L8.08354 41.4687H7.65234L16.1601 31.3179C16.2777 31.1548 16.3954 31.0442 16.513 30.9859C16.6437 30.916 16.807 30.8811 17.003 30.8811C17.1468 30.8811 17.2643 30.9102 17.3558 30.9684C17.4473 31.015 17.5191 31.0907 17.5713 31.1956C17.6236 31.3004 17.6497 31.4285 17.6497 31.5799L17.6482 42.7266C17.6482 42.9596 17.5828 43.1401 17.4521 43.2682C17.3345 43.3847 17.1581 43.4429 16.9229 43.4429C16.6747 43.4429 16.4851 43.3847 16.3545 43.2682C16.2238 43.1401 16.1586 42.9596 16.1586 42.7266L16.16 32.8553H16.5912L8.08336 43.0061C7.95265 43.1575 7.83505 43.2682 7.7305 43.3381C7.62594 43.408 7.46914 43.4429 7.2601 43.4429Z" fill="black"/>
</mask>
<g mask="url(#mask1_497_246)">
<path d="M6.96532 43.3905L7.20664 42.8886L7.18324 42.8797L7.15911 42.8725L6.96532 43.3905ZM6.74971 43.2507L6.24005 43.5536L6.25825 43.5778L6.27913 43.6003L6.74971 43.2507ZM6.61258 43.0236L6.01833 43.156L6.03021 43.1985L6.04957 43.2387L6.61258 43.0236ZM6.77097 31.0733L7.20407 31.4593L7.21436 31.4501L7.22416 31.4405L6.77097 31.0733ZM7.88817 31.0733L7.43492 31.4405L7.44472 31.4501L7.45507 31.4593L7.88817 31.0733ZM8.08276 41.4687L8.0827 42.0146H8.6952L8.69526 41.4687H8.08276ZM7.65156 41.4687L7.16095 41.1419L6.42944 42.0146H7.6515L7.65156 41.4687ZM16.1594 31.3179L16.65 31.6446L16.6629 31.6292L16.6745 31.6131L16.1594 31.3179ZM16.5122 30.9859L16.8096 31.4631L16.8185 31.4588L16.8273 31.4541L16.5122 30.9859ZM17.355 30.9684L16.9989 31.4127L17.0242 31.4287L17.051 31.4425L17.355 30.9684ZM17.4513 43.2682L16.9982 42.9009L16.9961 42.9029L17.4513 43.2682ZM16.3537 43.2682L15.9005 43.6355L15.9103 43.6451L15.9206 43.6543L16.3537 43.2682ZM16.1592 32.8553L16.1592 32.3094H15.5467L15.5467 32.8553H16.1592ZM16.5904 32.8553L17.081 33.182L17.8125 32.3094H16.5904L16.5904 32.8553ZM8.08258 43.0061L8.56804 43.3391L8.57325 43.3328L8.08258 43.0061ZM7.25938 42.8969C7.23353 42.8969 7.21809 42.893 7.20664 42.8886L6.72399 43.8923C6.89549 43.9579 7.07599 43.9889 7.25925 43.9889L7.25938 42.8969ZM7.15911 42.8725C7.18379 42.8799 7.20192 42.8894 7.21295 42.8966C7.22342 42.9033 7.22532 42.9065 7.2203 42.9012L6.27913 43.6003C6.40028 43.7298 6.56229 43.8463 6.77158 43.9085L7.15911 42.8725ZM7.25944 42.9479C7.22906 42.9073 7.20088 42.8611 7.17559 42.8085L6.04957 43.2387C6.10267 43.3492 6.16594 43.4544 6.24005 43.5536L7.25944 42.9479ZM7.20682 42.8912C7.1961 42.8529 7.18588 42.7889 7.18594 42.6917H5.96094C5.96088 42.8506 5.9768 43.0079 6.01833 43.156L7.20682 42.8912ZM7.18594 42.6917L7.18741 31.5799H5.96241L5.96094 42.6917H7.18594ZM7.18741 31.5799C7.18741 31.5159 7.19702 31.4806 7.20296 31.4653C7.20799 31.4524 7.20989 31.4541 7.20407 31.4593L6.33793 30.6872C6.05728 30.9374 5.96247 31.2651 5.96241 31.5799H7.18741ZM7.22416 31.4405C7.22422 31.4405 7.22397 31.4407 7.22342 31.4411C7.22293 31.4415 7.22244 31.4419 7.22214 31.442C7.22122 31.4426 7.22269 31.4415 7.22826 31.4396C7.23996 31.4357 7.27328 31.4271 7.33937 31.4271L7.33949 30.3351C6.96973 30.3351 6.59506 30.4343 6.31784 30.706L7.22416 31.4405ZM7.33937 31.4271C7.39504 31.4271 7.42138 31.4346 7.42898 31.4373C7.434 31.439 7.43363 31.4392 7.43492 31.4405L8.34148 30.706C8.07063 30.4404 7.70785 30.3351 7.33949 30.3351L7.33937 31.4271ZM7.45507 31.4593C7.44919 31.4541 7.45115 31.4524 7.45611 31.4653C7.46205 31.4806 7.47161 31.5159 7.47161 31.5799H8.69661C8.69667 31.2651 8.60198 30.9374 8.32133 30.6872L7.45507 31.4593ZM7.47161 31.5799L7.47026 41.4687H8.69526L8.69661 31.5799H7.47161ZM8.08288 40.9227H7.65168L7.6515 42.0146H8.0827L8.08288 40.9227ZM8.14223 41.7954L16.65 31.6446L15.6687 30.9911L7.16095 41.1419L8.14223 41.7954ZM16.6745 31.6131C16.718 31.5529 16.7538 31.513 16.7804 31.488C16.8073 31.4628 16.8179 31.459 16.8096 31.4631L16.2148 30.5086C15.9705 30.6296 15.7864 30.8255 15.6442 31.0226L16.6745 31.6131ZM16.8273 31.4541C16.8391 31.4477 16.886 31.4271 17.0022 31.4271L17.0023 30.3351C16.7265 30.3351 16.4466 30.3843 16.1972 30.5177L16.8273 31.4541ZM17.0022 31.4271C17.0281 31.4271 17.0373 31.4297 17.0342 31.429C17.0325 31.4285 17.028 31.4273 17.0215 31.4246C17.0148 31.4218 17.0071 31.4179 16.9989 31.4127L17.7111 30.5242C17.4901 30.3834 17.238 30.3351 17.0023 30.3351L17.0022 31.4271ZM17.051 31.4425C17.0313 31.4324 17.0175 31.4209 17.0099 31.4128C17.003 31.4055 17.0047 31.4049 17.0109 31.4173L18.1303 30.9738C18.0371 30.7868 17.8868 30.6104 17.659 30.4944L17.051 31.4425ZM17.0109 31.4173C17.0191 31.4338 17.0365 31.4817 17.0364 31.5799H18.2614C18.2615 31.3754 18.2266 31.167 18.1303 30.9738L17.0109 31.4173ZM17.0364 31.5799L17.0349 42.7266H18.2599L18.2614 31.5799H17.0364ZM17.0349 42.7266C17.0349 42.7986 17.0246 42.8437 17.0155 42.8691C17.007 42.8925 16.9994 42.8997 16.9982 42.9009L17.9045 43.6355C18.1687 43.3764 18.2599 43.0477 18.2599 42.7266H17.0349ZM16.9961 42.9029C17.0011 42.898 17.0069 42.8937 17.0124 42.8903C17.0178 42.8872 17.0204 42.8865 17.0182 42.8872C17.0127 42.889 16.9847 42.8969 16.9222 42.8969L16.9221 43.9889C17.2693 43.9889 17.6371 43.9003 17.9066 43.6335L16.9961 42.9029ZM16.9222 42.8969C16.8505 42.8969 16.8108 42.8884 16.7936 42.8831C16.7792 42.8787 16.7811 42.877 16.7869 42.8821L15.9206 43.6543C16.2012 43.9044 16.5688 43.9889 16.9221 43.9889L16.9222 42.8969ZM16.807 42.9009C16.8058 42.8997 16.7982 42.8925 16.7897 42.8691C16.7805 42.8437 16.7703 42.7986 16.7703 42.7266H15.5453C15.5453 43.0477 15.6364 43.3764 15.9005 43.6355L16.807 42.9009ZM16.7703 42.7266L16.7717 32.8553H15.5467L15.5453 42.7266H16.7703ZM16.1591 33.4013H16.5903L16.5904 32.3094H16.1592L16.1591 33.4013ZM16.0997 32.5286L7.5919 42.6794L8.57325 43.3328L17.081 33.182L16.0997 32.5286ZM7.59711 42.6733C7.48165 42.807 7.40319 42.874 7.36228 42.9013L8.09715 43.7749C8.26535 43.6625 8.42221 43.5081 8.56804 43.3391L7.59711 42.6733ZM7.36228 42.9013C7.38886 42.8836 7.40264 42.8831 7.38524 42.887C7.36718 42.891 7.32761 42.8969 7.25938 42.8969L7.25925 43.9889C7.52722 43.9889 7.83984 43.9469 8.09715 43.7749L7.36228 42.9013Z" fill="#2B2B2B"/>
</g>
<path d="M6.23513 73.4672C5.71248 73.4672 5.3075 73.3395 5.02017 73.0828C4.75904 72.8033 4.62861 72.431 4.62891 71.9647L4.64276 50.0557C4.64307 49.5665 4.78704 49.2056 5.07462 48.9725C5.36225 48.7164 5.76742 48.5881 6.29007 48.5881H15.5805C18.5336 48.5881 20.8067 49.2406 22.4 50.5449C23.9934 51.8263 24.7893 53.6433 24.7878 55.996C24.7863 58.3256 23.9881 60.1426 22.3932 61.447C20.7982 62.7519 18.5242 63.4038 15.5711 63.4038H7.8487L7.84331 71.9647C7.843 72.431 7.71211 72.8033 7.45057 73.0828C7.1891 73.3395 6.78393 73.4672 6.23513 73.4672ZM7.85023 60.9927H15.1806C17.2974 60.9927 18.8918 60.5734 19.9638 59.7348C21.062 58.8732 21.6116 57.6268 21.6126 55.996C21.6137 54.3422 21.0657 53.0957 19.9685 52.2571C18.8976 51.3955 17.3038 50.9642 15.187 50.9642H7.8566L7.85023 60.9927Z" fill="#2B2B2B"/>
<mask id="mask2_497_246" style="mask-type:luminance" maskUnits="userSpaceOnUse" x="3" y="47" width="23" height="28">
<path d="M25.7349 47.5617H3.66797V74.3146H25.7349V47.5617Z" fill="white"/>
<path d="M6.23513 73.4672C5.71248 73.4672 5.3075 73.3395 5.02017 73.0829C4.75904 72.8033 4.62861 72.431 4.62891 71.9647L4.64276 50.0557C4.64307 49.5665 4.78704 49.2057 5.07462 48.9725C5.36225 48.7165 5.76742 48.5882 6.29007 48.5882H15.5805C18.5336 48.5882 20.8067 49.2406 22.4 50.5449C23.9934 51.8263 24.7893 53.6434 24.7878 55.996C24.7863 58.3257 23.9881 60.1427 22.3932 61.447C20.7982 62.7519 18.5242 63.4038 15.5711 63.4038H7.8487L7.84331 71.9647C7.843 72.431 7.71211 72.8033 7.45057 73.0829C7.1891 73.3395 6.78393 73.4672 6.23513 73.4672ZM7.85023 60.9927H15.1806C17.2974 60.9927 18.8918 60.5734 19.9638 59.7348C21.062 58.8733 21.6116 57.6268 21.6126 55.996C21.6137 54.3422 21.0657 53.0957 19.9685 52.2571C18.8976 51.3956 17.3038 50.9642 15.187 50.9642H7.8566L7.85023 60.9927Z" fill="black"/>
</mask>
<g mask="url(#mask2_497_246)">
<path d="M5.01939 73.0828L4.54866 73.4328L4.56643 73.4514L4.58607 73.4689L5.01939 73.0828ZM5.07384 48.9725L5.48563 49.3765L5.49641 49.3678L5.5067 49.3585L5.07384 48.9725ZM22.3993 50.5449L21.9848 50.9473L21.9889 50.9506L22.3993 50.5449ZM7.84792 63.4038L7.84828 62.8578H7.23578L7.23542 63.4038H7.84792ZM7.44979 73.0828L7.9028 73.4503L7.91168 73.4416L7.92013 73.4328L7.44979 73.0828ZM7.84945 60.9927H7.23695L7.23664 61.5387H7.84914L7.84945 60.9927ZM19.963 59.7348L20.3669 60.1454L20.3677 60.1448L19.963 59.7348ZM19.9678 52.2571L19.5572 52.6628L19.563 52.6671L19.5689 52.672L19.9678 52.2571ZM7.85582 50.9642L7.85612 50.4183H7.24362L7.24332 50.9642H7.85582ZM6.23471 72.9212C5.82593 72.9212 5.59502 72.8241 5.4528 72.6968L4.58607 73.4689C5.01847 73.8549 5.59747 74.0132 6.23404 74.0132L6.23471 72.9212ZM5.49016 72.7334C5.34389 72.5767 5.24038 72.3398 5.24063 71.9647H4.01563C4.01528 72.5221 4.17265 73.0299 4.54866 73.4328L5.49016 72.7334ZM5.24063 71.9647L5.25447 50.0557H4.02948L4.01563 71.9647H5.24063ZM5.25447 50.0557C5.25471 49.6555 5.37139 49.4693 5.48563 49.3765L4.66211 48.5685C4.20113 48.9419 4.02985 49.4781 4.02948 50.0557H5.25447ZM5.5067 49.3585C5.6491 49.2318 5.8802 49.1341 6.28898 49.1341L6.28965 48.0422C5.65308 48.0422 5.0739 48.201 4.64101 48.5865L5.5067 49.3585ZM6.28898 49.1341H15.5794L15.5801 48.0422H6.28965L6.28898 49.1341ZM15.5794 49.1341C18.4356 49.1341 20.5401 49.7647 21.9848 50.9473L22.8137 50.1431C21.0718 48.7164 18.6299 48.0422 15.5801 48.0422L15.5794 49.1341ZM21.9889 50.9506C23.4246 52.1053 24.1759 53.7596 24.1745 55.996H25.3995C25.4011 53.527 24.5606 51.5473 22.8097 50.1398L21.9889 50.9506ZM24.1745 55.996C24.1731 58.2072 23.4211 59.8648 21.9784 61.0452L22.8063 61.8494C24.5536 60.4206 25.398 58.4441 25.3995 55.996H24.1745ZM21.9784 61.0452C20.5322 62.2277 18.427 62.8578 15.5707 62.8578L15.57 63.9497C18.6199 63.9497 21.0626 63.2755 22.8063 61.8494L21.9784 61.0452ZM15.5707 62.8578H7.84828L7.84761 63.9497H15.57L15.5707 62.8578ZM7.23542 63.4038L7.23003 71.9647H8.45503L8.46042 63.4038H7.23542ZM7.23003 71.9647C7.22978 72.3398 7.12602 72.5767 6.97951 72.7334L7.92013 73.4328C8.29663 73.0299 8.45466 72.5221 8.45503 71.9647H7.23003ZM6.99685 72.716C6.89297 72.8175 6.68404 72.9212 6.23471 72.9212L6.23404 74.0132C6.88225 74.0132 7.48366 73.8609 7.9028 73.4503L6.99685 72.716ZM7.84914 61.5387H15.1795L15.1802 60.4468H7.84981L7.84914 61.5387ZM15.1795 61.5387C17.3749 61.5387 19.1397 61.1052 20.3669 60.1454L19.5592 59.3248C18.6424 60.0422 17.2184 60.4468 15.1802 60.4468L15.1795 61.5387ZM20.3677 60.1448C21.6298 59.1539 22.2232 57.7414 22.2243 55.996H20.9993C20.9984 57.5121 20.4926 58.5921 19.5584 59.3253L20.3677 60.1448ZM22.2243 55.996C22.2254 54.2314 21.6359 52.8129 20.3667 51.8427L19.5689 52.672C20.4938 53.3791 21.0003 54.453 20.9993 55.996H22.2243ZM20.3784 51.852C19.1523 50.8654 17.3855 50.4183 15.1865 50.4183L15.1858 51.5102C17.2206 51.5102 18.6414 51.9257 19.5572 52.6628L20.3784 51.852ZM15.1865 50.4183H7.85612L7.85545 51.5102H15.1858L15.1865 50.4183ZM7.24332 50.9642L7.23695 60.9927H8.46195L8.46832 50.9642H7.24332Z" fill="#2B2B2B"/>
</g>
<mask id="mask3_497_246" style="mask-type:luminance" maskUnits="userSpaceOnUse" x="28" y="29" width="19" height="18">
<path fill-rule="evenodd" clip-rule="evenodd" d="M46.1279 33.435C46.0214 33.435 44.5536 33.435 44.5536 33.435C44.5536 33.435 44.5484 33.5542 44.5337 33.6344C44.5168 33.7256 44.4863 33.8389 44.4316 33.966C44.32 34.225 44.1171 34.5198 43.7662 34.7914C43.0754 35.3261 41.8827 35.7198 39.8307 35.7198H36.5096L35.3288 40.2893H35.895C37.1992 40.2893 38.2564 41.3122 38.2564 42.574V44.0972C38.2564 45.3592 37.1992 46.3819 35.895 46.3819H30.3849C29.0807 46.3819 28.0234 45.3592 28.0234 44.0972V42.1463C28.0234 41.1776 28.79 40.3822 29.7683 40.2968L30.951 35.7198H30.3849C29.0807 35.7198 28.0234 34.6969 28.0234 33.435V31.9119C28.0234 30.6501 29.0807 29.6272 30.3849 29.6272H39.8307C41.8827 29.6272 43.0754 30.0209 43.7662 30.5556C44.1171 30.8272 44.32 31.122 44.4316 31.381C44.4863 31.5081 44.5168 31.6214 44.5337 31.7126C44.5459 31.7789 44.5505 31.8448 44.5536 31.9119H46.1279C46.5626 31.9119 46.9151 32.2529 46.9151 32.6735C46.9151 33.0941 46.5626 33.435 46.1279 33.435ZM42.9793 33.3779L42.9784 33.3801C42.9669 33.4067 42.9239 33.4927 42.7828 33.6019C42.5344 33.7942 41.9399 34.0877 40.6178 34.1728V31.1742C41.9399 31.2593 42.5344 31.5528 42.7828 31.745C42.9239 31.8542 42.9669 31.9403 42.9784 31.9668L42.9793 31.969V33.3779ZM39.0435 31.1503V34.1966H36.5096C35.7871 34.1966 35.1575 34.6723 34.9822 35.3504L33.8015 39.9198C33.5531 40.8812 34.3046 41.8125 35.3288 41.8125H35.895C36.3297 41.8125 36.6821 42.1534 36.6821 42.574V44.0972C36.6821 44.5178 36.3297 44.8586 35.895 44.8586H30.3849C29.9502 44.8586 29.5977 44.5178 29.5977 44.0972V42.1463C29.5977 41.9619 29.7523 41.8125 29.9428 41.8125C30.5638 41.8125 31.1052 41.4035 31.2557 40.8207L32.4783 36.0892C32.7268 35.1279 31.9753 34.1966 30.951 34.1966H30.3849C29.9502 34.1966 29.5977 33.8557 29.5977 33.435V31.9119C29.5977 31.4913 29.9502 31.1503 30.3849 31.1503H39.0435Z" fill="white"/>
</mask>
<g mask="url(#mask3_497_246)">
<path d="M44.5523 33.4351L24.1506 32.7366L24.9047 15.2358H44.5523V33.4351ZM44.5324 33.6344L24.3864 30.6804L24.3866 30.6795L44.5324 33.6344ZM44.4303 33.966L25.3696 27.444L25.3699 27.4433L44.4303 33.966ZM36.5082 35.7198L16.6125 31.6349L20.2596 17.5206H36.5082V35.7198ZM35.3275 40.2893V58.4884H9.6737L15.4318 36.2044L35.3275 40.2893ZM29.767 40.2968L49.6627 44.3818L46.3675 57.1343L31.7563 58.4097L29.767 40.2968ZM30.9497 35.7198V17.5206H56.6036L50.8454 39.8047L30.9497 35.7198ZM44.5324 31.7126L24.3866 34.6677L24.3864 34.6666L44.5324 31.7126ZM44.5523 31.9119V50.1109H24.951L24.1526 32.6533L44.5523 31.9119ZM42.978 33.3779H63.3945V36.6983L62.0795 39.8048L42.978 33.3779ZM42.977 33.3801L62.0783 39.807L62.0575 39.8556L62.0366 39.9041L42.977 33.3801ZM40.6165 34.1728L42.087 52.3248L20.1999 53.7334V34.1728H40.6165ZM40.6165 31.1742H20.1999V11.6134L42.087 13.0222L40.6165 31.1742ZM42.977 31.9668L62.0366 25.4429L62.0575 25.4914L62.0783 25.5399L42.977 31.9668ZM42.978 31.9691L62.0795 25.5422L63.3945 28.6487V31.9691H42.978ZM39.0422 31.1504V12.9511H59.4589V31.1504H39.0422ZM39.0422 34.1966H59.4589V52.3958H39.0422V34.1966ZM31.2544 40.8207L11.3586 36.7364L11.3587 36.7358L31.2544 40.8207ZM46.1266 51.6342C46.1268 51.6342 46.1264 51.6342 46.1266 51.6342C46.1263 51.6342 46.1255 51.6342 46.1253 51.6342C46.125 51.6342 46.1248 51.6342 46.1246 51.6342C46.1243 51.6342 46.1241 51.6342 46.1238 51.6342C46.1236 51.6342 46.1233 51.6342 46.1231 51.6342C46.1228 51.6342 46.1225 51.6342 46.1223 51.6342C46.122 51.6342 46.1217 51.6342 46.1215 51.6342C46.1212 51.6342 46.1209 51.6342 46.1206 51.6342C46.1203 51.6342 46.12 51.6342 46.1197 51.6342C46.1194 51.6342 46.1191 51.6342 46.1188 51.6342C46.1185 51.6342 46.1182 51.6342 46.1179 51.6342C46.1176 51.6342 46.1172 51.6342 46.1169 51.6342C46.1166 51.6342 46.1162 51.6342 46.1159 51.6342C46.1156 51.6342 46.1152 51.6342 46.1149 51.6342C46.1145 51.6342 46.1141 51.6342 46.1138 51.6342C46.1135 51.6342 46.1131 51.6342 46.1127 51.6342C46.1124 51.6342 46.1119 51.6342 46.1116 51.6342C46.1112 51.6342 46.1108 51.6342 46.1105 51.6342C46.11 51.6342 46.1097 51.6342 46.1092 51.6342C46.1089 51.6342 46.1084 51.6342 46.1081 51.6342C46.1076 51.6342 46.1072 51.6342 46.1068 51.6342C46.1064 51.6342 46.106 51.6342 46.1056 51.6342C46.1051 51.6342 46.1047 51.6342 46.1043 51.6342C46.1038 51.6342 46.1034 51.6342 46.1029 51.6342C46.1025 51.6342 46.102 51.6342 46.1016 51.6342C46.1012 51.6342 46.1007 51.6342 46.1002 51.6342C46.0997 51.6342 46.0993 51.6342 46.0988 51.6342C46.0983 51.6342 46.0978 51.6342 46.0974 51.6342C46.0969 51.6342 46.0964 51.6342 46.0959 51.6342C46.0954 51.6342 46.0949 51.6342 46.0944 51.6342C46.0939 51.6342 46.0934 51.6342 46.0929 51.6342C46.0924 51.6342 46.0919 51.6342 46.0914 51.6342C46.0909 51.6342 46.0903 51.6342 46.0898 51.6342C46.0893 51.6342 46.0887 51.6342 46.0882 51.6342C46.0877 51.6342 46.0871 51.6342 46.0866 51.6342C46.086 51.6342 46.0855 51.6342 46.0849 51.6342C46.0844 51.6342 46.0838 51.6342 46.0833 51.6342C46.0827 51.6342 46.0821 51.6342 46.0816 51.6342C46.0809 51.6342 46.0804 51.6342 46.0798 51.6342C46.0792 51.6342 46.0787 51.6342 46.0781 51.6342C46.0775 51.6342 46.0769 51.6342 46.0763 51.6342C46.0757 51.6342 46.0751 51.6342 46.0745 51.6342C46.0738 51.6342 46.0732 51.6342 46.0726 51.6342C46.072 51.6342 46.0714 51.6342 46.0708 51.6342C46.0702 51.6342 46.0695 51.6342 46.0689 51.6342C46.0683 51.6342 46.0677 51.6342 46.067 51.6342C46.0664 51.6342 46.0657 51.6342 46.065 51.6342C46.0644 51.6342 46.0637 51.6342 46.0631 51.6342C46.0624 51.6342 46.0618 51.6342 46.0611 51.6342C46.0604 51.6342 46.0597 51.6342 46.0591 51.6342C46.0584 51.6342 46.0577 51.6342 46.0571 51.6342C46.0564 51.6342 46.0557 51.6342 46.055 51.6342C46.0543 51.6342 46.0536 51.6342 46.0529 51.6342C46.0522 51.6342 46.0515 51.6342 46.0508 51.6342C46.0501 51.6342 46.0494 51.6342 46.0487 51.6342C46.0479 51.6342 46.0473 51.6342 46.0465 51.6342C46.0458 51.6342 46.045 51.6342 46.0443 51.6342C46.0436 51.6342 46.0428 51.6342 46.0421 51.6342C46.0414 51.6342 46.0406 51.6342 46.0399 51.6342C46.0391 51.6342 46.0384 51.6342 46.0376 51.6342C46.0369 51.6342 46.0361 51.6342 46.0354 51.6342C46.0346 51.6342 46.0338 51.6342 46.033 51.6342C46.0323 51.6342 46.0315 51.6342 46.0307 51.6342C46.0299 51.6342 46.0292 51.6342 46.0284 51.6342C46.0276 51.6342 46.0268 51.6342 46.026 51.6342C46.0252 51.6342 46.0244 51.6342 46.0236 51.6342C46.0228 51.6342 46.022 51.6342 46.0212 51.6342C46.0204 51.6342 46.0196 51.6342 46.0188 51.6342C46.0179 51.6342 46.0171 51.6342 46.0163 51.6342C46.0155 51.6342 46.0147 51.6342 46.0138 51.6342C46.013 51.6342 46.0122 51.6342 46.0113 51.6342C46.0104 51.6342 46.0096 51.6342 46.0088 51.6342C46.0079 51.6342 46.0071 51.6342 46.0062 51.6342C46.0054 51.6342 46.0045 51.6342 46.0036 51.6342C46.0028 51.6342 46.0019 51.6342 46.0011 51.6342C46.0002 51.6342 45.9993 51.6342 45.9984 51.6342C45.9976 51.6342 45.9967 51.6342 45.9958 51.6342C45.9949 51.6342 45.994 51.6342 45.9932 51.6342C45.9923 51.6342 45.9914 51.6342 45.9905 51.6342C45.9896 51.6342 45.9887 51.6342 45.9878 51.6342C45.9869 51.6342 45.9859 51.6342 45.985 51.6342C45.9842 51.6342 45.9833 51.6342 45.9823 51.6342C45.9814 51.6342 45.9805 51.6342 45.9795 51.6342C45.9786 51.6342 45.9777 51.6342 45.9768 51.6342C45.9758 51.6342 45.9749 51.6342 45.9739 51.6342C45.973 51.6342 45.9721 51.6342 45.9711 51.6342C45.9702 51.6342 45.9692 51.6342 45.9683 51.6342C45.9673 51.6342 45.9663 51.6342 45.9654 51.6342C45.9644 51.6342 45.9635 51.6342 45.9625 51.6342C45.9616 51.6342 45.9606 51.6342 45.9596 51.6342C45.9586 51.6342 45.9576 51.6342 45.9567 51.6342C45.9557 51.6342 45.9547 51.6342 45.9537 51.6342C45.9527 51.6342 45.9518 51.6342 45.9508 51.6342C45.9498 51.6342 45.9488 51.6342 45.9478 51.6342C45.9468 51.6342 45.9458 51.6342 45.9448 51.6342C45.9438 51.6342 45.9428 51.6342 45.9418 51.6342C45.9407 51.6342 45.9398 51.6342 45.9387 51.6342C45.9377 51.6342 45.9367 51.6342 45.9357 51.6342C45.9347 51.6342 45.9336 51.6342 45.9326 51.6342C45.9316 51.6342 45.9305 51.6342 45.9295 51.6342C45.9284 51.6342 45.9275 51.6342 45.9264 51.6342C45.9254 51.6342 45.9243 51.6342 45.9232 51.6342C45.9222 51.6342 45.9211 51.6342 45.9201 51.6342C45.9191 51.6342 45.918 51.6342 45.9169 51.6342C45.9159 51.6342 45.9148 51.6342 45.9137 51.6342C45.9127 51.6342 45.9116 51.6342 45.9105 51.6342C45.9094 51.6342 45.9084 51.6342 45.9073 51.6342C45.9062 51.6342 45.9052 51.6342 45.9041 51.6342C45.903 51.6342 45.9019 51.6342 45.9008 51.6342C45.8997 51.6342 45.8986 51.6342 45.8975 51.6342C45.8964 51.6342 45.8953 51.6342 45.8943 51.6342C45.8932 51.6342 45.892 51.6342 45.8909 51.6342C45.8898 51.6342 45.8887 51.6342 45.8876 51.6342C45.8865 51.6342 45.8854 51.6342 45.8842 51.6342C45.8831 51.6342 45.882 51.6342 45.8809 51.6342C45.8797 51.6342 45.8786 51.6342 45.8775 51.6342C45.8764 51.6342 45.8752 51.6342 45.8741 51.6342C45.8729 51.6342 45.8718 51.6342 45.8707 51.6342C45.8696 51.6342 45.8684 51.6342 45.8672 51.6342C45.8661 51.6342 45.865 51.6342 45.8638 51.6342C45.8626 51.6342 45.8615 51.6342 45.8604 51.6342C45.8592 51.6342 45.8581 51.6342 45.8569 51.6342C45.8557 51.6342 45.8546 51.6342 45.8534 51.6342C45.8522 51.6342 45.8511 51.6342 45.8499 51.6342C45.8487 51.6342 45.8475 51.6342 45.8464 51.6342C45.8452 51.6342 45.844 51.6342 45.8428 51.6342C45.8416 51.6342 45.8405 51.6342 45.8392 51.6342C45.8381 51.6342 45.8369 51.6342 45.8357 51.6342C45.8345 51.6342 45.8333 51.6342 45.8321 51.6342C45.8309 51.6342 45.8297 51.6342 45.8285 51.6342C45.8273 51.6342 45.8261 51.6342 45.8249 51.6342C45.8237 51.6342 45.8225 51.6342 45.8213 51.6342C45.8201 51.6342 45.8189 51.6342 45.8176 51.6342C45.8164 51.6342 45.8152 51.6342 45.814 51.6342C45.8127 51.6342 45.8115 51.6342 45.8103 51.6342C45.8091 51.6342 45.8078 51.6342 45.8066 51.6342C45.8054 51.6342 45.8042 51.6342 45.8029 51.6342C45.8017 51.6342 45.8004 51.6342 45.7992 51.6342C45.798 51.6342 45.7967 51.6342 45.7955 51.6342C45.7942 51.6342 45.793 51.6342 45.7917 51.6342C45.7905 51.6342 45.7893 51.6342 45.788 51.6342C45.7868 51.6342 45.7855 51.6342 45.7842 51.6342C45.783 51.6342 45.7817 51.6342 45.7804 51.6342C45.7792 51.6342 45.7779 51.6342 45.7767 51.6342C45.7754 51.6342 45.7741 51.6342 45.7729 51.6342C45.7716 51.6342 45.7703 51.6342 45.769 51.6342C45.7678 51.6342 45.7665 51.6342 45.7652 51.6342C45.7639 51.6342 45.7626 51.6342 45.7613 51.6342C45.7601 51.6342 45.7588 51.6342 45.7575 51.6342C45.7562 51.6342 45.7549 51.6342 45.7536 51.6342C45.7523 51.6342 45.7511 51.6342 45.7498 51.6342C45.7484 51.6342 45.7471 51.6342 45.7458 51.6342C45.7446 51.6342 45.7433 51.6342 45.7419 51.6342C45.7406 51.6342 45.7394 51.6342 45.738 51.6342C45.7367 51.6342 45.7354 51.6342 45.7341 51.6342C45.7328 51.6342 45.7314 51.6342 45.7302 51.6342C45.7288 51.6342 45.7275 51.6342 45.7262 51.6342C45.7249 51.6342 45.7236 51.6342 45.7223 51.6342C45.7209 51.6342 45.7196 51.6342 45.7183 51.6342C45.7169 51.6342 45.7156 51.6342 45.7143 51.6342C45.713 51.6342 45.7116 51.6342 45.7103 51.6342C45.709 51.6342 45.7076 51.6342 45.7063 51.6342C45.7049 51.6342 45.7036 51.6342 45.7023 51.6342C45.7009 51.6342 45.6996 51.6342 45.6983 51.6342C45.6969 51.6342 45.6956 51.6342 45.6942 51.6342C45.6929 51.6342 45.6915 51.6342 45.6902 51.6342C45.6888 51.6342 45.6875 51.6342 45.6861 51.6342C45.6847 51.6342 45.6834 51.6342 45.682 51.6342C45.6807 51.6342 45.6793 51.6342 45.6779 51.6342C45.6766 51.6342 45.6752 51.6342 45.6739 51.6342C45.6725 51.6342 45.6711 51.6342 45.6698 51.6342C45.6684 51.6342 45.667 51.6342 45.6657 51.6342C45.6643 51.6342 45.6629 51.6342 45.6616 51.6342C45.6602 51.6342 45.6588 51.6342 45.6574 51.6342C45.6561 51.6342 45.6546 51.6342 45.6533 51.6342C45.6519 51.6342 45.6505 51.6342 45.6491 51.6342C45.6477 51.6342 45.6464 51.6342 45.645 51.6342C45.6436 51.6342 45.6422 51.6342 45.6408 51.6342C45.6395 51.6342 45.638 51.6342 45.6366 51.6342C45.6352 51.6342 45.6339 51.6342 45.6325 51.6342C45.6311 51.6342 45.6297 51.6342 45.6282 51.6342C45.6269 51.6342 45.6255 51.6342 45.6241 51.6342C45.6227 51.6342 45.6213 51.6342 45.6199 51.6342C45.6184 51.6342 45.6171 51.6342 45.6157 51.6342C45.6143 51.6342 45.6129 51.6342 45.6115 51.6342C45.6101 51.6342 45.6086 51.6342 45.6072 51.6342C45.6058 51.6342 45.6044 51.6342 45.6029 51.6342C45.6015 51.6342 45.6001 51.6342 45.5987 51.6342C45.5973 51.6342 45.5959 51.6342 45.5945 51.6342C45.5931 51.6342 45.5917 51.6342 45.5902 51.6342C45.5888 51.6342 45.5874 51.6342 45.586 51.6342C45.5845 51.6342 45.5831 51.6342 45.5817 51.6342C45.5803 51.6342 45.5788 51.6342 45.5774 51.6342C45.576 51.6342 45.5745 51.6342 45.5731 51.6342C45.5717 51.6342 45.5702 51.6342 45.5688 51.6342C45.5674 51.6342 45.566 51.6342 45.5645 51.6342C45.5631 51.6342 45.5617 51.6342 45.5603 51.6342C45.5588 51.6342 45.5574 51.6342 45.5559 51.6342C45.5545 51.6342 45.553 51.6342 45.5516 51.6342C45.5502 51.6342 45.5487 51.6342 45.5473 51.6342C45.5459 51.6342 45.5444 51.6342 45.5429 51.6342C45.5415 51.6342 45.54 51.6342 45.5386 51.6342C45.5372 51.6342 45.5357 51.6342 45.5343 51.6342C45.5328 51.6342 45.5314 51.6342 45.5299 51.6342C45.5285 51.6342 45.5271 51.6342 45.5256 51.6342C45.5241 51.6342 45.5227 51.6342 45.5212 51.6342C45.5198 51.6342 45.5183 51.6342 45.5168 51.6342C45.5154 51.6342 45.5139 51.6342 45.5125 51.6342C45.511 51.6342 45.5096 51.6342 45.5081 51.6342C45.5067 51.6342 45.5052 51.6342 45.5037 51.6342C45.5023 51.6342 45.5008 51.6342 45.4994 51.6342C45.4979 51.6342 45.4964 51.6342 45.495 51.6342C45.4935 51.6342 45.492 51.6342 45.4906 51.6342C45.4891 51.6342 45.4877 51.6342 45.4862 51.6342C45.4847 51.6342 45.4833 51.6342 45.4818 51.6342C45.4803 51.6342 45.4789 51.6342 45.4774 51.6342C45.4759 51.6342 45.4744 51.6342 45.473 51.6342C45.4715 51.6342 45.47 51.6342 45.4686 51.6342C45.4671 51.6342 45.4656 51.6342 45.4642 51.6342C45.4627 51.6342 45.4612 51.6342 45.4597 51.6342C45.4583 51.6342 45.4568 51.6342 45.4553 51.6342C45.4539 51.6342 45.4524 51.6342 45.4509 51.6342C45.4495 51.6342 45.448 51.6342 45.4465 51.6342C45.445 51.6342 45.4435 51.6342 45.442 51.6342C45.4406 51.6342 45.4391 51.6342 45.4376 51.6342C45.4362 51.6342 45.4347 51.6342 45.4332 51.6342C45.4317 51.6342 45.4302 51.6342 45.4288 51.6342C45.4273 51.6342 45.4258 51.6342 45.4243 51.6342C45.4228 51.6342 45.4213 51.6342 45.4199 51.6342C45.4184 51.6342 45.4169 51.6342 45.4154 51.6342C45.4139 51.6342 45.4125 51.6342 45.411 51.6342C45.4095 51.6342 45.408 51.6342 45.4065 51.6342C45.405 51.6342 45.4036 51.6342 45.402 51.6342C45.4006 51.6342 45.3991 51.6342 45.3976 51.6342C45.3962 51.6342 45.3946 51.6342 45.3932 51.6342C45.3917 51.6342 45.3902 51.6342 45.3887 51.6342C45.3872 51.6342 45.3858 51.6342 45.3843 51.6342C45.3828 51.6342 45.3813 51.6342 45.3798 51.6342C45.3783 51.6342 45.3768 51.6342 45.3753 51.6342C45.3739 51.6342 45.3724 51.6342 45.3709 51.6342C45.3694 51.6342 45.3679 51.6342 45.3664 51.6342C45.3649 51.6342 45.3635 51.6342 45.362 51.6342C45.3605 51.6342 45.359 51.6342 45.3575 51.6342C45.356 51.6342 45.3545 51.6342 45.353 51.6342C45.3516 51.6342 45.35 51.6342 45.3486 51.6342C45.3471 51.6342 45.3456 51.6342 45.3441 51.6342C45.3426 51.6342 45.3412 51.6342 45.3396 51.6342C45.3382 51.6342 45.3367 51.6342 45.3352 51.6342C45.3337 51.6342 45.3322 51.6342 45.3308 51.6342C45.3292 51.6342 45.3278 51.6342 45.3263 51.6342C45.3248 51.6342 45.3233 51.6342 45.3218 51.6342C45.3203 51.6342 45.3188 51.6342 45.3173 51.6342C45.3159 51.6342 45.3144 51.6342 45.3129 51.6342C45.3114 51.6342 45.3099 51.6342 45.3085 51.6342C45.3069 51.6342 45.3055 51.6342 45.304 51.6342C45.3025 51.6342 45.301 51.6342 45.2995 51.6342C45.298 51.6342 45.2966 51.6342 45.295 51.6342C45.2936 51.6342 45.2921 51.6342 45.2906 51.6342C45.2891 51.6342 45.2876 51.6342 45.2862 51.6342C45.2847 51.6342 45.2832 51.6342 45.2817 51.6342C45.2802 51.6342 45.2788 51.6342 45.2773 51.6342C45.2758 51.6342 45.2743 51.6342 45.2728 51.6342C45.2713 51.6342 45.2699 51.6342 45.2683 51.6342C45.2669 51.6342 45.2654 51.6342 45.2639 51.6342C45.2625 51.6342 45.2609 51.6342 45.2595 51.6342C45.258 51.6342 45.2565 51.6342 45.255 51.6342C45.2536 51.6342 45.2521 51.6342 45.2506 51.6342C45.2491 51.6342 45.2476 51.6342 45.2462 51.6342C45.2447 51.6342 45.2432 51.6342 45.2418 51.6342C45.2403 51.6342 45.2388 51.6342 45.2373 51.6342C45.2358 51.6342 45.2343 51.6342 45.2329 51.6342C45.2314 51.6342 45.2299 51.6342 45.2285 51.6342C45.227 51.6342 45.2255 51.6342 45.2241 51.6342C45.2226 51.6342 45.2211 51.6342 45.2196 51.6342C45.2182 51.6342 45.2167 51.6342 45.2152 51.6342C45.2138 51.6342 45.2123 51.6342 45.2108 51.6342C45.2094 51.6342 45.2079 51.6342 45.2064 51.6342C45.2049 51.6342 45.2035 51.6342 45.202 51.6342C45.2005 51.6342 45.1991 51.6342 45.1976 51.6342C45.1961 51.6342 45.1947 51.6342 45.1932 51.6342C45.1917 51.6342 45.1903 51.6342 45.1888 51.6342C45.1874 51.6342 45.1859 51.6342 45.1844 51.6342C45.183 51.6342 45.1815 51.6342 45.1801 51.6342C45.1786 51.6342 45.1771 51.6342 45.1757 51.6342C45.1742 51.6342 45.1728 51.6342 45.1713 51.6342C45.1698 51.6342 45.1684 51.6342 45.167 51.6342C45.1655 51.6342 45.164 51.6342 45.1626 51.6342C45.1612 51.6342 45.1597 51.6342 45.1582 51.6342C45.1568 51.6342 45.1553 51.6342 45.1539 51.6342C45.1525 51.6342 45.151 51.6342 45.1495 51.6342C45.1481 51.6342 45.1466 51.6342 45.1452 51.6342C45.1438 51.6342 45.1423 51.6342 45.1409 51.6342C45.1394 51.6342 45.138 51.6342 45.1365 51.6342C45.1351 51.6342 45.1337 51.6342 45.1322 51.6342C45.1308 51.6342 45.1294 51.6342 45.1279 51.6342C45.1265 51.6342 45.125 51.6342 45.1236 51.6342C45.1221 51.6342 45.1207 51.6342 45.1193 51.6342C45.1178 51.6342 45.1164 51.6342 45.115 51.6342C45.1136 51.6342 45.1122 51.6342 45.1107 51.6342C45.1093 51.6342 45.1079 51.6342 45.1064 51.6342C45.105 51.6342 45.1036 51.6342 45.1022 51.6342C45.1007 51.6342 45.0993 51.6342 45.0979 51.6342C45.0965 51.6342 45.095 51.6342 45.0936 51.6342C45.0922 51.6342 45.0908 51.6342 45.0894 51.6342C45.088 51.6342 45.0865 51.6342 45.0851 51.6342C45.0837 51.6342 45.0823 51.6342 45.0809 51.6342C45.0794 51.6342 45.078 51.6342 45.0766 51.6342C45.0752 51.6342 45.0738 51.6342 45.0724 51.6342C45.071 51.6342 45.0696 51.6342 45.0682 51.6342C45.0668 51.6342 45.0654 51.6342 45.0639 51.6342C45.0625 51.6342 45.0612 51.6342 45.0598 51.6342C45.0584 51.6342 45.057 51.6342 45.0556 51.6342C45.0542 51.6342 45.0528 51.6342 45.0514 51.6342C45.05 51.6342 45.0486 51.6342 45.0472 51.6342C45.0458 51.6342 45.0444 51.6342 45.0431 51.6342C45.0417 51.6342 45.0402 51.6342 45.0389 51.6342C45.0375 51.6342 45.0361 51.6342 45.0347 51.6342C45.0333 51.6342 45.032 51.6342 45.0306 51.6342C45.0292 51.6342 45.0278 51.6342 45.0265 51.6342C45.0251 51.6342 45.0237 51.6342 45.0224 51.6342C45.021 51.6342 45.0196 51.6342 45.0182 51.6342C45.0168 51.6342 45.0155 51.6342 45.0141 51.6342C45.0127 51.6342 45.0114 51.6342 45.01 51.6342C45.0086 51.6342 45.0073 51.6342 45.0059 51.6342C45.0046 51.6342 45.0032 51.6342 45.0018 51.6342C45.0005 51.6342 44.9991 51.6342 44.9978 51.6342C44.9965 51.6342 44.9951 51.6342 44.9938 51.6342C44.9924 51.6342 44.9911 51.6342 44.9897 51.6342C44.9884 51.6342 44.987 51.6342 44.9857 51.6342C44.9843 51.6342 44.983 51.6342 44.9816 51.6342C44.9803 51.6342 44.9789 51.6342 44.9776 51.6342C44.9763 51.6342 44.975 51.6342 44.9736 51.6342C44.9723 51.6342 44.971 51.6342 44.9696 51.6342C44.9683 51.6342 44.967 51.6342 44.9656 51.6342C44.9643 51.6342 44.963 51.6342 44.9617 51.6342C44.9603 51.6342 44.959 51.6342 44.9577 51.6342C44.9564 51.6342 44.955 51.6342 44.9538 51.6342C44.9524 51.6342 44.9511 51.6342 44.9498 51.6342C44.9485 51.6342 44.9472 51.6342 44.9459 51.6342C44.9446 51.6342 44.9433 51.6342 44.942 51.6342C44.9407 51.6342 44.9394 51.6342 44.9381 51.6342C44.9368 51.6342 44.9355 51.6342 44.9342 51.6342C44.9329 51.6342 44.9316 51.6342 44.9303 51.6342C44.929 51.6342 44.9277 51.6342 44.9264 51.6342C44.9252 51.6342 44.9239 51.6342 44.9226 51.6342C44.9213 51.6342 44.92 51.6342 44.9187 51.6342C44.9175 51.6342 44.9162 51.6342 44.9149 51.6342C44.9136 51.6342 44.9124 51.6342 44.9111 51.6342C44.9098 51.6342 44.9086 51.6342 44.9073 51.6342C44.906 51.6342 44.9048 51.6342 44.9035 51.6342C44.9022 51.6342 44.901 51.6342 44.8997 51.6342C44.8985 51.6342 44.8972 51.6342 44.896 51.6342C44.8947 51.6342 44.8935 51.6342 44.8922 51.6342C44.891 51.6342 44.8898 51.6342 44.8885 51.6342C44.8872 51.6342 44.886 51.6342 44.8848 51.6342C44.8835 51.6342 44.8823 51.6342 44.8811 51.6342C44.8798 51.6342 44.8786 51.6342 44.8774 51.6342C44.8762 51.6342 44.8749 51.6342 44.8737 51.6342C44.8725 51.6342 44.8713 51.6342 44.87 51.6342C44.8688 51.6342 44.8676 51.6342 44.8664 51.6342C44.8651 51.6342 44.8639 51.6342 44.8627 51.6342C44.8615 51.6342 44.8603 51.6342 44.8591 51.6342C44.8579 51.6342 44.8567 51.6342 44.8555 51.6342C44.8543 51.6342 44.8531 51.6342 44.8519 51.6342C44.8507 51.6342 44.8495 51.6342 44.8483 51.6342C44.8471 51.6342 44.846 51.6342 44.8447 51.6342C44.8436 51.6342 44.8424 51.6342 44.8412 51.6342C44.84 51.6342 44.8389 51.6342 44.8377 51.6342C44.8365 51.6342 44.8353 51.6342 44.8341 51.6342C44.833 51.6342 44.8318 51.6342 44.8306 51.6342C44.8295 51.6342 44.8283 51.6342 44.8272 51.6342C44.826 51.6342 44.8248 51.6342 44.8237 51.6342C44.8225 51.6342 44.8214 51.6342 44.8202 51.6342C44.8191 51.6342 44.8179 51.6342 44.8168 51.6342C44.8156 51.6342 44.8145 51.6342 44.8134 51.6342C44.8122 51.6342 44.8111 51.6342 44.8099 51.6342C44.8088 51.6342 44.8077 51.6342 44.8066 51.6342C44.8054 51.6342 44.8043 51.6342 44.8032 51.6342C44.802 51.6342 44.8009 51.6342 44.7998 51.6342C44.7987 51.6342 44.7976 51.6342 44.7965 51.6342C44.7954 51.6342 44.7943 51.6342 44.7932 51.6342C44.7921 51.6342 44.791 51.6342 44.7899 51.6342C44.7888 51.6342 44.7876 51.6342 44.7865 51.6342C44.7854 51.6342 44.7844 51.6342 44.7833 51.6342C44.7822 51.6342 44.7811 51.6342 44.7801 51.6342C44.7789 51.6342 44.7778 51.6342 44.7768 51.6342C44.7757 51.6342 44.7747 51.6342 44.7736 51.6342C44.7725 51.6342 44.7714 51.6342 44.7704 51.6342C44.7693 51.6342 44.7682 51.6342 44.7672 51.6342C44.7662 51.6342 44.7651 51.6342 44.764 51.6342C44.763 51.6342 44.7619 51.6342 44.7609 51.6342C44.7598 51.6342 44.7588 51.6342 44.7578 51.6342C44.7567 51.6342 44.7557 51.6342 44.7546 51.6342C44.7536 51.6342 44.7526 51.6342 44.7516 51.6342C44.7505 51.6342 44.7495 51.6342 44.7484 51.6342C44.7475 51.6342 44.7464 51.6342 44.7454 51.6342C44.7444 51.6342 44.7434 51.6342 44.7424 51.6342C44.7413 51.6342 44.7404 51.6342 44.7394 51.6342C44.7383 51.6342 44.7374 51.6342 44.7364 51.6342C44.7353 51.6342 44.7344 51.6342 44.7334 51.6342C44.7324 51.6342 44.7314 51.6342 44.7304 51.6342C44.7295 51.6342 44.7285 51.6342 44.7275 51.6342C44.7265 51.6342 44.7255 51.6342 44.7246 51.6342C44.7236 51.6342 44.7226 51.6342 44.7217 51.6342C44.7207 51.6342 44.7197 51.6342 44.7188 51.6342C44.7178 51.6342 44.7168 51.6342 44.7159 51.6342C44.7149 51.6342 44.714 51.6342 44.7131 51.6342C44.7121 51.6342 44.7112 51.6342 44.7102 51.6342C44.7093 51.6342 44.7084 51.6342 44.7075 51.6342C44.7066 51.6342 44.7056 51.6342 44.7047 51.6342C44.7037 51.6342 44.7028 51.6342 44.7019 51.6342C44.701 51.6342 44.7001 51.6342 44.6992 51.6342C44.6983 51.6342 44.6974 51.6342 44.6964 51.6342C44.6956 51.6342 44.6947 51.6342 44.6938 51.6342C44.6929 51.6342 44.692 51.6342 44.6911 51.6342C44.6902 51.6342 44.6893 51.6342 44.6884 51.6342C44.6876 51.6342 44.6867 51.6342 44.6858 51.6342C44.6849 51.6342 44.6841 51.6342 44.6832 51.6342C44.6824 51.6342 44.6814 51.6342 44.6806 51.6342C44.6797 51.6342 44.6789 51.6342 44.6781 51.6342C44.6772 51.6342 44.6764 51.6342 44.6755 51.6342C44.6746 51.6342 44.6738 51.6342 44.673 51.6342C44.6721 51.6342 44.6713 51.6342 44.6705 51.6342C44.6696 51.6342 44.6688 51.6342 44.668 51.6342C44.6672 51.6342 44.6664 51.6342 44.6655 51.6342C44.6647 51.6342 44.6639 51.6342 44.6631 51.6342C44.6623 51.6342 44.6615 51.6342 44.6607 51.6342C44.6599 51.6342 44.6591 51.6342 44.6583 51.6342C44.6575 51.6342 44.6568 51.6342 44.656 51.6342C44.6552 51.6342 44.6544 51.6342 44.6536 51.6342C44.6528 51.6342 44.652 51.6342 44.6513 51.6342C44.6505 51.6342 44.6498 51.6342 44.649 51.6342C44.6482 51.6342 44.6474 51.6342 44.6467 51.6342C44.646 51.6342 44.6452 51.6342 44.6444 51.6342C44.6437 51.6342 44.643 51.6342 44.6422 51.6342C44.6415 51.6342 44.6408 51.6342 44.64 51.6342C44.6393 51.6342 44.6386 51.6342 44.6379 51.6342C44.6372 51.6342 44.6364 51.6342 44.6357 51.6342C44.635 51.6342 44.6343 51.6342 44.6336 51.6342C44.6329 51.6342 44.6322 51.6342 44.6315 51.6342C44.6308 51.6342 44.6301 51.6342 44.6294 51.6342C44.6287 51.6342 44.628 51.6342 44.6274 51.6342C44.6267 51.6342 44.626 51.6342 44.6253 51.6342C44.6247 51.6342 44.624 51.6342 44.6233 51.6342C44.6226 51.6342 44.622 51.6342 44.6214 51.6342C44.6207 51.6342 44.6201 51.6342 44.6194 51.6342C44.6187 51.6342 44.6181 51.6342 44.6174 51.6342C44.6168 51.6342 44.6162 51.6342 44.6155 51.6342C44.6149 51.6342 44.6143 51.6342 44.6137 51.6342C44.6131 51.6342 44.6124 51.6342 44.6118 51.6342C44.6112 51.6342 44.6106 51.6342 44.61 51.6342C44.6094 51.6342 44.6088 51.6342 44.6082 51.6342C44.6076 51.6342 44.607 51.6342 44.6064 51.6342C44.6059 51.6342 44.6052 51.6342 44.6047 51.6342C44.6041 51.6342 44.6035 51.6342 44.603 51.6342C44.6024 51.6342 44.6018 51.6342 44.6013 51.6342C44.6007 51.6342 44.6002 51.6342 44.5996 51.6342C44.5991 51.6342 44.5985 51.6342 44.598 51.6342C44.5974 51.6342 44.5969 51.6342 44.5963 51.6342C44.5958 51.6342 44.5953 51.6342 44.5947 51.6342C44.5942 51.6342 44.5937 51.6342 44.5932 51.6342C44.5926 51.6342 44.5921 51.6342 44.5917 51.6342C44.5912 51.6342 44.5906 51.6342 44.5901 51.6342C44.5896 51.6342 44.5891 51.6342 44.5886 51.6342C44.5882 51.6342 44.5877 51.6342 44.5872 51.6342C44.5867 51.6342 44.5863 51.6342 44.5858 51.6342C44.5853 51.6342 44.5849 51.6342 44.5844 51.6342C44.5839 51.6342 44.5834 51.6342 44.583 51.6342C44.5825 51.6342 44.5821 51.6342 44.5817 51.6342C44.5812 51.6342 44.5808 51.6342 44.5804 51.6342C44.5799 51.6342 44.5795 51.6342 44.5791 51.6342C44.5787 51.6342 44.5782 51.6342 44.5778 51.6342C44.5774 51.6342 44.577 51.6342 44.5766 51.6342C44.5762 51.6342 44.5758 51.6342 44.5754 51.6342C44.575 51.6342 44.5746 51.6342 44.5742 51.6342C44.5738 51.6342 44.5735 51.6342 44.5731 51.6342C44.5727 51.6342 44.5723 51.6342 44.5719 51.6342C44.5716 51.6342 44.5713 51.6342 44.5709 51.6342C44.5705 51.6342 44.5702 51.6342 44.5698 51.6342C44.5695 51.6342 44.5691 51.6342 44.5688 51.6342C44.5684 51.6342 44.5681 51.6342 44.5678 51.6342C44.5675 51.6342 44.5671 51.6342 44.5668 51.6342C44.5665 51.6342 44.5662 51.6342 44.5659 51.6342C44.5656 51.6342 44.5653 51.6342 44.565 51.6342C44.5647 51.6342 44.5644 51.6342 44.5641 51.6342C44.5638 51.6342 44.5635 51.6342 44.5633 51.6342C44.563 51.6342 44.5627 51.6342 44.5624 51.6342C44.5622 51.6342 44.5619 51.6342 44.5616 51.6342C44.5614 51.6342 44.5611 51.6342 44.5609 51.6342C44.5607 51.6342 44.5604 51.6342 44.5602 51.6342C44.5599 51.6342 44.5597 51.6342 44.5595 51.6342C44.5592 51.6342 44.5591 51.6342 44.5588 51.6342C44.559 51.6342 44.5586 51.6342 44.5588 51.6342C44.5586 51.6342 44.5578 51.6342 44.5576 51.6342C44.5578 51.6342 44.5574 51.6342 44.5576 51.6342C44.5574 51.6342 44.5567 51.6342 44.5565 51.6342C44.5566 51.6342 44.5563 51.6342 44.5565 51.6342C44.5563 51.6342 44.5557 51.6342 44.5555 51.6342C44.5556 51.6342 44.5554 51.6342 44.5555 51.6342C44.5553 51.6342 44.5548 51.6342 44.5547 51.6342C44.5548 51.6342 44.5545 51.6342 44.5547 51.6342C44.5545 51.6342 44.554 51.6342 44.5539 51.6342C44.5538 51.6342 44.5532 51.6342 44.5531 51.6342C44.5531 51.6342 44.5524 51.6342 44.5524 51.6342C44.5525 51.6342 44.5524 51.6342 44.5524 51.6342C44.5524 51.6342 44.5523 51.6342 44.5523 33.4351C44.5523 15.2358 44.5523 15.2358 44.5523 15.2358C44.5523 15.2358 44.553 15.2358 44.5531 15.2358C44.5532 15.2358 44.5538 15.2358 44.5539 15.2358C44.5538 15.2358 44.554 15.2358 44.5539 15.2358C44.554 15.2358 44.5545 15.2358 44.5547 15.2358C44.5545 15.2358 44.5548 15.2358 44.5547 15.2358C44.5548 15.2358 44.5554 15.2358 44.5555 15.2358C44.5553 15.2358 44.5557 15.2358 44.5555 15.2358C44.5556 15.2358 44.5563 15.2358 44.5565 15.2358C44.5563 15.2358 44.5567 15.2358 44.5565 15.2358C44.5567 15.2358 44.5574 15.2358 44.5576 15.2358C44.5574 15.2358 44.5578 15.2358 44.5576 15.2358C44.5578 15.2358 44.5586 15.2358 44.5588 15.2358C44.5591 15.2358 44.5592 15.2358 44.5595 15.2358C44.5597 15.2358 44.5599 15.2358 44.5602 15.2358C44.5604 15.2358 44.5607 15.2358 44.5609 15.2358C44.5611 15.2358 44.5614 15.2358 44.5616 15.2358C44.5619 15.2358 44.5622 15.2358 44.5624 15.2358C44.5627 15.2358 44.563 15.2358 44.5633 15.2358C44.5635 15.2358 44.5638 15.2358 44.5641 15.2358C44.5644 15.2358 44.5647 15.2358 44.565 15.2358C44.5653 15.2358 44.5656 15.2358 44.5659 15.2358C44.5662 15.2358 44.5665 15.2358 44.5668 15.2358C44.5671 15.2358 44.5675 15.2358 44.5678 15.2358C44.5681 15.2358 44.5684 15.2358 44.5688 15.2358C44.5691 15.2358 44.5695 15.2358 44.5698 15.2358C44.5702 15.2358 44.5705 15.2358 44.5709 15.2358C44.5713 15.2358 44.5716 15.2358 44.5719 15.2358C44.5723 15.2358 44.5727 15.2358 44.5731 15.2358C44.5735 15.2358 44.5738 15.2358 44.5742 15.2358C44.5746 15.2358 44.575 15.2358 44.5754 15.2358C44.5758 15.2358 44.5762 15.2358 44.5766 15.2358C44.577 15.2358 44.5774 15.2358 44.5778 15.2358C44.5782 15.2358 44.5787 15.2358 44.5791 15.2358C44.5795 15.2358 44.5799 15.2358 44.5804 15.2358C44.5808 15.2358 44.5812 15.2358 44.5817 15.2358C44.5821 15.2358 44.5825 15.2358 44.583 15.2358C44.5834 15.2358 44.5839 15.2358 44.5844 15.2358C44.5849 15.2358 44.5853 15.2358 44.5858 15.2358C44.5863 15.2358 44.5867 15.2358 44.5872 15.2358C44.5877 15.2358 44.5882 15.2358 44.5886 15.2358C44.5891 15.2358 44.5896 15.2358 44.5901 15.2358C44.5906 15.2358 44.5912 15.2358 44.5917 15.2358C44.5921 15.2358 44.5926 15.2358 44.5932 15.2358C44.5937 15.2358 44.5942 15.2358 44.5947 15.2358C44.5953 15.2358 44.5958 15.2358 44.5963 15.2358C44.5969 15.2358 44.5974 15.2358 44.598 15.2358C44.5985 15.2358 44.5991 15.2358 44.5996 15.2358C44.6002 15.2358 44.6007 15.2358 44.6013 15.2358C44.6018 15.2358 44.6024 15.2358 44.603 15.2358C44.6035 15.2358 44.6041 15.2358 44.6047 15.2358C44.6052 15.2358 44.6059 15.2358 44.6064 15.2358C44.607 15.2358 44.6076 15.2358 44.6082 15.2358C44.6088 15.2358 44.6094 15.2358 44.61 15.2358C44.6106 15.2358 44.6112 15.2358 44.6118 15.2358C44.6124 15.2358 44.6131 15.2358 44.6137 15.2358C44.6143 15.2358 44.6149 15.2358 44.6155 15.2358C44.6162 15.2358 44.6168 15.2358 44.6174 15.2358C44.6181 15.2358 44.6187 15.2358 44.6194 15.2358C44.6201 15.2358 44.6207 15.2358 44.6214 15.2358C44.622 15.2358 44.6226 15.2358 44.6233 15.2358C44.624 15.2358 44.6247 15.2358 44.6253 15.2358C44.626 15.2358 44.6267 15.2358 44.6274 15.2358C44.628 15.2358 44.6287 15.2358 44.6294 15.2358C44.6301 15.2358 44.6308 15.2358 44.6315 15.2358C44.6322 15.2358 44.6329 15.2358 44.6336 15.2358C44.6343 15.2358 44.635 15.2358 44.6357 15.2358C44.6364 15.2358 44.6372 15.2358 44.6379 15.2358C44.6386 15.2358 44.6393 15.2358 44.64 15.2358C44.6408 15.2358 44.6415 15.2358 44.6422 15.2358C44.643 15.2358 44.6437 15.2358 44.6444 15.2358C44.6452 15.2358 44.646 15.2358 44.6467 15.2358C44.6474 15.2358 44.6482 15.2358 44.649 15.2358C44.6498 15.2358 44.6505 15.2358 44.6513 15.2358C44.652 15.2358 44.6528 15.2358 44.6536 15.2358C44.6544 15.2358 44.6552 15.2358 44.656 15.2358C44.6568 15.2358 44.6575 15.2358 44.6583 15.2358C44.6591 15.2358 44.6599 15.2358 44.6607 15.2358C44.6615 15.2358 44.6623 15.2358 44.6631 15.2358C44.6639 15.2358 44.6647 15.2358 44.6655 15.2358C44.6664 15.2358 44.6672 15.2358 44.668 15.2358C44.6688 15.2358 44.6696 15.2358 44.6705 15.2358C44.6713 15.2358 44.6721 15.2358 44.673 15.2358C44.6738 15.2358 44.6746 15.2358 44.6755 15.2358C44.6764 15.2358 44.6772 15.2358 44.6781 15.2358C44.6789 15.2358 44.6797 15.2358 44.6806 15.2358C44.6814 15.2358 44.6824 15.2358 44.6832 15.2358C44.6841 15.2358 44.6849 15.2358 44.6858 15.2358C44.6867 15.2358 44.6876 15.2358 44.6884 15.2358C44.6893 15.2358 44.6902 15.2358 44.6911 15.2358C44.692 15.2358 44.6929 15.2358 44.6938 15.2358C44.6947 15.2358 44.6956 15.2358 44.6964 15.2358C44.6974 15.2358 44.6983 15.2358 44.6992 15.2358C44.7001 15.2358 44.701 15.2358 44.7019 15.2358C44.7028 15.2358 44.7037 15.2358 44.7047 15.2358C44.7056 15.2358 44.7066 15.2358 44.7075 15.2358C44.7084 15.2358 44.7093 15.2358 44.7102 15.2358C44.7112 15.2358 44.7121 15.2358 44.7131 15.2358C44.714 15.2358 44.7149 15.2358 44.7159 15.2358C44.7168 15.2358 44.7178 15.2358 44.7188 15.2358C44.7197 15.2358 44.7207 15.2358 44.7217 15.2358C44.7226 15.2358 44.7236 15.2358 44.7246 15.2358C44.7255 15.2358 44.7265 15.2358 44.7275 15.2358C44.7285 15.2358 44.7295 15.2358 44.7304 15.2358C44.7314 15.2358 44.7324 15.2358 44.7334 15.2358C44.7344 15.2358 44.7353 15.2358 44.7364 15.2358C44.7374 15.2358 44.7383 15.2358 44.7394 15.2358C44.7404 15.2358 44.7413 15.2358 44.7424 15.2358C44.7434 15.2358 44.7444 15.2358 44.7454 15.2358C44.7464 15.2358 44.7475 15.2358 44.7484 15.2358C44.7495 15.2358 44.7505 15.2358 44.7516 15.2358C44.7526 15.2358 44.7536 15.2358 44.7546 15.2358C44.7557 15.2358 44.7567 15.2358 44.7578 15.2358C44.7588 15.2358 44.7598 15.2358 44.7609 15.2358C44.7619 15.2358 44.763 15.2358 44.764 15.2358C44.7651 15.2358 44.7662 15.2358 44.7672 15.2358C44.7682 15.2358 44.7693 15.2358 44.7704 15.2358C44.7714 15.2358 44.7725 15.2358 44.7736 15.2358C44.7747 15.2358 44.7757 15.2358 44.7768 15.2358C44.7778 15.2358 44.7789 15.2358 44.7801 15.2358C44.7811 15.2358 44.7822 15.2358 44.7833 15.2358C44.7844 15.2358 44.7854 15.2358 44.7865 15.2358C44.7876 15.2358 44.7888 15.2358 44.7899 15.2358C44.791 15.2358 44.7921 15.2358 44.7932 15.2358C44.7943 15.2358 44.7954 15.2358 44.7965 15.2358C44.7976 15.2358 44.7987 15.2358 44.7998 15.2358C44.8009 15.2358 44.802 15.2358 44.8032 15.2358C44.8043 15.2358 44.8054 15.2358 44.8066 15.2358C44.8077 15.2358 44.8088 15.2358 44.8099 15.2358C44.8111 15.2358 44.8122 15.2358 44.8134 15.2358C44.8145 15.2358 44.8156 15.2358 44.8168 15.2358C44.8179 15.2358 44.8191 15.2358 44.8202 15.2358C44.8214 15.2358 44.8225 15.2358 44.8237 15.2358C44.8248 15.2358 44.826 15.2358 44.8272 15.2358C44.8283 15.2358 44.8295 15.2358 44.8306 15.2358C44.8318 15.2358 44.833 15.2358 44.8341 15.2358C44.8353 15.2358 44.8365 15.2358 44.8377 15.2358C44.8389 15.2358 44.84 15.2358 44.8412 15.2358C44.8424 15.2358 44.8436 15.2358 44.8447 15.2358C44.846 15.2358 44.8471 15.2358 44.8483 15.2358C44.8495 15.2358 44.8507 15.2358 44.8519 15.2358C44.8531 15.2358 44.8543 15.2358 44.8555 15.2358C44.8567 15.2358 44.8579 15.2358 44.8591 15.2358C44.8603 15.2358 44.8615 15.2358 44.8627 15.2358C44.8639 15.2358 44.8651 15.2358 44.8664 15.2358C44.8676 15.2358 44.8688 15.2358 44.87 15.2358C44.8713 15.2358 44.8725 15.2358 44.8737 15.2358C44.8749 15.2358 44.8762 15.2358 44.8774 15.2358C44.8786 15.2358 44.8798 15.2358 44.8811 15.2358C44.8823 15.2358 44.8835 15.2358 44.8848 15.2358C44.886 15.2358 44.8872 15.2358 44.8885 15.2358C44.8898 15.2358 44.891 15.2358 44.8922 15.2358C44.8935 15.2358 44.8947 15.2358 44.896 15.2358C44.8972 15.2358 44.8985 15.2358 44.8997 15.2358C44.901 15.2358 44.9022 15.2358 44.9035 15.2358C44.9048 15.2358 44.906 15.2358 44.9073 15.2358C44.9086 15.2358 44.9098 15.2358 44.9111 15.2358C44.9124 15.2358 44.9136 15.2358 44.9149 15.2358C44.9162 15.2358 44.9175 15.2358 44.9187 15.2358C44.92 15.2358 44.9213 15.2358 44.9226 15.2358C44.9239 15.2358 44.9252 15.2358 44.9264 15.2358C44.9277 15.2358 44.929 15.2358 44.9303 15.2358C44.9316 15.2358 44.9329 15.2358 44.9342 15.2358C44.9355 15.2358 44.9368 15.2358 44.9381 15.2358C44.9394 15.2358 44.9407 15.2358 44.942 15.2358C44.9433 15.2358 44.9446 15.2358 44.9459 15.2358C44.9472 15.2358 44.9485 15.2358 44.9498 15.2358C44.9511 15.2358 44.9524 15.2358 44.9538 15.2358C44.955 15.2358 44.9564 15.2358 44.9577 15.2358C44.959 15.2358 44.9603 15.2358 44.9617 15.2358C44.963 15.2358 44.9643 15.2358 44.9656 15.2358C44.967 15.2358 44.9683 15.2358 44.9696 15.2358C44.971 15.2358 44.9723 15.2358 44.9736 15.2358C44.975 15.2358 44.9763 15.2358 44.9776 15.2358C44.9789 15.2358 44.9803 15.2358 44.9816 15.2358C44.983 15.2358 44.9843 15.2358 44.9857 15.2358C44.987 15.2358 44.9884 15.2358 44.9897 15.2358C44.9911 15.2358 44.9924 15.2358 44.9938 15.2358C44.9951 15.2358 44.9965 15.2358 44.9978 15.2358C44.9991 15.2358 45.0005 15.2358 45.0018 15.2358C45.0032 15.2358 45.0046 15.2358 45.0059 15.2358C45.0073 15.2358 45.0086 15.2358 45.01 15.2358C45.0114 15.2358 45.0127 15.2358 45.0141 15.2358C45.0155 15.2358 45.0168 15.2358 45.0182 15.2358C45.0196 15.2358 45.021 15.2358 45.0224 15.2358C45.0237 15.2358 45.0251 15.2358 45.0265 15.2358C45.0278 15.2358 45.0292 15.2358 45.0306 15.2358C45.032 15.2358 45.0333 15.2358 45.0347 15.2358C45.0361 15.2358 45.0375 15.2358 45.0389 15.2358C45.0402 15.2358 45.0417 15.2358 45.0431 15.2358C45.0444 15.2358 45.0458 15.2358 45.0472 15.2358C45.0486 15.2358 45.05 15.2358 45.0514 15.2358C45.0528 15.2358 45.0542 15.2358 45.0556 15.2358C45.057 15.2358 45.0584 15.2358 45.0598 15.2358C45.0612 15.2358 45.0625 15.2358 45.0639 15.2358C45.0654 15.2358 45.0668 15.2358 45.0682 15.2358C45.0696 15.2358 45.071 15.2358 45.0724 15.2358C45.0738 15.2358 45.0752 15.2358 45.0766 15.2358C45.078 15.2358 45.0794 15.2358 45.0809 15.2358C45.0823 15.2358 45.0837 15.2358 45.0851 15.2358C45.0865 15.2358 45.088 15.2358 45.0894 15.2358C45.0908 15.2358 45.0922 15.2358 45.0936 15.2358C45.095 15.2358 45.0965 15.2358 45.0979 15.2358C45.0993 15.2358 45.1007 15.2358 45.1022 15.2358C45.1036 15.2358 45.105 15.2358 45.1064 15.2358C45.1079 15.2358 45.1093 15.2358 45.1107 15.2358C45.1122 15.2358 45.1136 15.2358 45.115 15.2358C45.1164 15.2358 45.1178 15.2358 45.1193 15.2358C45.1207 15.2358 45.1221 15.2358 45.1236 15.2358C45.125 15.2358 45.1265 15.2358 45.1279 15.2358C45.1294 15.2358 45.1308 15.2358 45.1322 15.2358C45.1337 15.2358 45.1351 15.2358 45.1365 15.2358C45.138 15.2358 45.1394 15.2358 45.1409 15.2358C45.1423 15.2358 45.1438 15.2358 45.1452 15.2358C45.1466 15.2358 45.1481 15.2358 45.1495 15.2358C45.151 15.2358 45.1525 15.2358 45.1539 15.2358C45.1553 15.2358 45.1568 15.2358 45.1582 15.2358C45.1597 15.2358 45.1612 15.2358 45.1626 15.2358C45.164 15.2358 45.1655 15.2358 45.167 15.2358C45.1684 15.2358 45.1698 15.2358 45.1713 15.2358C45.1728 15.2358 45.1742 15.2358 45.1757 15.2358C45.1771 15.2358 45.1786 15.2358 45.1801 15.2358C45.1815 15.2358 45.183 15.2358 45.1844 15.2358C45.1859 15.2358 45.1874 15.2358 45.1888 15.2358C45.1903 15.2358 45.1917 15.2358 45.1932 15.2358C45.1947 15.2358 45.1961 15.2358 45.1976 15.2358C45.1991 15.2358 45.2005 15.2358 45.202 15.2358C45.2035 15.2358 45.2049 15.2358 45.2064 15.2358C45.2079 15.2358 45.2094 15.2358 45.2108 15.2358C45.2123 15.2358 45.2138 15.2358 45.2152 15.2358C45.2167 15.2358 45.2182 15.2358 45.2196 15.2358C45.2211 15.2358 45.2226 15.2358 45.2241 15.2358C45.2255 15.2358 45.227 15.2358 45.2285 15.2358C45.2299 15.2358 45.2314 15.2358 45.2329 15.2358C45.2343 15.2358 45.2358 15.2358 45.2373 15.2358C45.2388 15.2358 45.2403 15.2358 45.2418 15.2358C45.2432 15.2358 45.2447 15.2358 45.2462 15.2358C45.2476 15.2358 45.2491 15.2358 45.2506 15.2358C45.2521 15.2358 45.2536 15.2358 45.255 15.2358C45.2565 15.2358 45.258 15.2358 45.2595 15.2358C45.2609 15.2358 45.2625 15.2358 45.2639 15.2358C45.2654 15.2358 45.2669 15.2358 45.2683 15.2358C45.2699 15.2358 45.2713 15.2358 45.2728 15.2358C45.2743 15.2358 45.2758 15.2358 45.2773 15.2358C45.2788 15.2358 45.2802 15.2358 45.2817 15.2358C45.2832 15.2358 45.2847 15.2358 45.2862 15.2358C45.2876 15.2358 45.2891 15.2358 45.2906 15.2358C45.2921 15.2358 45.2936 15.2358 45.295 15.2358C45.2966 15.2358 45.298 15.2358 45.2995 15.2358C45.301 15.2358 45.3025 15.2358 45.304 15.2358C45.3055 15.2358 45.3069 15.2358 45.3085 15.2358C45.3099 15.2358 45.3114 15.2358 45.3129 15.2358C45.3144 15.2358 45.3159 15.2358 45.3173 15.2358C45.3188 15.2358 45.3203 15.2358 45.3218 15.2358C45.3233 15.2358 45.3248 15.2358 45.3263 15.2358C45.3278 15.2358 45.3292 15.2358 45.3308 15.2358C45.3322 15.2358 45.3337 15.2358 45.3352 15.2358C45.3367 15.2358 45.3382 15.2358 45.3396 15.2358C45.3412 15.2358 45.3426 15.2358 45.3441 15.2358C45.3456 15.2358 45.3471 15.2358 45.3486 15.2358C45.35 15.2358 45.3516 15.2358 45.353 15.2358C45.3545 15.2358 45.356 15.2358 45.3575 15.2358C45.359 15.2358 45.3605 15.2358 45.362 15.2358C45.3635 15.2358 45.3649 15.2358 45.3664 15.2358C45.3679 15.2358 45.3694 15.2358 45.3709 15.2358C45.3724 15.2358 45.3739 15.2358 45.3753 15.2358C45.3768 15.2358 45.3783 15.2358 45.3798 15.2358C45.3813 15.2358 45.3828 15.2358 45.3843 15.2358C45.3858 15.2358 45.3872 15.2358 45.3887 15.2358C45.3902 15.2358 45.3917 15.2358 45.3932 15.2358C45.3946 15.2358 45.3962 15.2358 45.3976 15.2358C45.3991 15.2358 45.4006 15.2358 45.402 15.2358C45.4036 15.2358 45.405 15.2358 45.4065 15.2358C45.408 15.2358 45.4095 15.2358 45.411 15.2358C45.4125 15.2358 45.4139 15.2358 45.4154 15.2358C45.4169 15.2358 45.4184 15.2358 45.4199 15.2358C45.4213 15.2358 45.4228 15.2358 45.4243 15.2358C45.4258 15.2358 45.4273 15.2358 45.4288 15.2358C45.4302 15.2358 45.4317 15.2358 45.4332 15.2358C45.4347 15.2358 45.4362 15.2358 45.4376 15.2358C45.4391 15.2358 45.4406 15.2358 45.442 15.2358C45.4435 15.2358 45.445 15.2358 45.4465 15.2358C45.448 15.2358 45.4495 15.2358 45.4509 15.2358C45.4524 15.2358 45.4539 15.2358 45.4553 15.2358C45.4568 15.2358 45.4583 15.2358 45.4597 15.2358C45.4612 15.2358 45.4627 15.2358 45.4642 15.2358C45.4656 15.2358 45.4671 15.2358 45.4686 15.2358C45.47 15.2358 45.4715 15.2358 45.473 15.2358C45.4744 15.2358 45.4759 15.2358 45.4774 15.2358C45.4789 15.2358 45.4803 15.2358 45.4818 15.2358C45.4833 15.2358 45.4847 15.2358 45.4862 15.2358C45.4877 15.2358 45.4891 15.2358 45.4906 15.2358C45.492 15.2358 45.4935 15.2358 45.495 15.2358C45.4964 15.2358 45.4979 15.2358 45.4994 15.2358C45.5008 15.2358 45.5023 15.2358 45.5037 15.2358C45.5052 15.2358 45.5067 15.2358 45.5081 15.2358C45.5096 15.2358 45.511 15.2358 45.5125 15.2358C45.5139 15.2358 45.5154 15.2358 45.5168 15.2358C45.5183 15.2358 45.5198 15.2358 45.5212 15.2358C45.5227 15.2358 45.5241 15.2358 45.5256 15.2358C45.5271 15.2358 45.5285 15.2358 45.5299 15.2358C45.5314 15.2358 45.5328 15.2358 45.5343 15.2358C45.5357 15.2358 45.5372 15.2358 45.5386 15.2358C45.54 15.2358 45.5415 15.2358 45.5429 15.2358C45.5444 15.2358 45.5459 15.2358 45.5473 15.2358C45.5487 15.2358 45.5502 15.2358 45.5516 15.2358C45.553 15.2358 45.5545 15.2358 45.5559 15.2358C45.5574 15.2358 45.5588 15.2358 45.5603 15.2358C45.5617 15.2358 45.5631 15.2358 45.5645 15.2358C45.566 15.2358 45.5674 15.2358 45.5688 15.2358C45.5702 15.2358 45.5717 15.2358 45.5731 15.2358C45.5745 15.2358 45.576 15.2358 45.5774 15.2358C45.5788 15.2358 45.5803 15.2358 45.5817 15.2358C45.5831 15.2358 45.5845 15.2358 45.586 15.2358C45.5874 15.2358 45.5888 15.2358 45.5902 15.2358C45.5917 15.2358 45.5931 15.2358 45.5945 15.2358C45.5959 15.2358 45.5973 15.2358 45.5987 15.2358C45.6001 15.2358 45.6015 15.2358 45.6029 15.2358C45.6044 15.2358 45.6058 15.2358 45.6072 15.2358C45.6086 15.2358 45.6101 15.2358 45.6115 15.2358C45.6129 15.2358 45.6143 15.2358 45.6157 15.2358C45.6171 15.2358 45.6184 15.2358 45.6199 15.2358C45.6213 15.2358 45.6227 15.2358 45.6241 15.2358C45.6255 15.2358 45.6269 15.2358 45.6282 15.2358C45.6297 15.2358 45.6311 15.2358 45.6325 15.2358C45.6339 15.2358 45.6352 15.2358 45.6366 15.2358C45.638 15.2358 45.6395 15.2358 45.6408 15.2358C45.6422 15.2358 45.6436 15.2358 45.645 15.2358C45.6464 15.2358 45.6477 15.2358 45.6491 15.2358C45.6505 15.2358 45.6519 15.2358 45.6533 15.2358C45.6546 15.2358 45.6561 15.2358 45.6574 15.2358C45.6588 15.2358 45.6602 15.2358 45.6616 15.2358C45.6629 15.2358 45.6643 15.2358 45.6657 15.2358C45.667 15.2358 45.6684 15.2358 45.6698 15.2358C45.6711 15.2358 45.6725 15.2358 45.6739 15.2358C45.6752 15.2358 45.6766 15.2358 45.6779 15.2358C45.6793 15.2358 45.6807 15.2358 45.682 15.2358C45.6834 15.2358 45.6847 15.2358 45.6861 15.2358C45.6875 15.2358 45.6888 15.2358 45.6902 15.2358C45.6915 15.2358 45.6929 15.2358 45.6942 15.2358C45.6956 15.2358 45.6969 15.2358 45.6983 15.2358C45.6996 15.2358 45.7009 15.2358 45.7023 15.2358C45.7036 15.2358 45.7049 15.2358 45.7063 15.2358C45.7076 15.2358 45.709 15.2358 45.7103 15.2358C45.7116 15.2358 45.713 15.2358 45.7143 15.2358C45.7156 15.2358 45.7169 15.2358 45.7183 15.2358C45.7196 15.2358 45.7209 15.2358 45.7223 15.2358C45.7236 15.2358 45.7249 15.2358 45.7262 15.2358C45.7275 15.2358 45.7288 15.2358 45.7302 15.2358C45.7314 15.2358 45.7328 15.2358 45.7341 15.2358C45.7354 15.2358 45.7367 15.2358 45.738 15.2358C45.7394 15.2358 45.7406 15.2358 45.7419 15.2358C45.7433 15.2358 45.7446 15.2358 45.7458 15.2358C45.7471 15.2358 45.7484 15.2358 45.7498 15.2358C45.7511 15.2358 45.7523 15.2358 45.7536 15.2358C45.7549 15.2358 45.7562 15.2358 45.7575 15.2358C45.7588 15.2358 45.7601 15.2358 45.7613 15.2358C45.7626 15.2358 45.7639 15.2358 45.7652 15.2358C45.7665 15.2358 45.7678 15.2358 45.769 15.2358C45.7703 15.2358 45.7716 15.2358 45.7729 15.2358C45.7741 15.2358 45.7754 15.2358 45.7767 15.2358C45.7779 15.2358 45.7792 15.2358 45.7804 15.2358C45.7817 15.2358 45.783 15.2358 45.7842 15.2358C45.7855 15.2358 45.7868 15.2358 45.788 15.2358C45.7893 15.2358 45.7905 15.2358 45.7917 15.2358C45.793 15.2358 45.7942 15.2358 45.7955 15.2358C45.7967 15.2358 45.798 15.2358 45.7992 15.2358C45.8004 15.2358 45.8017 15.2358 45.8029 15.2358C45.8042 15.2358 45.8054 15.2358 45.8066 15.2358C45.8078 15.2358 45.8091 15.2358 45.8103 15.2358C45.8115 15.2358 45.8127 15.2358 45.814 15.2358C45.8152 15.2358 45.8164 15.2358 45.8176 15.2358C45.8189 15.2358 45.8201 15.2358 45.8213 15.2358C45.8225 15.2358 45.8237 15.2358 45.8249 15.2358C45.8261 15.2358 45.8273 15.2358 45.8285 15.2358C45.8297 15.2358 45.8309 15.2358 45.8321 15.2358C45.8333 15.2358 45.8345 15.2358 45.8357 15.2358C45.8369 15.2358 45.8381 15.2358 45.8392 15.2358C45.8405 15.2358 45.8416 15.2358 45.8428 15.2358C45.844 15.2358 45.8452 15.2358 45.8464 15.2358C45.8475 15.2358 45.8487 15.2358 45.8499 15.2358C45.8511 15.2358 45.8522 15.2358 45.8534 15.2358C45.8546 15.2358 45.8557 15.2358 45.8569 15.2358C45.8581 15.2358 45.8592 15.2358 45.8604 15.2358C45.8615 15.2358 45.8626 15.2358 45.8638 15.2358C45.865 15.2358 45.8661 15.2358 45.8672 15.2358C45.8684 15.2358 45.8696 15.2358 45.8707 15.2358C45.8718 15.2358 45.8729 15.2358 45.8741 15.2358C45.8752 15.2358 45.8764 15.2358 45.8775 15.2358C45.8786 15.2358 45.8797 15.2358 45.8809 15.2358C45.882 15.2358 45.8831 15.2358 45.8842 15.2358C45.8854 15.2358 45.8865 15.2358 45.8876 15.2358C45.8887 15.2358 45.8898 15.2358 45.8909 15.2358C45.892 15.2358 45.8932 15.2358 45.8943 15.2358C45.8953 15.2358 45.8964 15.2358 45.8975 15.2358C45.8986 15.2358 45.8997 15.2358 45.9008 15.2358C45.9019 15.2358 45.903 15.2358 45.9041 15.2358C45.9052 15.2358 45.9062 15.2358 45.9073 15.2358C45.9084 15.2358 45.9094 15.2358 45.9105 15.2358C45.9116 15.2358 45.9127 15.2358 45.9137 15.2358C45.9148 15.2358 45.9159 15.2358 45.9169 15.2358C45.918 15.2358 45.9191 15.2358 45.9201 15.2358C45.9211 15.2358 45.9222 15.2358 45.9232 15.2358C45.9243 15.2358 45.9254 15.2358 45.9264 15.2358C45.9275 15.2358 45.9284 15.2358 45.9295 15.2358C45.9305 15.2358 45.9316 15.2358 45.9326 15.2358C45.9336 15.2358 45.9347 15.2358 45.9357 15.2358C45.9367 15.2358 45.9377 15.2358 45.9387 15.2358C45.9398 15.2358 45.9407 15.2358 45.9418 15.2358C45.9428 15.2358 45.9438 15.2358 45.9448 15.2358C45.9458 15.2358 45.9468 15.2358 45.9478 15.2358C45.9488 15.2358 45.9498 15.2358 45.9508 15.2358C45.9518 15.2358 45.9527 15.2358 45.9537 15.2358C45.9547 15.2358 45.9557 15.2358 45.9567 15.2358C45.9576 15.2358 45.9586 15.2358 45.9596 15.2358C45.9606 15.2358 45.9616 15.2358 45.9625 15.2358C45.9635 15.2358 45.9644 15.2358 45.9654 15.2358C45.9663 15.2358 45.9673 15.2358 45.9683 15.2358C45.9692 15.2358 45.9702 15.2358 45.9711 15.2358C45.9721 15.2358 45.973 15.2358 45.9739 15.2358C45.9749 15.2358 45.9758 15.2358 45.9768 15.2358C45.9777 15.2358 45.9786 15.2358 45.9795 15.2358C45.9805 15.2358 45.9814 15.2358 45.9823 15.2358C45.9833 15.2358 45.9842 15.2358 45.985 15.2358C45.9859 15.2358 45.9869 15.2358 45.9878 15.2358C45.9887 15.2358 45.9896 15.2358 45.9905 15.2358C45.9914 15.2358 45.9923 15.2358 45.9932 15.2358C45.994 15.2358 45.9949 15.2358 45.9958 15.2358C45.9967 15.2358 45.9976 15.2358 45.9984 15.2358C45.9993 15.2358 46.0002 15.2358 46.0011 15.2358C46.0019 15.2358 46.0028 15.2358 46.0036 15.2358C46.0045 15.2358 46.0054 15.2358 46.0062 15.2358C46.0071 15.2358 46.0079 15.2358 46.0088 15.2358C46.0096 15.2358 46.0104 15.2358 46.0113 15.2358C46.0122 15.2358 46.013 15.2358 46.0138 15.2358C46.0147 15.2358 46.0155 15.2358 46.0163 15.2358C46.0171 15.2358 46.0179 15.2358 46.0188 15.2358C46.0196 15.2358 46.0204 15.2358 46.0212 15.2358C46.022 15.2358 46.0228 15.2358 46.0236 15.2358C46.0244 15.2358 46.0252 15.2358 46.026 15.2358C46.0268 15.2358 46.0276 15.2358 46.0284 15.2358C46.0292 15.2358 46.0299 15.2358 46.0307 15.2358C46.0315 15.2358 46.0323 15.2358 46.033 15.2358C46.0338 15.2358 46.0346 15.2358 46.0354 15.2358C46.0361 15.2358 46.0369 15.2358 46.0376 15.2358C46.0384 15.2358 46.0391 15.2358 46.0399 15.2358C46.0406 15.2358 46.0414 15.2358 46.0421 15.2358C46.0428 15.2358 46.0436 15.2358 46.0443 15.2358C46.045 15.2358 46.0458 15.2358 46.0465 15.2358C46.0473 15.2358 46.0479 15.2358 46.0487 15.2358C46.0494 15.2358 46.0501 15.2358 46.0508 15.2358C46.0515 15.2358 46.0522 15.2358 46.0529 15.2358C46.0536 15.2358 46.0543 15.2358 46.055 15.2358C46.0557 15.2358 46.0564 15.2358 46.0571 15.2358C46.0577 15.2358 46.0584 15.2358 46.0591 15.2358C46.0597 15.2358 46.0604 15.2358 46.0611 15.2358C46.0618 15.2358 46.0624 15.2358 46.0631 15.2358C46.0637 15.2358 46.0644 15.2358 46.065 15.2358C46.0657 15.2358 46.0664 15.2358 46.067 15.2358C46.0677 15.2358 46.0683 15.2358 46.0689 15.2358C46.0695 15.2358 46.0702 15.2358 46.0708 15.2358C46.0714 15.2358 46.072 15.2358 46.0726 15.2358C46.0732 15.2358 46.0738 15.2358 46.0745 15.2358C46.0751 15.2358 46.0757 15.2358 46.0763 15.2358C46.0769 15.2358 46.0775 15.2358 46.0781 15.2358C46.0787 15.2358 46.0792 15.2358 46.0798 15.2358C46.0804 15.2358 46.0809 15.2358 46.0816 15.2358C46.0821 15.2358 46.0827 15.2358 46.0833 15.2358C46.0838 15.2358 46.0844 15.2358 46.0849 15.2358C46.0855 15.2358 46.086 15.2358 46.0866 15.2358C46.0871 15.2358 46.0877 15.2358 46.0882 15.2358C46.0887 15.2358 46.0893 15.2358 46.0898 15.2358C46.0903 15.2358 46.0909 15.2358 46.0914 15.2358C46.0919 15.2358 46.0924 15.2358 46.0929 15.2358C46.0934 15.2358 46.0939 15.2358 46.0944 15.2358C46.0949 15.2358 46.0954 15.2358 46.0959 15.2358C46.0964 15.2358 46.0969 15.2358 46.0974 15.2358C46.0978 15.2358 46.0983 15.2358 46.0988 15.2358C46.0993 15.2358 46.0997 15.2358 46.1002 15.2358C46.1007 15.2358 46.1012 15.2358 46.1016 15.2358C46.102 15.2358 46.1025 15.2358 46.1029 15.2358C46.1034 15.2358 46.1038 15.2358 46.1043 15.2358C46.1047 15.2358 46.1051 15.2358 46.1056 15.2358C46.106 15.2358 46.1064 15.2358 46.1068 15.2358C46.1072 15.2358 46.1076 15.2358 46.1081 15.2358C46.1084 15.2358 46.1089 15.2358 46.1092 15.2358C46.1097 15.2358 46.11 15.2358 46.1105 15.2358C46.1108 15.2358 46.1112 15.2358 46.1116 15.2358C46.1119 15.2358 46.1124 15.2358 46.1127 15.2358C46.1131 15.2358 46.1135 15.2358 46.1138 15.2358C46.1141 15.2358 46.1145 15.2358 46.1149 15.2358C46.1152 15.2358 46.1156 15.2358 46.1159 15.2358C46.1162 15.2358 46.1166 15.2358 46.1169 15.2358C46.1172 15.2358 46.1176 15.2358 46.1179 15.2358C46.1182 15.2358 46.1185 15.2358 46.1188 15.2358C46.1191 15.2358 46.1194 15.2358 46.1197 15.2358C46.12 15.2358 46.1203 15.2358 46.1206 15.2358C46.1209 15.2358 46.1212 15.2358 46.1215 15.2358C46.1217 15.2358 46.122 15.2358 46.1223 15.2358C46.1225 15.2358 46.1228 15.2358 46.1231 15.2358C46.1233 15.2358 46.1236 15.2358 46.1238 15.2358C46.1241 15.2358 46.1243 15.2358 46.1246 15.2358C46.1248 15.2358 46.125 15.2358 46.1253 15.2358C46.1255 15.2358 46.1257 15.2358 46.126 15.2358C46.1258 15.2358 46.1261 15.2358 46.126 15.2358L46.1266 51.6342ZM44.5523 33.4351C64.954 34.1335 64.954 34.1343 64.954 34.1351C64.954 34.1353 64.954 34.136 64.954 34.1366C64.954 34.1376 64.954 34.1386 64.9534 34.1396C64.9534 34.1417 64.9534 34.1437 64.9534 34.1458C64.9534 34.15 64.9527 34.1542 64.9527 34.1585C64.9521 34.1671 64.9521 34.176 64.9515 34.1852C64.9509 34.2035 64.9497 34.2231 64.9491 34.2439C64.9466 34.2852 64.9442 34.3323 64.9411 34.3843C64.9356 34.4851 64.927 34.6201 64.9142 34.7787C64.9007 34.9553 64.8443 35.6885 64.6783 36.5893L24.3866 30.6795C24.2351 31.5001 24.1889 32.1337 24.1813 32.2306C24.1719 32.3493 24.1656 32.4496 24.1612 32.5256C24.159 32.5651 24.157 32.6023 24.1553 32.6368C24.1544 32.6541 24.1536 32.6711 24.1528 32.6877C24.1525 32.696 24.1521 32.7042 24.1517 32.7123C24.1515 32.7164 24.1514 32.7205 24.1512 32.7245C24.1511 32.7265 24.151 32.7286 24.1509 32.7306C24.1509 32.7316 24.1508 32.7326 24.1508 32.7336C24.1507 32.7341 24.1507 32.7348 24.1507 32.7351C24.1507 32.7359 24.1506 32.7366 44.5523 33.4351ZM64.6783 36.5884C64.4591 37.7746 64.0903 39.096 63.4907 40.4887L25.3699 27.4433C24.8796 28.5818 24.5717 29.6765 24.3864 30.6804L64.6783 36.5884ZM63.4907 40.4879C62.2461 43.378 60.1642 46.2006 57.151 48.533L30.3788 21.0497C28.0671 22.8389 26.3911 25.0719 25.3696 27.444L63.4907 40.4879ZM57.151 48.533C51.2505 53.1001 44.3706 53.9191 39.8294 53.9191V17.5206C39.3921 17.5206 34.8976 17.552 30.3788 21.0497L57.151 48.533ZM39.8294 53.9191H36.5082V17.5206H39.8294V53.9191ZM56.404 39.8047L55.2232 44.3741L15.4318 36.2044L16.6125 31.6349L56.404 39.8047ZM35.3275 22.09H35.8937V58.4884H35.3275V22.09ZM35.8937 22.09C50.0167 22.09 58.6717 32.6939 58.6717 42.5741H17.8384C17.8384 49.9307 24.3791 58.4884 35.8937 58.4884V22.09ZM58.6717 42.5741V44.0972H17.8384V42.5741H58.6717ZM58.6717 44.0972C58.6717 53.9775 50.0167 64.5809 35.8937 64.5809V28.1827C24.3791 28.1827 17.8384 36.7408 17.8384 44.0972H58.6717ZM35.8937 64.5809H30.3836V28.1827H35.8937V64.5809ZM30.3836 64.5809C16.2606 64.5809 7.60547 53.9775 7.60547 44.0972H48.4388C48.4388 36.7408 41.8982 28.1827 30.3836 28.1827V64.5809ZM7.60547 44.0972V42.1463H48.4388V44.0972H7.60547ZM7.60547 42.1463C7.60547 32.9545 15.117 23.2891 27.7777 22.1842L31.7563 58.4097C42.4604 57.4756 48.4388 49.4006 48.4388 42.1463H7.60547ZM9.87129 36.2119L11.054 31.6349L50.8454 39.8047L49.6627 44.3818L9.87129 36.2119ZM30.9497 53.9191H30.3836V17.5206H30.9497V53.9191ZM30.3836 53.9191C16.2603 53.9191 7.60547 43.315 7.60547 33.4351H48.4388C48.4388 26.0788 41.8984 17.5206 30.3836 17.5206V53.9191ZM7.60547 33.4351V31.9119H48.4388V33.4351H7.60547ZM7.60547 31.9119C7.60547 22.032 16.2603 11.4279 30.3836 11.4279V47.8265C41.8984 47.8265 48.4388 39.2682 48.4388 31.9119H7.60547ZM30.3836 11.4279H39.8294V47.8265H30.3836V11.4279ZM39.8294 11.4279C44.3706 11.4279 51.2504 12.2468 57.151 16.8139L30.3788 44.2973C34.8977 47.7949 39.3921 47.8265 39.8294 47.8265V11.4279ZM57.151 16.8139C60.1642 19.1463 62.2461 21.9689 63.4907 24.8588L25.3698 37.9034C26.3913 40.2753 28.0672 42.5081 30.3788 44.2973L57.151 16.8139ZM63.4907 24.8588C64.0903 26.2513 64.4591 27.5724 64.6783 28.7586L24.3864 34.6666C24.5717 35.6704 24.8796 36.7651 25.3698 37.9034L63.4907 24.8588ZM64.6783 28.7574C64.8982 29.9504 64.9399 30.912 64.9521 31.1705L24.1526 32.6533C24.1582 32.7775 24.1909 33.6074 24.3866 34.6677L64.6783 28.7574ZM44.5523 13.7127H46.1266V50.1109H44.5523V13.7127ZM46.1266 13.7127C59.3802 13.7127 67.3305 23.6347 67.3305 32.6735H26.4971C26.4971 40.8711 33.7424 50.1109 46.1266 50.1109V13.7127ZM67.3305 32.6735C67.3305 41.7123 59.3802 51.6342 46.1266 51.6342L46.126 15.2358C33.7418 15.2358 26.4971 24.4759 26.4971 32.6735H67.3305ZM62.0795 39.8048L62.0783 39.807L23.8758 26.9533L23.8768 26.951L62.0795 39.8048ZM62.0366 39.9041C60.8925 42.5606 58.9709 45.1742 56.1673 47.3439L29.3956 19.8601C28.2238 20.767 27.1111 21.8501 26.1314 23.1137C25.1226 24.4151 24.4146 25.7018 23.9173 26.8562L62.0366 39.9041ZM56.1673 47.3439C51.4818 50.9703 46.086 52.0671 42.087 52.3248L39.1461 16.0208C37.791 16.108 33.5843 16.618 29.3956 19.8601L56.1673 47.3439ZM20.1999 34.1728V31.1742H61.0334V34.1728H20.1999ZM42.087 13.0222C46.086 13.2797 51.4818 14.3766 56.1673 18.0032L29.3956 45.487C33.5843 48.729 37.791 49.239 39.1461 49.3263L42.087 13.0222ZM56.1673 18.0032C58.9709 20.1732 60.8925 22.7864 62.0366 25.4429L23.9173 38.4907C24.4146 39.6452 25.1226 40.9319 26.1314 42.2333C27.1111 43.4969 28.2238 44.58 29.3956 45.487L56.1673 18.0032ZM62.0783 25.5399L62.0795 25.5422L23.8768 38.396L23.8758 38.3937L62.0783 25.5399ZM63.3945 31.9691V33.3779H22.5613V31.9691H63.3945ZM59.4589 31.1504V34.1966H18.6256V31.1504H59.4589ZM39.0422 52.3958H36.5082V15.9974H39.0422V52.3958ZM36.5082 52.3958C46.3474 52.3958 53.1624 46.069 54.8766 39.4355L15.0852 31.2655C17.1498 23.2758 25.2242 15.9974 36.5082 15.9974V52.3958ZM54.8766 39.4355L53.6959 44.0047L13.9045 35.8349L15.0852 31.2655L54.8766 39.4355ZM53.6959 44.0047C55.9079 35.445 49.5128 23.6132 35.3275 23.6132V60.0116C19.0937 60.0116 11.1957 46.3172 13.9045 35.8349L53.6959 44.0047ZM35.3275 23.6132H35.8937V60.0116H35.3275V23.6132ZM35.8937 23.6132C49.1472 23.6132 57.0974 33.5351 57.0974 42.5741H16.2641C16.2641 50.7715 23.5096 60.0116 35.8937 60.0116V23.6132ZM57.0974 42.5741V44.0972H16.2641V42.5741H57.0974ZM57.0974 44.0972C57.0974 53.1361 49.1472 63.0582 35.8937 63.0582V26.6595C23.5096 26.6595 16.2641 35.8995 16.2641 44.0972H57.0974ZM35.8937 63.0582H30.3836V26.6595H35.8937V63.0582ZM30.3836 63.0582C17.13 63.0582 9.17978 53.1361 9.17978 44.0972H50.0131C50.0131 35.8995 42.7676 26.6595 30.3836 26.6595V63.0582ZM9.17978 44.0972V42.1463H50.0131V44.0972H9.17978ZM9.17978 42.1463C9.17978 33.3437 16.9322 23.6132 29.9415 23.6132V60.0116C42.5697 60.0116 50.0131 50.5804 50.0131 42.1463H9.17978ZM29.9415 23.6132C20.0023 23.6132 13.0975 30.0055 11.3586 36.7364L51.1503 44.905C49.1101 52.8015 41.1226 60.0116 29.9415 60.0116V23.6132ZM11.3587 36.7358L12.5813 32.0043L52.3727 40.1742L51.1501 44.9055L11.3587 36.7358ZM12.5813 32.0043C10.3693 40.5644 16.7647 52.3958 30.9497 52.3958V15.9974C47.1832 15.9974 55.0816 29.6915 52.3727 40.1742L12.5813 32.0043ZM30.9497 52.3958H30.3836V15.9974H30.9497V52.3958ZM30.3836 52.3958C17.1298 52.3958 9.17978 42.4737 9.17978 33.4351H50.0131C50.0131 25.2376 42.7679 15.9974 30.3836 15.9974V52.3958ZM9.17978 33.4351V31.9119H50.0131V33.4351H9.17978ZM9.17978 31.9119C9.17978 22.8733 17.1298 12.9511 30.3836 12.9511V49.3498C42.7679 49.3498 50.0131 40.1093 50.0131 31.9119H9.17978ZM30.3836 12.9511H39.0422V49.3498H30.3836V12.9511Z" fill="#2B2B2B"/>
</g>
<path d="M46.1279 31.8612H44.5536C44.5536 30.074 41.8248 29.6272 40.4604 29.6272H30.2275C28.4643 29.6272 28.0234 30.9303 28.0234 31.5819V33.8159C28.0234 35.1562 29.9126 35.6775 30.8572 35.7706L29.7552 40.2385C28.3698 40.3502 28.0234 41.5882 28.0234 42.1932V44.4272C28.0234 45.9909 29.4928 46.3819 30.2275 46.3819H35.8949C37.7841 46.3819 38.2564 45.0786 38.2564 44.4272V42.1932C38.2564 40.6294 36.3672 40.2385 35.4227 40.2385L36.5247 35.7706H40.4604C43.609 35.7706 44.5011 34.2812 44.5536 33.5366H46.1279C47.2299 33.5366 47.0725 31.8612 46.1279 31.8612Z" stroke="#2B2B2B"/>
<path d="M39.0472 33.6888V31.709C39.0472 31.4074 38.7743 31.163 38.436 31.163H30.3884C29.7587 31.163 29.6013 31.7215 29.6013 32.0008V33.397C29.6013 34.0672 30.336 34.2347 30.7033 34.2347C32.4665 34.2347 32.6974 35.3517 32.5925 35.9102C32.2776 37.1668 31.6164 39.7917 31.4904 40.2385C31.333 40.797 31.0182 41.7743 30.231 41.7743C29.6466 41.7743 29.5594 42.1753 29.5918 42.4189C29.5966 42.4548 29.6013 42.4905 29.6013 42.5266V44.0083C29.6013 44.6785 30.231 44.846 30.5459 44.846H35.8985C36.5283 44.846 36.6857 44.2876 36.6857 44.0083V42.4725C36.6857 41.914 35.8461 41.7743 35.4262 41.7743C33.789 41.7743 33.5895 40.7505 33.6945 40.2385L34.7965 35.9102C35.0484 34.6815 36.056 34.2812 36.5283 34.2347H38.4347C38.7729 34.2347 39.0472 33.9903 39.0472 33.6888Z" stroke="#2B2B2B"/>
<path d="M40.6211 33.5694V31.709C40.6211 31.4074 40.8982 31.1601 41.2284 31.2253C41.8473 31.3477 42.4084 31.6265 42.7588 31.8472C42.9053 31.9395 42.9825 32.0927 42.9825 32.2526V33.397C42.9825 33.6455 42.1169 33.9093 41.3484 34.0861C40.9744 34.1721 40.6211 33.9137 40.6211 33.5694Z" stroke="#2B2B2B"/>
</svg>
